G04 EAGLE Gerber RS-274X export*
G75*
%MOMM*%
%FSLAX34Y34*%
%LPD*%
%INTop Copper*%
%IPPOS*%
%AMOC8*
5,1,8,0,0,1.08239X$1,22.5*%
G01*
G04 Define Apertures*
%ADD10C,1.524000*%
%ADD11C,1.208000*%
%ADD12R,1.800000X0.700000*%
%ADD13R,1.800000X0.800000*%
%ADD14R,1.800000X0.900000*%
%ADD15C,0.152400*%
%ADD16C,0.654800*%
G36*
X177197Y3328D02*
X180165Y4123D01*
X180507Y4320D01*
X182680Y6493D01*
X182877Y6835D01*
X183672Y9803D01*
X183698Y10000D01*
X183698Y119000D01*
X183672Y119197D01*
X182877Y122165D01*
X182680Y122507D01*
X180507Y124680D01*
X180165Y124877D01*
X177197Y125672D01*
X177000Y125698D01*
X110000Y125698D01*
X109803Y125672D01*
X106835Y124877D01*
X106493Y124680D01*
X104320Y122507D01*
X104123Y122165D01*
X103328Y119197D01*
X103302Y119000D01*
X103302Y94632D01*
X101368Y92698D01*
X-90000Y92698D01*
X-90197Y92672D01*
X-93165Y91877D01*
X-93507Y91680D01*
X-95680Y89507D01*
X-95877Y89165D01*
X-96672Y86197D01*
X-96698Y86000D01*
X-96698Y47000D01*
X-96672Y46803D01*
X-95877Y43835D01*
X-95680Y43493D01*
X-93507Y41320D01*
X-93165Y41123D01*
X-90197Y40328D01*
X-90000Y40302D01*
X101368Y40302D01*
X103302Y38368D01*
X103302Y10000D01*
X103328Y9803D01*
X104123Y6835D01*
X104320Y6493D01*
X106493Y4320D01*
X106835Y4123D01*
X109803Y3328D01*
X110000Y3302D01*
X177000Y3302D01*
X177197Y3328D01*
G37*
%LPC*%
G36*
X159405Y99136D02*
X156625Y100288D01*
X154498Y102415D01*
X153346Y105195D01*
X153346Y108205D01*
X154498Y110985D01*
X156625Y113112D01*
X159405Y114264D01*
X162415Y114264D01*
X162618Y114180D01*
X162916Y114122D01*
X163202Y114180D01*
X163405Y114264D01*
X166415Y114264D01*
X166618Y114180D01*
X166916Y114122D01*
X167202Y114180D01*
X167405Y114264D01*
X170415Y114264D01*
X173195Y113112D01*
X175322Y110985D01*
X176474Y108205D01*
X176474Y105195D01*
X175322Y102415D01*
X173195Y100288D01*
X170415Y99136D01*
X167405Y99136D01*
X167202Y99220D01*
X166904Y99278D01*
X166618Y99220D01*
X166415Y99136D01*
X163405Y99136D01*
X163202Y99220D01*
X162904Y99278D01*
X162618Y99220D01*
X162415Y99136D01*
X159405Y99136D01*
G37*
G36*
X122672Y91762D02*
X122672Y98040D01*
X122721Y98040D01*
X123018Y98100D01*
X123268Y98272D01*
X123431Y98527D01*
X123482Y98826D01*
X123412Y99121D01*
X123233Y99366D01*
X123012Y99506D01*
X121125Y100288D01*
X118998Y102415D01*
X117846Y105195D01*
X117846Y108205D01*
X118998Y110985D01*
X121125Y113112D01*
X123905Y114264D01*
X126915Y114264D01*
X127618Y113972D01*
X127916Y113915D01*
X128202Y113972D01*
X128905Y114264D01*
X131915Y114264D01*
X134695Y113112D01*
X136822Y110985D01*
X137974Y108205D01*
X137974Y105195D01*
X136822Y102415D01*
X134695Y100288D01*
X132227Y99265D01*
X131975Y99096D01*
X131810Y98842D01*
X131757Y98543D01*
X131824Y98247D01*
X131980Y98023D01*
X133450Y96552D01*
X133450Y91762D01*
X122672Y91762D01*
G37*
G36*
X110370Y91762D02*
X110370Y96552D01*
X111858Y98040D01*
X121148Y98040D01*
X121148Y91762D01*
X110370Y91762D01*
G37*
G36*
X110370Y36762D02*
X110370Y41552D01*
X111398Y42580D01*
X111565Y42832D01*
X111621Y43131D01*
X111556Y43427D01*
X111398Y43657D01*
X111386Y43669D01*
X111386Y52931D01*
X111566Y53111D01*
X111733Y53364D01*
X111789Y53662D01*
X111724Y53958D01*
X111566Y54189D01*
X111386Y54369D01*
X111386Y62631D01*
X111716Y62961D01*
X111883Y63214D01*
X111939Y63512D01*
X111874Y63808D01*
X111716Y64039D01*
X111386Y64369D01*
X111386Y72631D01*
X111566Y72811D01*
X111733Y73064D01*
X111789Y73362D01*
X111724Y73658D01*
X111566Y73889D01*
X111386Y74069D01*
X111386Y83331D01*
X111398Y83343D01*
X111565Y83596D01*
X111621Y83894D01*
X111556Y84190D01*
X111398Y84420D01*
X110370Y85448D01*
X110370Y90238D01*
X133450Y90238D01*
X133450Y85448D01*
X132423Y84420D01*
X132255Y84168D01*
X132199Y83869D01*
X132265Y83573D01*
X132423Y83343D01*
X132434Y83331D01*
X132434Y79248D01*
X132494Y78951D01*
X132666Y78701D01*
X132921Y78537D01*
X133196Y78486D01*
X134885Y78486D01*
X135182Y78546D01*
X135424Y78709D01*
X137713Y80998D01*
X141687Y80998D01*
X144498Y78187D01*
X144498Y74213D01*
X141687Y71402D01*
X137713Y71402D01*
X135424Y73691D01*
X135171Y73858D01*
X134885Y73914D01*
X132991Y73914D01*
X132694Y73854D01*
X132444Y73682D01*
X132280Y73427D01*
X132229Y73128D01*
X132299Y72833D01*
X132434Y72639D01*
X132434Y64369D01*
X132104Y64039D01*
X131937Y63786D01*
X131881Y63488D01*
X131946Y63192D01*
X132104Y62961D01*
X132434Y62631D01*
X132434Y54369D01*
X132254Y54189D01*
X132087Y53936D01*
X132031Y53638D01*
X132096Y53342D01*
X132254Y53111D01*
X132434Y52931D01*
X132434Y51348D01*
X132494Y51051D01*
X132666Y50801D01*
X132921Y50637D01*
X133196Y50586D01*
X134140Y50586D01*
X134437Y50646D01*
X134687Y50818D01*
X134851Y51073D01*
X134902Y51348D01*
X134902Y52787D01*
X137713Y55598D01*
X141687Y55598D01*
X144498Y52787D01*
X144498Y48813D01*
X141687Y46002D01*
X137447Y46002D01*
X137385Y46014D01*
X133196Y46014D01*
X132899Y45954D01*
X132649Y45782D01*
X132485Y45527D01*
X132434Y45252D01*
X132434Y43669D01*
X132423Y43657D01*
X132255Y43404D01*
X132199Y43106D01*
X132265Y42810D01*
X132423Y42580D01*
X133450Y41552D01*
X133450Y36762D01*
X110370Y36762D01*
G37*
G36*
X41063Y60692D02*
X36494Y64336D01*
X33958Y69601D01*
X33958Y75445D01*
X36494Y80710D01*
X41063Y84354D01*
X46760Y85654D01*
X52458Y84354D01*
X57027Y80710D01*
X59562Y75445D01*
X59562Y69601D01*
X57027Y64336D01*
X52458Y60692D01*
X46760Y59392D01*
X41063Y60692D01*
G37*
G36*
X-66040Y68072D02*
X-66040Y76951D01*
X-64493Y80685D01*
X-61635Y83543D01*
X-57901Y85090D01*
X-56642Y85090D01*
X-56642Y68072D01*
X-66040Y68072D01*
G37*
G36*
X-55118Y68072D02*
X-55118Y85090D01*
X-53859Y85090D01*
X-50125Y83543D01*
X-47267Y80685D01*
X-45720Y76951D01*
X-45720Y68072D01*
X-55118Y68072D01*
G37*
G36*
X-31750Y68034D02*
X-31750Y76913D01*
X-30203Y80647D01*
X-27345Y83505D01*
X-23611Y85052D01*
X-22352Y85052D01*
X-22352Y68034D01*
X-31750Y68034D01*
G37*
G36*
X-20828Y68034D02*
X-20828Y85052D01*
X-19569Y85052D01*
X-15835Y83505D01*
X-12977Y80647D01*
X-11430Y76913D01*
X-11430Y68034D01*
X-20828Y68034D01*
G37*
G36*
X-83099Y50546D02*
X-86460Y51938D01*
X-89032Y54510D01*
X-90424Y57871D01*
X-90424Y76749D01*
X-89032Y80110D01*
X-86460Y82682D01*
X-83099Y84074D01*
X-79461Y84074D01*
X-76100Y82682D01*
X-73528Y80110D01*
X-72136Y76749D01*
X-72136Y57871D01*
X-73528Y54510D01*
X-76100Y51938D01*
X-79461Y50546D01*
X-83099Y50546D01*
G37*
G36*
X1991Y50508D02*
X-1370Y51900D01*
X-3942Y54472D01*
X-5334Y57833D01*
X-5334Y76711D01*
X-3942Y80072D01*
X-1370Y82644D01*
X1991Y84036D01*
X5629Y84036D01*
X8990Y82644D01*
X11562Y80072D01*
X12954Y76711D01*
X12954Y57833D01*
X11562Y54472D01*
X8990Y51900D01*
X5629Y50508D01*
X1991Y50508D01*
G37*
G36*
X-55118Y49530D02*
X-55118Y66548D01*
X-45720Y66548D01*
X-45720Y57669D01*
X-47267Y53935D01*
X-50125Y51077D01*
X-53859Y49530D01*
X-55118Y49530D01*
G37*
G36*
X-57901Y49530D02*
X-61635Y51077D01*
X-64493Y53935D01*
X-66040Y57669D01*
X-66040Y66548D01*
X-56642Y66548D01*
X-56642Y49530D01*
X-57901Y49530D01*
G37*
G36*
X-20828Y49492D02*
X-20828Y66510D01*
X-11430Y66510D01*
X-11430Y57631D01*
X-12977Y53897D01*
X-15835Y51039D01*
X-19569Y49492D01*
X-20828Y49492D01*
G37*
G36*
X-23611Y49492D02*
X-27345Y51039D01*
X-30203Y53897D01*
X-31750Y57631D01*
X-31750Y66510D01*
X-22352Y66510D01*
X-22352Y49492D01*
X-23611Y49492D01*
G37*
G36*
X123905Y12736D02*
X121125Y13888D01*
X118998Y16015D01*
X117846Y18795D01*
X117846Y21805D01*
X118998Y24585D01*
X121125Y26712D01*
X123012Y27494D01*
X123264Y27664D01*
X123429Y27918D01*
X123482Y28216D01*
X123415Y28512D01*
X123237Y28758D01*
X122978Y28915D01*
X122721Y28960D01*
X122672Y28960D01*
X122672Y35238D01*
X133450Y35238D01*
X133450Y30448D01*
X131980Y28978D01*
X131812Y28725D01*
X131757Y28427D01*
X131822Y28130D01*
X131997Y27883D01*
X132227Y27735D01*
X134695Y26712D01*
X136822Y24585D01*
X137974Y21805D01*
X137974Y18795D01*
X136822Y16015D01*
X134695Y13888D01*
X131915Y12736D01*
X128905Y12736D01*
X128202Y13028D01*
X127904Y13086D01*
X127618Y13028D01*
X126915Y12736D01*
X123905Y12736D01*
G37*
G36*
X111858Y28960D02*
X110370Y30448D01*
X110370Y35238D01*
X121148Y35238D01*
X121148Y28960D01*
X111858Y28960D01*
G37*
G36*
X159405Y12736D02*
X156625Y13888D01*
X154498Y16015D01*
X153346Y18795D01*
X153346Y21805D01*
X154498Y24585D01*
X156625Y26712D01*
X159405Y27864D01*
X162415Y27864D01*
X162618Y27780D01*
X162916Y27722D01*
X163202Y27780D01*
X163405Y27864D01*
X166415Y27864D01*
X166618Y27780D01*
X166916Y27722D01*
X167202Y27780D01*
X167405Y27864D01*
X170415Y27864D01*
X173195Y26712D01*
X175322Y24585D01*
X176474Y21805D01*
X176474Y18795D01*
X175322Y16015D01*
X173195Y13888D01*
X170415Y12736D01*
X167405Y12736D01*
X167202Y12820D01*
X166904Y12878D01*
X166618Y12820D01*
X166415Y12736D01*
X163405Y12736D01*
X163202Y12820D01*
X162904Y12878D01*
X162618Y12820D01*
X162415Y12736D01*
X159405Y12736D01*
G37*
%LPD*%
D10*
X-81280Y59690D02*
X-81280Y74930D01*
X-55880Y74930D02*
X-55880Y59690D01*
X3810Y59652D02*
X3810Y74892D01*
X-21590Y74892D02*
X-21590Y59652D01*
D11*
X168910Y20300D03*
X164910Y20300D03*
X160910Y20300D03*
X130410Y20300D03*
X125410Y20300D03*
X168910Y106700D03*
X164910Y106700D03*
X160910Y106700D03*
X130410Y106700D03*
X125410Y106700D03*
D12*
X121910Y58500D03*
X121910Y68500D03*
D13*
X121910Y78700D03*
X121910Y48300D03*
D14*
X121910Y91000D03*
X121910Y36000D03*
D15*
X121910Y76200D02*
X121910Y78700D01*
X121910Y76200D02*
X139700Y76200D01*
D16*
X139700Y76200D03*
D15*
X139700Y48300D02*
X121910Y48300D01*
X139700Y48300D02*
X139700Y50800D01*
D16*
X139700Y50800D03*
D15*
X121910Y87630D02*
X121910Y91000D01*
X121910Y87630D02*
X109220Y87630D01*
X109220Y76200D01*
M02*
