G04 EAGLE Gerber RS-274X export*
G75*
%MOMM*%
%FSLAX34Y34*%
%LPD*%
%INMechanical*%
%IPPOS*%
%AMOC8*
5,1,8,0,0,1.08239X$1,22.5*%
G01*
G04 Define Apertures*
%ADD10C,0.152400*%
D10*
X37260Y72523D02*
X37263Y72756D01*
X37271Y72989D01*
X37286Y73222D01*
X37306Y73454D01*
X37331Y73686D01*
X37363Y73917D01*
X37400Y74147D01*
X37443Y74376D01*
X37491Y74604D01*
X37545Y74831D01*
X37604Y75057D01*
X37669Y75281D01*
X37739Y75503D01*
X37815Y75723D01*
X37897Y75942D01*
X37983Y76158D01*
X38075Y76373D01*
X38172Y76585D01*
X38274Y76794D01*
X38382Y77001D01*
X38494Y77206D01*
X38612Y77407D01*
X38734Y77605D01*
X38861Y77801D01*
X38993Y77993D01*
X39130Y78182D01*
X39271Y78368D01*
X39416Y78550D01*
X39567Y78728D01*
X39721Y78903D01*
X39880Y79074D01*
X40042Y79241D01*
X40209Y79403D01*
X40380Y79562D01*
X40555Y79716D01*
X40733Y79867D01*
X40915Y80012D01*
X41101Y80153D01*
X41290Y80290D01*
X41482Y80422D01*
X41678Y80549D01*
X41876Y80671D01*
X42077Y80789D01*
X42282Y80901D01*
X42489Y81009D01*
X42698Y81111D01*
X42910Y81208D01*
X43125Y81300D01*
X43341Y81386D01*
X43560Y81468D01*
X43780Y81544D01*
X44002Y81614D01*
X44226Y81679D01*
X44452Y81738D01*
X44679Y81792D01*
X44907Y81840D01*
X45136Y81883D01*
X45366Y81920D01*
X45597Y81952D01*
X45829Y81977D01*
X46061Y81997D01*
X46294Y82012D01*
X46527Y82020D01*
X46760Y82023D01*
X46993Y82020D01*
X47226Y82012D01*
X47459Y81997D01*
X47691Y81977D01*
X47923Y81952D01*
X48154Y81920D01*
X48384Y81883D01*
X48613Y81840D01*
X48841Y81792D01*
X49068Y81738D01*
X49294Y81679D01*
X49518Y81614D01*
X49740Y81544D01*
X49960Y81468D01*
X50179Y81386D01*
X50395Y81300D01*
X50610Y81208D01*
X50822Y81111D01*
X51031Y81009D01*
X51238Y80901D01*
X51443Y80789D01*
X51644Y80671D01*
X51842Y80549D01*
X52038Y80422D01*
X52230Y80290D01*
X52419Y80153D01*
X52605Y80012D01*
X52787Y79867D01*
X52965Y79716D01*
X53140Y79562D01*
X53311Y79403D01*
X53478Y79241D01*
X53640Y79074D01*
X53799Y78903D01*
X53953Y78728D01*
X54104Y78550D01*
X54249Y78368D01*
X54390Y78182D01*
X54527Y77993D01*
X54659Y77801D01*
X54786Y77605D01*
X54908Y77407D01*
X55026Y77206D01*
X55138Y77001D01*
X55246Y76794D01*
X55348Y76585D01*
X55445Y76373D01*
X55537Y76158D01*
X55623Y75942D01*
X55705Y75723D01*
X55781Y75503D01*
X55851Y75281D01*
X55916Y75057D01*
X55975Y74831D01*
X56029Y74604D01*
X56077Y74376D01*
X56120Y74147D01*
X56157Y73917D01*
X56189Y73686D01*
X56214Y73454D01*
X56234Y73222D01*
X56249Y72989D01*
X56257Y72756D01*
X56260Y72523D01*
X56257Y72290D01*
X56249Y72057D01*
X56234Y71824D01*
X56214Y71592D01*
X56189Y71360D01*
X56157Y71129D01*
X56120Y70899D01*
X56077Y70670D01*
X56029Y70442D01*
X55975Y70215D01*
X55916Y69989D01*
X55851Y69765D01*
X55781Y69543D01*
X55705Y69323D01*
X55623Y69104D01*
X55537Y68888D01*
X55445Y68673D01*
X55348Y68461D01*
X55246Y68252D01*
X55138Y68045D01*
X55026Y67840D01*
X54908Y67639D01*
X54786Y67441D01*
X54659Y67245D01*
X54527Y67053D01*
X54390Y66864D01*
X54249Y66678D01*
X54104Y66496D01*
X53953Y66318D01*
X53799Y66143D01*
X53640Y65972D01*
X53478Y65805D01*
X53311Y65643D01*
X53140Y65484D01*
X52965Y65330D01*
X52787Y65179D01*
X52605Y65034D01*
X52419Y64893D01*
X52230Y64756D01*
X52038Y64624D01*
X51842Y64497D01*
X51644Y64375D01*
X51443Y64257D01*
X51238Y64145D01*
X51031Y64037D01*
X50822Y63935D01*
X50610Y63838D01*
X50395Y63746D01*
X50179Y63660D01*
X49960Y63578D01*
X49740Y63502D01*
X49518Y63432D01*
X49294Y63367D01*
X49068Y63308D01*
X48841Y63254D01*
X48613Y63206D01*
X48384Y63163D01*
X48154Y63126D01*
X47923Y63094D01*
X47691Y63069D01*
X47459Y63049D01*
X47226Y63034D01*
X46993Y63026D01*
X46760Y63023D01*
X46527Y63026D01*
X46294Y63034D01*
X46061Y63049D01*
X45829Y63069D01*
X45597Y63094D01*
X45366Y63126D01*
X45136Y63163D01*
X44907Y63206D01*
X44679Y63254D01*
X44452Y63308D01*
X44226Y63367D01*
X44002Y63432D01*
X43780Y63502D01*
X43560Y63578D01*
X43341Y63660D01*
X43125Y63746D01*
X42910Y63838D01*
X42698Y63935D01*
X42489Y64037D01*
X42282Y64145D01*
X42077Y64257D01*
X41876Y64375D01*
X41678Y64497D01*
X41482Y64624D01*
X41290Y64756D01*
X41101Y64893D01*
X40915Y65034D01*
X40733Y65179D01*
X40555Y65330D01*
X40380Y65484D01*
X40209Y65643D01*
X40042Y65805D01*
X39880Y65972D01*
X39721Y66143D01*
X39567Y66318D01*
X39416Y66496D01*
X39271Y66678D01*
X39130Y66864D01*
X38993Y67053D01*
X38861Y67245D01*
X38734Y67441D01*
X38612Y67639D01*
X38494Y67840D01*
X38382Y68045D01*
X38274Y68252D01*
X38172Y68461D01*
X38075Y68673D01*
X37983Y68888D01*
X37897Y69104D01*
X37815Y69323D01*
X37739Y69543D01*
X37669Y69765D01*
X37604Y69989D01*
X37545Y70215D01*
X37491Y70442D01*
X37443Y70670D01*
X37400Y70899D01*
X37363Y71129D01*
X37331Y71360D01*
X37306Y71592D01*
X37286Y71824D01*
X37271Y72057D01*
X37263Y72290D01*
X37260Y72523D01*
X100000Y37000D02*
X-90000Y37000D01*
X-90242Y37003D01*
X-90483Y37012D01*
X-90724Y37026D01*
X-90965Y37047D01*
X-91205Y37073D01*
X-91445Y37105D01*
X-91684Y37143D01*
X-91921Y37186D01*
X-92158Y37236D01*
X-92393Y37291D01*
X-92627Y37351D01*
X-92859Y37418D01*
X-93090Y37489D01*
X-93319Y37567D01*
X-93546Y37650D01*
X-93771Y37738D01*
X-93994Y37832D01*
X-94214Y37931D01*
X-94432Y38036D01*
X-94647Y38145D01*
X-94860Y38260D01*
X-95070Y38380D01*
X-95276Y38505D01*
X-95480Y38635D01*
X-95681Y38770D01*
X-95878Y38910D01*
X-96072Y39054D01*
X-96262Y39203D01*
X-96448Y39357D01*
X-96631Y39515D01*
X-96810Y39677D01*
X-96985Y39844D01*
X-97156Y40015D01*
X-97323Y40190D01*
X-97485Y40369D01*
X-97643Y40552D01*
X-97797Y40738D01*
X-97946Y40928D01*
X-98090Y41122D01*
X-98230Y41319D01*
X-98365Y41520D01*
X-98495Y41724D01*
X-98620Y41930D01*
X-98740Y42140D01*
X-98855Y42353D01*
X-98964Y42568D01*
X-99069Y42786D01*
X-99168Y43006D01*
X-99262Y43229D01*
X-99350Y43454D01*
X-99433Y43681D01*
X-99511Y43910D01*
X-99582Y44141D01*
X-99649Y44373D01*
X-99709Y44607D01*
X-99764Y44842D01*
X-99814Y45079D01*
X-99857Y45316D01*
X-99895Y45555D01*
X-99927Y45795D01*
X-99953Y46035D01*
X-99974Y46276D01*
X-99988Y46517D01*
X-99997Y46758D01*
X-100000Y47000D01*
X-100000Y86000D01*
X-99997Y86242D01*
X-99988Y86483D01*
X-99974Y86724D01*
X-99953Y86965D01*
X-99927Y87205D01*
X-99895Y87445D01*
X-99857Y87684D01*
X-99814Y87921D01*
X-99764Y88158D01*
X-99709Y88393D01*
X-99649Y88627D01*
X-99582Y88859D01*
X-99511Y89090D01*
X-99433Y89319D01*
X-99350Y89546D01*
X-99262Y89771D01*
X-99168Y89994D01*
X-99069Y90214D01*
X-98964Y90432D01*
X-98855Y90647D01*
X-98740Y90860D01*
X-98620Y91070D01*
X-98495Y91276D01*
X-98365Y91480D01*
X-98230Y91681D01*
X-98090Y91878D01*
X-97946Y92072D01*
X-97797Y92262D01*
X-97643Y92448D01*
X-97485Y92631D01*
X-97323Y92810D01*
X-97156Y92985D01*
X-96985Y93156D01*
X-96810Y93323D01*
X-96631Y93485D01*
X-96448Y93643D01*
X-96262Y93797D01*
X-96072Y93946D01*
X-95878Y94090D01*
X-95681Y94230D01*
X-95480Y94365D01*
X-95276Y94495D01*
X-95070Y94620D01*
X-94860Y94740D01*
X-94647Y94855D01*
X-94432Y94964D01*
X-94214Y95069D01*
X-93994Y95168D01*
X-93771Y95262D01*
X-93546Y95350D01*
X-93319Y95433D01*
X-93090Y95511D01*
X-92859Y95582D01*
X-92627Y95649D01*
X-92393Y95709D01*
X-92158Y95764D01*
X-91921Y95814D01*
X-91684Y95857D01*
X-91445Y95895D01*
X-91205Y95927D01*
X-90965Y95953D01*
X-90724Y95974D01*
X-90483Y95988D01*
X-90242Y95997D01*
X-90000Y96000D01*
X100000Y96000D01*
X187000Y119000D02*
X187000Y10000D01*
X186997Y9758D01*
X186988Y9517D01*
X186974Y9276D01*
X186953Y9035D01*
X186927Y8795D01*
X186895Y8555D01*
X186857Y8316D01*
X186814Y8079D01*
X186764Y7842D01*
X186709Y7607D01*
X186649Y7373D01*
X186582Y7141D01*
X186511Y6910D01*
X186433Y6681D01*
X186350Y6454D01*
X186262Y6229D01*
X186168Y6006D01*
X186069Y5786D01*
X185964Y5568D01*
X185855Y5353D01*
X185740Y5140D01*
X185620Y4930D01*
X185495Y4724D01*
X185365Y4520D01*
X185230Y4319D01*
X185090Y4122D01*
X184946Y3928D01*
X184797Y3738D01*
X184643Y3552D01*
X184485Y3369D01*
X184323Y3190D01*
X184156Y3015D01*
X183985Y2844D01*
X183810Y2677D01*
X183631Y2515D01*
X183448Y2357D01*
X183262Y2203D01*
X183072Y2054D01*
X182878Y1910D01*
X182681Y1770D01*
X182480Y1635D01*
X182276Y1505D01*
X182070Y1380D01*
X181860Y1260D01*
X181647Y1145D01*
X181432Y1036D01*
X181214Y931D01*
X180994Y832D01*
X180771Y738D01*
X180546Y650D01*
X180319Y567D01*
X180090Y489D01*
X179859Y418D01*
X179627Y351D01*
X179393Y291D01*
X179158Y236D01*
X178921Y186D01*
X178684Y143D01*
X178445Y105D01*
X178205Y73D01*
X177965Y47D01*
X177724Y26D01*
X177483Y12D01*
X177242Y3D01*
X177000Y0D01*
X110000Y0D01*
X109758Y3D01*
X109517Y12D01*
X109276Y26D01*
X109035Y47D01*
X108795Y73D01*
X108555Y105D01*
X108316Y143D01*
X108079Y186D01*
X107842Y236D01*
X107607Y291D01*
X107373Y351D01*
X107141Y418D01*
X106910Y489D01*
X106681Y567D01*
X106454Y650D01*
X106229Y738D01*
X106006Y832D01*
X105786Y931D01*
X105568Y1036D01*
X105353Y1145D01*
X105140Y1260D01*
X104930Y1380D01*
X104724Y1505D01*
X104520Y1635D01*
X104319Y1770D01*
X104122Y1910D01*
X103928Y2054D01*
X103738Y2203D01*
X103552Y2357D01*
X103369Y2515D01*
X103190Y2677D01*
X103015Y2844D01*
X102844Y3015D01*
X102677Y3190D01*
X102515Y3369D01*
X102357Y3552D01*
X102203Y3738D01*
X102054Y3928D01*
X101910Y4122D01*
X101770Y4319D01*
X101635Y4520D01*
X101505Y4724D01*
X101380Y4930D01*
X101260Y5140D01*
X101145Y5353D01*
X101036Y5568D01*
X100931Y5786D01*
X100832Y6006D01*
X100738Y6229D01*
X100650Y6454D01*
X100567Y6681D01*
X100489Y6910D01*
X100418Y7141D01*
X100351Y7373D01*
X100291Y7607D01*
X100236Y7842D01*
X100186Y8079D01*
X100143Y8316D01*
X100105Y8555D01*
X100073Y8795D01*
X100047Y9035D01*
X100026Y9276D01*
X100012Y9517D01*
X100003Y9758D01*
X100000Y10000D01*
X100000Y37000D01*
X110000Y129000D02*
X177000Y129000D01*
X177242Y128997D01*
X177483Y128988D01*
X177724Y128974D01*
X177965Y128953D01*
X178205Y128927D01*
X178445Y128895D01*
X178684Y128857D01*
X178921Y128814D01*
X179158Y128764D01*
X179393Y128709D01*
X179627Y128649D01*
X179859Y128582D01*
X180090Y128511D01*
X180319Y128433D01*
X180546Y128350D01*
X180771Y128262D01*
X180994Y128168D01*
X181214Y128069D01*
X181432Y127964D01*
X181647Y127855D01*
X181860Y127740D01*
X182070Y127620D01*
X182276Y127495D01*
X182480Y127365D01*
X182681Y127230D01*
X182878Y127090D01*
X183072Y126946D01*
X183262Y126797D01*
X183448Y126643D01*
X183631Y126485D01*
X183810Y126323D01*
X183985Y126156D01*
X184156Y125985D01*
X184323Y125810D01*
X184485Y125631D01*
X184643Y125448D01*
X184797Y125262D01*
X184946Y125072D01*
X185090Y124878D01*
X185230Y124681D01*
X185365Y124480D01*
X185495Y124276D01*
X185620Y124070D01*
X185740Y123860D01*
X185855Y123647D01*
X185964Y123432D01*
X186069Y123214D01*
X186168Y122994D01*
X186262Y122771D01*
X186350Y122546D01*
X186433Y122319D01*
X186511Y122090D01*
X186582Y121859D01*
X186649Y121627D01*
X186709Y121393D01*
X186764Y121158D01*
X186814Y120921D01*
X186857Y120684D01*
X186895Y120445D01*
X186927Y120205D01*
X186953Y119965D01*
X186974Y119724D01*
X186988Y119483D01*
X186997Y119242D01*
X187000Y119000D01*
X100000Y119000D02*
X100000Y96000D01*
X100000Y119000D02*
X100003Y119242D01*
X100012Y119483D01*
X100026Y119724D01*
X100047Y119965D01*
X100073Y120205D01*
X100105Y120445D01*
X100143Y120684D01*
X100186Y120921D01*
X100236Y121158D01*
X100291Y121393D01*
X100351Y121627D01*
X100418Y121859D01*
X100489Y122090D01*
X100567Y122319D01*
X100650Y122546D01*
X100738Y122771D01*
X100832Y122994D01*
X100931Y123214D01*
X101036Y123432D01*
X101145Y123647D01*
X101260Y123860D01*
X101380Y124070D01*
X101505Y124276D01*
X101635Y124480D01*
X101770Y124681D01*
X101910Y124878D01*
X102054Y125072D01*
X102203Y125262D01*
X102357Y125448D01*
X102515Y125631D01*
X102677Y125810D01*
X102844Y125985D01*
X103015Y126156D01*
X103190Y126323D01*
X103369Y126485D01*
X103552Y126643D01*
X103738Y126797D01*
X103928Y126946D01*
X104122Y127090D01*
X104319Y127230D01*
X104520Y127365D01*
X104724Y127495D01*
X104930Y127620D01*
X105140Y127740D01*
X105353Y127855D01*
X105568Y127964D01*
X105786Y128069D01*
X106006Y128168D01*
X106229Y128262D01*
X106454Y128350D01*
X106681Y128433D01*
X106910Y128511D01*
X107141Y128582D01*
X107373Y128649D01*
X107607Y128709D01*
X107842Y128764D01*
X108079Y128814D01*
X108316Y128857D01*
X108555Y128895D01*
X108795Y128927D01*
X109035Y128953D01*
X109276Y128974D01*
X109517Y128988D01*
X109758Y128997D01*
X110000Y129000D01*
M02*
