G04 EAGLE Gerber RS-274X export*
G75*
%MOMM*%
%FSLAX34Y34*%
%LPD*%
%INTop Copper*%
%IPPOS*%
%AMOC8*
5,1,8,0,0,1.08239X$1,22.5*%
G01*
G04 Define Apertures*
%ADD10C,1.524000*%
%ADD11R,0.700000X1.000000*%
%ADD12C,0.254000*%
%ADD13C,0.654800*%
G36*
X322849Y2555D02*
X329239Y3826D01*
X329513Y3939D01*
X334931Y7559D01*
X335141Y7769D01*
X338761Y13187D01*
X338874Y13461D01*
X340145Y19851D01*
X340160Y20000D01*
X340160Y218000D01*
X340145Y218149D01*
X338874Y224539D01*
X338761Y224813D01*
X335141Y230231D01*
X334931Y230441D01*
X329513Y234061D01*
X329239Y234174D01*
X322849Y235445D01*
X322700Y235460D01*
X20000Y235460D01*
X19851Y235445D01*
X13461Y234174D01*
X13187Y234061D01*
X7769Y230441D01*
X7559Y230231D01*
X3939Y224813D01*
X3826Y224539D01*
X2555Y218149D01*
X2540Y218000D01*
X2540Y20000D01*
X2555Y19851D01*
X3826Y13461D01*
X3939Y13187D01*
X7559Y7769D01*
X7769Y7559D01*
X13187Y3939D01*
X13461Y3826D01*
X19851Y2555D01*
X20000Y2540D01*
X322700Y2540D01*
X322849Y2555D01*
G37*
%LPC*%
G36*
X112481Y21336D02*
X109120Y22728D01*
X106548Y25300D01*
X105156Y28661D01*
X105156Y47539D01*
X106548Y50900D01*
X109120Y53472D01*
X111036Y54265D01*
X111287Y54435D01*
X111453Y54689D01*
X111506Y54969D01*
X111506Y221157D01*
X113143Y222794D01*
X192057Y222794D01*
X193694Y221157D01*
X193694Y206433D01*
X193754Y206136D01*
X193926Y205886D01*
X194164Y205729D01*
X196080Y204936D01*
X198652Y202364D01*
X200044Y199003D01*
X200044Y180125D01*
X198652Y176764D01*
X196080Y174192D01*
X192719Y172800D01*
X189081Y172800D01*
X185720Y174192D01*
X183148Y176764D01*
X181756Y180125D01*
X181756Y199003D01*
X183148Y202364D01*
X185720Y204936D01*
X187636Y205729D01*
X187887Y205899D01*
X188053Y206153D01*
X188106Y206433D01*
X188106Y216444D01*
X188046Y216741D01*
X187874Y216991D01*
X187619Y217155D01*
X187344Y217206D01*
X117856Y217206D01*
X117559Y217146D01*
X117309Y216974D01*
X117145Y216719D01*
X117094Y216444D01*
X117094Y54969D01*
X117154Y54672D01*
X117326Y54422D01*
X117564Y54265D01*
X119480Y53472D01*
X122052Y50900D01*
X123444Y47539D01*
X123444Y28661D01*
X122052Y25300D01*
X119480Y22728D01*
X116119Y21336D01*
X112481Y21336D01*
G37*
G36*
X151243Y9906D02*
X149606Y11543D01*
X149606Y26670D01*
X149546Y26967D01*
X149374Y27217D01*
X149119Y27381D01*
X148820Y27432D01*
X148525Y27362D01*
X148280Y27182D01*
X148140Y26962D01*
X147452Y25300D01*
X144880Y22728D01*
X141519Y21336D01*
X137881Y21336D01*
X134520Y22728D01*
X131948Y25300D01*
X130556Y28661D01*
X130556Y47539D01*
X131948Y50900D01*
X134520Y53472D01*
X136436Y54265D01*
X136687Y54435D01*
X136853Y54689D01*
X136906Y54969D01*
X136906Y67444D01*
X136846Y67741D01*
X136674Y67991D01*
X136419Y68155D01*
X136144Y68206D01*
X121843Y68206D01*
X120206Y69843D01*
X120206Y211157D01*
X121843Y212794D01*
X166657Y212794D01*
X168294Y211157D01*
X168294Y206433D01*
X168354Y206136D01*
X168526Y205886D01*
X168764Y205729D01*
X170680Y204936D01*
X173252Y202364D01*
X174644Y199003D01*
X174644Y180125D01*
X173252Y176764D01*
X170680Y174192D01*
X167319Y172800D01*
X163681Y172800D01*
X160320Y174192D01*
X157748Y176764D01*
X156356Y180125D01*
X156356Y199003D01*
X157748Y202364D01*
X160320Y204936D01*
X162236Y205729D01*
X162487Y205899D01*
X162653Y206153D01*
X162706Y206433D01*
X162706Y206444D01*
X162646Y206741D01*
X162474Y206991D01*
X162219Y207155D01*
X161944Y207206D01*
X143630Y207206D01*
X143333Y207146D01*
X143083Y206974D01*
X142919Y206719D01*
X142868Y206420D01*
X142938Y206125D01*
X143118Y205880D01*
X143338Y205740D01*
X145280Y204936D01*
X147852Y202364D01*
X149244Y199003D01*
X149244Y180125D01*
X147852Y176764D01*
X145280Y174192D01*
X143264Y173357D01*
X143013Y173188D01*
X142847Y172934D01*
X142794Y172653D01*
X142794Y163556D01*
X142854Y163259D01*
X143026Y163009D01*
X143281Y162845D01*
X143556Y162794D01*
X178957Y162794D01*
X180594Y161157D01*
X180594Y62343D01*
X178957Y60706D01*
X168656Y60706D01*
X168359Y60646D01*
X168109Y60474D01*
X167945Y60219D01*
X167894Y59944D01*
X167894Y54969D01*
X167954Y54672D01*
X168126Y54422D01*
X168364Y54265D01*
X170280Y53472D01*
X172852Y50900D01*
X174244Y47539D01*
X174244Y28661D01*
X172852Y25300D01*
X170280Y22728D01*
X166919Y21336D01*
X163281Y21336D01*
X159920Y22728D01*
X157348Y25300D01*
X156660Y26962D01*
X156491Y27213D01*
X156236Y27379D01*
X155938Y27432D01*
X155642Y27364D01*
X155396Y27187D01*
X155239Y26928D01*
X155194Y26670D01*
X155194Y16256D01*
X155254Y15959D01*
X155426Y15709D01*
X155681Y15545D01*
X155956Y15494D01*
X212344Y15494D01*
X212641Y15554D01*
X212891Y15726D01*
X213055Y15981D01*
X213106Y16256D01*
X213106Y21231D01*
X213046Y21528D01*
X212874Y21778D01*
X212636Y21935D01*
X210720Y22728D01*
X208148Y25300D01*
X206756Y28661D01*
X206756Y47539D01*
X208148Y50900D01*
X210720Y53472D01*
X214081Y54864D01*
X217719Y54864D01*
X221080Y53472D01*
X223652Y50900D01*
X225044Y47539D01*
X225044Y28661D01*
X223652Y25300D01*
X221080Y22728D01*
X219164Y21935D01*
X218913Y21765D01*
X218747Y21511D01*
X218694Y21231D01*
X218694Y11543D01*
X217057Y9906D01*
X151243Y9906D01*
G37*
G36*
X206140Y190326D02*
X206140Y199205D01*
X207687Y202939D01*
X210545Y205797D01*
X214279Y207344D01*
X215538Y207344D01*
X215538Y190326D01*
X206140Y190326D01*
G37*
G36*
X217062Y190326D02*
X217062Y207344D01*
X218321Y207344D01*
X222055Y205797D01*
X224913Y202939D01*
X226460Y199205D01*
X226460Y190326D01*
X217062Y190326D01*
G37*
G36*
X217062Y171784D02*
X217062Y188802D01*
X226460Y188802D01*
X226460Y179923D01*
X224913Y176189D01*
X222055Y173331D01*
X218321Y171784D01*
X217062Y171784D01*
G37*
G36*
X214279Y171784D02*
X210545Y173331D01*
X207687Y176189D01*
X206140Y179923D01*
X206140Y188802D01*
X215538Y188802D01*
X215538Y171784D01*
X214279Y171784D01*
G37*
G36*
X28614Y136941D02*
X28445Y136960D01*
X27406Y136960D01*
X26085Y137507D01*
X25963Y137546D01*
X24197Y137949D01*
X23393Y138590D01*
X23210Y138698D01*
X22613Y138945D01*
X21327Y140231D01*
X21264Y140288D01*
X19543Y141661D01*
X19269Y142229D01*
X19121Y142438D01*
X18945Y142613D01*
X18101Y144652D01*
X18083Y144691D01*
X16960Y147024D01*
X16960Y152976D01*
X18083Y155309D01*
X18101Y155348D01*
X18945Y157387D01*
X19121Y157563D01*
X19269Y157771D01*
X19543Y158339D01*
X21264Y159712D01*
X21327Y159769D01*
X22613Y161055D01*
X23210Y161302D01*
X23393Y161410D01*
X24197Y162051D01*
X25963Y162454D01*
X26085Y162493D01*
X27406Y163040D01*
X28445Y163040D01*
X28614Y163059D01*
X30000Y163375D01*
X31386Y163059D01*
X31555Y163040D01*
X32594Y163040D01*
X33915Y162493D01*
X34037Y162454D01*
X35803Y162051D01*
X36607Y161410D01*
X36790Y161302D01*
X37387Y161055D01*
X38673Y159769D01*
X38736Y159712D01*
X40457Y158339D01*
X40731Y157771D01*
X40879Y157563D01*
X41055Y157387D01*
X41899Y155348D01*
X41917Y155309D01*
X43040Y152976D01*
X43040Y147024D01*
X41917Y144691D01*
X41899Y144652D01*
X41055Y142613D01*
X40879Y142438D01*
X40731Y142229D01*
X40457Y141661D01*
X38736Y140288D01*
X38673Y140231D01*
X37387Y138945D01*
X36790Y138698D01*
X36607Y138590D01*
X35803Y137949D01*
X34037Y137546D01*
X33915Y137507D01*
X32594Y136960D01*
X31555Y136960D01*
X31386Y136941D01*
X30000Y136625D01*
X28614Y136941D01*
G37*
G36*
X298662Y145062D02*
X298662Y151840D01*
X302452Y151840D01*
X303940Y150352D01*
X303940Y145062D01*
X298662Y145062D01*
G37*
G36*
X291860Y145062D02*
X291860Y150352D01*
X293348Y151840D01*
X297138Y151840D01*
X297138Y145062D01*
X291860Y145062D01*
G37*
G36*
X190260Y145062D02*
X190260Y150352D01*
X191748Y151840D01*
X195538Y151840D01*
X195538Y145062D01*
X190260Y145062D01*
G37*
G36*
X88660Y145062D02*
X88660Y150352D01*
X90148Y151840D01*
X93938Y151840D01*
X93938Y145062D01*
X88660Y145062D01*
G37*
G36*
X95462Y145062D02*
X95462Y151840D01*
X99252Y151840D01*
X100740Y150352D01*
X100740Y145062D01*
X95462Y145062D01*
G37*
G36*
X197062Y145062D02*
X197062Y151840D01*
X200852Y151840D01*
X202340Y150352D01*
X202340Y145062D01*
X197062Y145062D01*
G37*
G36*
X188681Y21336D02*
X185320Y22728D01*
X182748Y25300D01*
X181356Y28661D01*
X181356Y47539D01*
X182748Y50900D01*
X185320Y53472D01*
X187236Y54265D01*
X187487Y54435D01*
X187653Y54689D01*
X187706Y54969D01*
X187706Y64657D01*
X189343Y66294D01*
X213614Y66294D01*
X213911Y66354D01*
X214161Y66526D01*
X214325Y66781D01*
X214376Y67056D01*
X214376Y85457D01*
X216013Y87094D01*
X255114Y87094D01*
X255411Y87154D01*
X255661Y87326D01*
X255825Y87581D01*
X255876Y87856D01*
X255876Y89931D01*
X256769Y90824D01*
X257344Y90824D01*
X257641Y90884D01*
X257891Y91056D01*
X258055Y91311D01*
X258106Y91586D01*
X258106Y137014D01*
X258046Y137311D01*
X257874Y137561D01*
X257619Y137725D01*
X257344Y137776D01*
X256769Y137776D01*
X255876Y138669D01*
X255876Y149931D01*
X256769Y150824D01*
X265031Y150824D01*
X265924Y149931D01*
X265924Y138669D01*
X265031Y137776D01*
X264456Y137776D01*
X264159Y137716D01*
X263909Y137544D01*
X263745Y137289D01*
X263694Y137014D01*
X263694Y91586D01*
X263754Y91289D01*
X263926Y91039D01*
X264181Y90875D01*
X264456Y90824D01*
X265031Y90824D01*
X265924Y89931D01*
X265924Y78669D01*
X265031Y77776D01*
X256769Y77776D01*
X255876Y78669D01*
X255876Y80744D01*
X255816Y81041D01*
X255644Y81291D01*
X255389Y81455D01*
X255114Y81506D01*
X220726Y81506D01*
X220429Y81446D01*
X220179Y81274D01*
X220015Y81019D01*
X219964Y80744D01*
X219964Y62343D01*
X218327Y60706D01*
X194056Y60706D01*
X193759Y60646D01*
X193509Y60474D01*
X193345Y60219D01*
X193294Y59944D01*
X193294Y54969D01*
X193354Y54672D01*
X193526Y54422D01*
X193764Y54265D01*
X195680Y53472D01*
X198252Y50900D01*
X199644Y47539D01*
X199644Y28661D01*
X198252Y25300D01*
X195680Y22728D01*
X192319Y21336D01*
X188681Y21336D01*
G37*
G36*
X55163Y58702D02*
X52352Y61513D01*
X52352Y65487D01*
X54133Y67268D01*
X54300Y67521D01*
X54356Y67807D01*
X54356Y77014D01*
X54296Y77311D01*
X54124Y77561D01*
X53869Y77725D01*
X53594Y77776D01*
X53569Y77776D01*
X52676Y78669D01*
X52676Y89931D01*
X53569Y90824D01*
X54144Y90824D01*
X54441Y90884D01*
X54691Y91056D01*
X54855Y91311D01*
X54906Y91586D01*
X54906Y137014D01*
X54846Y137311D01*
X54674Y137561D01*
X54419Y137725D01*
X54144Y137776D01*
X53569Y137776D01*
X52676Y138669D01*
X52676Y149931D01*
X53569Y150824D01*
X61831Y150824D01*
X62724Y149931D01*
X62724Y138669D01*
X61831Y137776D01*
X61256Y137776D01*
X60959Y137716D01*
X60709Y137544D01*
X60545Y137289D01*
X60494Y137014D01*
X60494Y91586D01*
X60554Y91289D01*
X60726Y91039D01*
X60981Y90875D01*
X61256Y90824D01*
X61831Y90824D01*
X62724Y89931D01*
X62724Y78669D01*
X61831Y77776D01*
X60706Y77776D01*
X60409Y77716D01*
X60159Y77544D01*
X59995Y77289D01*
X59944Y77014D01*
X59944Y67807D01*
X60004Y67510D01*
X60167Y67268D01*
X61948Y65487D01*
X61948Y61513D01*
X59137Y58702D01*
X55163Y58702D01*
G37*
G36*
X197062Y136760D02*
X197062Y143538D01*
X202340Y143538D01*
X202340Y138248D01*
X200852Y136760D01*
X197062Y136760D01*
G37*
G36*
X191748Y136760D02*
X190260Y138248D01*
X190260Y143538D01*
X195538Y143538D01*
X195538Y136760D01*
X191748Y136760D01*
G37*
G36*
X95462Y136760D02*
X95462Y143538D01*
X100740Y143538D01*
X100740Y138248D01*
X99252Y136760D01*
X95462Y136760D01*
G37*
G36*
X90148Y136760D02*
X88660Y138248D01*
X88660Y143538D01*
X93938Y143538D01*
X93938Y136760D01*
X90148Y136760D01*
G37*
G36*
X298662Y136760D02*
X298662Y143538D01*
X303940Y143538D01*
X303940Y138248D01*
X302452Y136760D01*
X298662Y136760D01*
G37*
G36*
X293348Y136760D02*
X291860Y138248D01*
X291860Y143538D01*
X297138Y143538D01*
X297138Y136760D01*
X293348Y136760D01*
G37*
G36*
X190260Y85062D02*
X190260Y90352D01*
X191748Y91840D01*
X195538Y91840D01*
X195538Y85062D01*
X190260Y85062D01*
G37*
G36*
X88660Y85062D02*
X88660Y90352D01*
X90148Y91840D01*
X93938Y91840D01*
X93938Y85062D01*
X88660Y85062D01*
G37*
G36*
X291860Y85062D02*
X291860Y90352D01*
X293348Y91840D01*
X297138Y91840D01*
X297138Y85062D01*
X291860Y85062D01*
G37*
G36*
X298662Y85062D02*
X298662Y91840D01*
X302452Y91840D01*
X303940Y90352D01*
X303940Y85062D01*
X298662Y85062D01*
G37*
G36*
X95462Y85062D02*
X95462Y91840D01*
X99252Y91840D01*
X100740Y90352D01*
X100740Y85062D01*
X95462Y85062D01*
G37*
G36*
X197062Y85062D02*
X197062Y91840D01*
X200852Y91840D01*
X202340Y90352D01*
X202340Y85062D01*
X197062Y85062D01*
G37*
G36*
X298662Y76760D02*
X298662Y83538D01*
X303940Y83538D01*
X303940Y78248D01*
X302452Y76760D01*
X298662Y76760D01*
G37*
G36*
X293348Y76760D02*
X291860Y78248D01*
X291860Y83538D01*
X297138Y83538D01*
X297138Y76760D01*
X293348Y76760D01*
G37*
G36*
X197062Y76760D02*
X197062Y83538D01*
X202340Y83538D01*
X202340Y78248D01*
X200852Y76760D01*
X197062Y76760D01*
G37*
G36*
X191748Y76760D02*
X190260Y78248D01*
X190260Y83538D01*
X195538Y83538D01*
X195538Y76760D01*
X191748Y76760D01*
G37*
G36*
X95462Y76760D02*
X95462Y83538D01*
X100740Y83538D01*
X100740Y78248D01*
X99252Y76760D01*
X95462Y76760D01*
G37*
G36*
X90148Y76760D02*
X88660Y78248D01*
X88660Y83538D01*
X93938Y83538D01*
X93938Y76760D01*
X90148Y76760D01*
G37*
G36*
X239481Y21336D02*
X236120Y22728D01*
X233548Y25300D01*
X232156Y28661D01*
X232156Y47539D01*
X233548Y50900D01*
X236120Y53472D01*
X238036Y54265D01*
X238287Y54435D01*
X238453Y54689D01*
X238506Y54969D01*
X238506Y59193D01*
X238446Y59490D01*
X238283Y59732D01*
X236502Y61513D01*
X236502Y65487D01*
X239313Y68298D01*
X243287Y68298D01*
X246098Y65487D01*
X246098Y61513D01*
X244317Y59732D01*
X244150Y59479D01*
X244094Y59193D01*
X244094Y54969D01*
X244154Y54672D01*
X244326Y54422D01*
X244564Y54265D01*
X246480Y53472D01*
X249052Y50900D01*
X250444Y47539D01*
X250444Y28661D01*
X249052Y25300D01*
X246480Y22728D01*
X243119Y21336D01*
X239481Y21336D01*
G37*
G36*
X78740Y38862D02*
X78740Y47741D01*
X80287Y51475D01*
X83145Y54333D01*
X86879Y55880D01*
X88138Y55880D01*
X88138Y38862D01*
X78740Y38862D01*
G37*
G36*
X89662Y38862D02*
X89662Y55880D01*
X90921Y55880D01*
X94655Y54333D01*
X97513Y51475D01*
X99060Y47741D01*
X99060Y38862D01*
X89662Y38862D01*
G37*
G36*
X28614Y16941D02*
X28445Y16960D01*
X27406Y16960D01*
X26085Y17507D01*
X25963Y17546D01*
X24197Y17949D01*
X23393Y18590D01*
X23210Y18698D01*
X22613Y18945D01*
X21327Y20231D01*
X21264Y20288D01*
X19543Y21661D01*
X19269Y22229D01*
X19121Y22438D01*
X18945Y22613D01*
X18101Y24652D01*
X18083Y24691D01*
X16960Y27024D01*
X16960Y32976D01*
X18083Y35309D01*
X18101Y35348D01*
X18945Y37387D01*
X19121Y37563D01*
X19269Y37771D01*
X19543Y38339D01*
X21264Y39712D01*
X21327Y39769D01*
X22613Y41055D01*
X23210Y41302D01*
X23393Y41410D01*
X24197Y42051D01*
X25963Y42454D01*
X26085Y42493D01*
X27406Y43040D01*
X28445Y43040D01*
X28614Y43059D01*
X30000Y43375D01*
X31386Y43059D01*
X31555Y43040D01*
X32594Y43040D01*
X33915Y42493D01*
X34037Y42454D01*
X35803Y42051D01*
X36607Y41410D01*
X36790Y41302D01*
X37387Y41055D01*
X38673Y39769D01*
X38736Y39712D01*
X40457Y38339D01*
X40731Y37771D01*
X40879Y37563D01*
X41055Y37387D01*
X41899Y35348D01*
X41917Y35309D01*
X43040Y32976D01*
X43040Y27024D01*
X41917Y24691D01*
X41899Y24652D01*
X41055Y22613D01*
X40879Y22438D01*
X40731Y22229D01*
X40457Y21661D01*
X38736Y20288D01*
X38673Y20231D01*
X37387Y18945D01*
X36790Y18698D01*
X36607Y18590D01*
X35803Y17949D01*
X34037Y17546D01*
X33915Y17507D01*
X32594Y16960D01*
X31555Y16960D01*
X31386Y16941D01*
X30000Y16625D01*
X28614Y16941D01*
G37*
G36*
X308614Y16941D02*
X308445Y16960D01*
X307406Y16960D01*
X306085Y17507D01*
X305963Y17546D01*
X304197Y17949D01*
X303393Y18590D01*
X303210Y18698D01*
X302613Y18945D01*
X301327Y20231D01*
X301264Y20288D01*
X299543Y21661D01*
X299269Y22229D01*
X299121Y22438D01*
X298945Y22613D01*
X298101Y24652D01*
X298083Y24691D01*
X296960Y27024D01*
X296960Y32976D01*
X298083Y35309D01*
X298101Y35348D01*
X298945Y37387D01*
X299121Y37563D01*
X299269Y37771D01*
X299543Y38339D01*
X301264Y39712D01*
X301327Y39769D01*
X302613Y41055D01*
X303210Y41302D01*
X303393Y41410D01*
X304197Y42051D01*
X305963Y42454D01*
X306085Y42493D01*
X307406Y43040D01*
X308445Y43040D01*
X308614Y43059D01*
X310000Y43375D01*
X311386Y43059D01*
X311555Y43040D01*
X312594Y43040D01*
X313915Y42493D01*
X314037Y42454D01*
X315803Y42051D01*
X316607Y41410D01*
X316790Y41302D01*
X317387Y41055D01*
X318673Y39769D01*
X318736Y39712D01*
X320457Y38339D01*
X320731Y37771D01*
X320879Y37563D01*
X321055Y37387D01*
X321899Y35348D01*
X321917Y35309D01*
X323040Y32976D01*
X323040Y27024D01*
X321917Y24691D01*
X321899Y24652D01*
X321055Y22613D01*
X320879Y22438D01*
X320731Y22229D01*
X320457Y21661D01*
X318736Y20288D01*
X318673Y20231D01*
X317387Y18945D01*
X316790Y18698D01*
X316607Y18590D01*
X315803Y17949D01*
X314037Y17546D01*
X313915Y17507D01*
X312594Y16960D01*
X311555Y16960D01*
X311386Y16941D01*
X310000Y16625D01*
X308614Y16941D01*
G37*
G36*
X89662Y20320D02*
X89662Y37338D01*
X99060Y37338D01*
X99060Y28459D01*
X97513Y24725D01*
X94655Y21867D01*
X90921Y20320D01*
X89662Y20320D01*
G37*
G36*
X86879Y20320D02*
X83145Y21867D01*
X80287Y24725D01*
X78740Y28459D01*
X78740Y37338D01*
X88138Y37338D01*
X88138Y20320D01*
X86879Y20320D01*
G37*
%LPD*%
D10*
X216300Y197184D02*
X216300Y181944D01*
X190900Y181944D02*
X190900Y197184D01*
X165500Y197184D02*
X165500Y181944D01*
X140100Y181944D02*
X140100Y197184D01*
X241300Y45720D02*
X241300Y30480D01*
X215900Y30480D02*
X215900Y45720D01*
X190500Y45720D02*
X190500Y30480D01*
X165100Y30480D02*
X165100Y45720D01*
X139700Y45720D02*
X139700Y30480D01*
X114300Y30480D02*
X114300Y45720D01*
X88900Y45720D02*
X88900Y30480D01*
D11*
X260900Y84300D03*
X260900Y144300D03*
X297900Y84300D03*
X297900Y144300D03*
X159300Y84300D03*
X159300Y144300D03*
X196300Y84300D03*
X196300Y144300D03*
X57700Y84300D03*
X57700Y144300D03*
X94700Y84300D03*
X94700Y144300D03*
D12*
X114300Y170000D02*
X114300Y38100D01*
X114300Y170000D02*
X114300Y175100D01*
X114300Y220000D01*
X190900Y220000D01*
X190900Y189564D01*
X165500Y189564D02*
X165500Y210000D01*
X123000Y210000D01*
X123000Y71000D01*
X139700Y71000D01*
X139700Y38100D01*
X165100Y38100D02*
X165100Y63500D01*
X177800Y63500D02*
X177800Y110000D01*
X177800Y114300D01*
X177800Y63500D02*
X165100Y63500D01*
X177800Y114300D02*
X177800Y160000D01*
X140000Y160000D01*
X140000Y189564D01*
X140100Y189564D01*
X190500Y63500D02*
X190500Y38100D01*
X190500Y63500D02*
X217170Y63500D01*
X217170Y84300D01*
X260900Y84300D01*
X260900Y144300D01*
X159300Y84300D02*
X152400Y84300D01*
X152400Y12700D01*
X215900Y12700D01*
X215900Y38100D01*
X159300Y84300D02*
X159300Y144300D01*
X241300Y63500D02*
X241300Y38100D01*
D13*
X241300Y63500D03*
X57150Y63500D03*
D12*
X57150Y84300D01*
X57700Y84300D01*
X57700Y144300D01*
M02*
