G04 EAGLE Gerber RS-274X export*
G75*
%MOMM*%
%FSLAX34Y34*%
%LPD*%
%INMechanical*%
%IPPOS*%
%AMOC8*
5,1,8,0,0,1.08239X$1,22.5*%
G01*
G04 Define Apertures*
%ADD10C,0.000000*%
D10*
X0Y218000D02*
X0Y20000D01*
X6Y19517D01*
X23Y19034D01*
X53Y18551D01*
X93Y18070D01*
X146Y17589D01*
X210Y17110D01*
X285Y16633D01*
X373Y16157D01*
X471Y15684D01*
X581Y15214D01*
X702Y14746D01*
X835Y14281D01*
X979Y13820D01*
X1134Y13362D01*
X1300Y12908D01*
X1477Y12458D01*
X1664Y12013D01*
X1863Y11572D01*
X2071Y11136D01*
X2291Y10706D01*
X2521Y10280D01*
X2761Y9861D01*
X3011Y9447D01*
X3271Y9040D01*
X3540Y8639D01*
X3820Y8244D01*
X4108Y7857D01*
X4407Y7476D01*
X4714Y7103D01*
X5030Y6738D01*
X5355Y6380D01*
X5688Y6030D01*
X6030Y5688D01*
X6380Y5355D01*
X6738Y5030D01*
X7103Y4714D01*
X7476Y4407D01*
X7857Y4108D01*
X8244Y3820D01*
X8639Y3540D01*
X9040Y3271D01*
X9447Y3011D01*
X9861Y2761D01*
X10280Y2521D01*
X10706Y2291D01*
X11136Y2071D01*
X11572Y1863D01*
X12013Y1664D01*
X12458Y1477D01*
X12908Y1300D01*
X13362Y1134D01*
X13820Y979D01*
X14281Y835D01*
X14746Y702D01*
X15214Y581D01*
X15684Y471D01*
X16157Y373D01*
X16633Y285D01*
X17110Y210D01*
X17589Y146D01*
X18070Y93D01*
X18551Y53D01*
X19034Y23D01*
X19517Y6D01*
X20000Y0D01*
X322700Y0D01*
X323183Y6D01*
X323666Y23D01*
X324149Y53D01*
X324630Y93D01*
X325111Y146D01*
X325590Y210D01*
X326067Y285D01*
X326543Y373D01*
X327016Y471D01*
X327486Y581D01*
X327954Y702D01*
X328419Y835D01*
X328880Y979D01*
X329338Y1134D01*
X329792Y1300D01*
X330242Y1477D01*
X330687Y1664D01*
X331128Y1863D01*
X331564Y2071D01*
X331994Y2291D01*
X332420Y2521D01*
X332839Y2761D01*
X333253Y3011D01*
X333660Y3271D01*
X334061Y3540D01*
X334456Y3820D01*
X334843Y4108D01*
X335224Y4407D01*
X335597Y4714D01*
X335962Y5030D01*
X336320Y5355D01*
X336670Y5688D01*
X337012Y6030D01*
X337345Y6380D01*
X337670Y6738D01*
X337986Y7103D01*
X338293Y7476D01*
X338592Y7857D01*
X338880Y8244D01*
X339160Y8639D01*
X339429Y9040D01*
X339689Y9447D01*
X339939Y9861D01*
X340179Y10280D01*
X340409Y10706D01*
X340629Y11136D01*
X340837Y11572D01*
X341036Y12013D01*
X341223Y12458D01*
X341400Y12908D01*
X341566Y13362D01*
X341721Y13820D01*
X341865Y14281D01*
X341998Y14746D01*
X342119Y15214D01*
X342229Y15684D01*
X342327Y16157D01*
X342415Y16633D01*
X342490Y17110D01*
X342554Y17589D01*
X342607Y18070D01*
X342647Y18551D01*
X342677Y19034D01*
X342694Y19517D01*
X342700Y20000D01*
X342700Y218000D01*
X342694Y218483D01*
X342677Y218966D01*
X342647Y219449D01*
X342607Y219930D01*
X342554Y220411D01*
X342490Y220890D01*
X342415Y221367D01*
X342327Y221843D01*
X342229Y222316D01*
X342119Y222786D01*
X341998Y223254D01*
X341865Y223719D01*
X341721Y224180D01*
X341566Y224638D01*
X341400Y225092D01*
X341223Y225542D01*
X341036Y225987D01*
X340837Y226428D01*
X340629Y226864D01*
X340409Y227294D01*
X340179Y227720D01*
X339939Y228139D01*
X339689Y228553D01*
X339429Y228960D01*
X339160Y229361D01*
X338880Y229756D01*
X338592Y230143D01*
X338293Y230524D01*
X337986Y230897D01*
X337670Y231262D01*
X337345Y231620D01*
X337012Y231970D01*
X336670Y232312D01*
X336320Y232645D01*
X335962Y232970D01*
X335597Y233286D01*
X335224Y233593D01*
X334843Y233892D01*
X334456Y234180D01*
X334061Y234460D01*
X333660Y234729D01*
X333253Y234989D01*
X332839Y235239D01*
X332420Y235479D01*
X331994Y235709D01*
X331564Y235929D01*
X331128Y236137D01*
X330687Y236336D01*
X330242Y236523D01*
X329792Y236700D01*
X329338Y236866D01*
X328880Y237021D01*
X328419Y237165D01*
X327954Y237298D01*
X327486Y237419D01*
X327016Y237529D01*
X326543Y237627D01*
X326067Y237715D01*
X325590Y237790D01*
X325111Y237854D01*
X324630Y237907D01*
X324149Y237947D01*
X323666Y237977D01*
X323183Y237994D01*
X322700Y238000D01*
X20000Y238000D01*
X19517Y237994D01*
X19034Y237977D01*
X18551Y237947D01*
X18070Y237907D01*
X17589Y237854D01*
X17110Y237790D01*
X16633Y237715D01*
X16157Y237627D01*
X15684Y237529D01*
X15214Y237419D01*
X14746Y237298D01*
X14281Y237165D01*
X13820Y237021D01*
X13362Y236866D01*
X12908Y236700D01*
X12458Y236523D01*
X12013Y236336D01*
X11572Y236137D01*
X11136Y235929D01*
X10706Y235709D01*
X10280Y235479D01*
X9861Y235239D01*
X9447Y234989D01*
X9040Y234729D01*
X8639Y234460D01*
X8244Y234180D01*
X7857Y233892D01*
X7476Y233593D01*
X7103Y233286D01*
X6738Y232970D01*
X6380Y232645D01*
X6030Y232312D01*
X5688Y231970D01*
X5355Y231620D01*
X5030Y231262D01*
X4714Y230897D01*
X4407Y230524D01*
X4108Y230143D01*
X3820Y229756D01*
X3540Y229361D01*
X3271Y228960D01*
X3011Y228553D01*
X2761Y228139D01*
X2521Y227720D01*
X2291Y227294D01*
X2071Y226864D01*
X1863Y226428D01*
X1664Y225987D01*
X1477Y225542D01*
X1300Y225092D01*
X1134Y224638D01*
X979Y224180D01*
X835Y223719D01*
X702Y223254D01*
X581Y222786D01*
X471Y222316D01*
X373Y221843D01*
X285Y221367D01*
X210Y220890D01*
X146Y220411D01*
X93Y219930D01*
X53Y219449D01*
X23Y218966D01*
X6Y218483D01*
X0Y218000D01*
X19500Y30000D02*
X19503Y30258D01*
X19513Y30515D01*
X19528Y30772D01*
X19551Y31029D01*
X19579Y31285D01*
X19614Y31541D01*
X19655Y31795D01*
X19702Y32048D01*
X19755Y32301D01*
X19815Y32551D01*
X19880Y32800D01*
X19952Y33048D01*
X20030Y33294D01*
X20114Y33537D01*
X20204Y33779D01*
X20299Y34018D01*
X20401Y34255D01*
X20508Y34489D01*
X20621Y34721D01*
X20740Y34950D01*
X20864Y35175D01*
X20994Y35398D01*
X21129Y35617D01*
X21270Y35833D01*
X21415Y36046D01*
X21566Y36255D01*
X21722Y36460D01*
X21883Y36661D01*
X22049Y36858D01*
X22220Y37051D01*
X22395Y37240D01*
X22575Y37425D01*
X22760Y37605D01*
X22949Y37780D01*
X23142Y37951D01*
X23339Y38117D01*
X23540Y38278D01*
X23745Y38434D01*
X23954Y38585D01*
X24167Y38730D01*
X24383Y38871D01*
X24602Y39006D01*
X24825Y39136D01*
X25050Y39260D01*
X25279Y39379D01*
X25511Y39492D01*
X25745Y39599D01*
X25982Y39701D01*
X26221Y39796D01*
X26463Y39886D01*
X26706Y39970D01*
X26952Y40048D01*
X27200Y40120D01*
X27449Y40185D01*
X27699Y40245D01*
X27952Y40298D01*
X28205Y40345D01*
X28459Y40386D01*
X28715Y40421D01*
X28971Y40449D01*
X29228Y40472D01*
X29485Y40487D01*
X29742Y40497D01*
X30000Y40500D01*
X30258Y40497D01*
X30515Y40487D01*
X30772Y40472D01*
X31029Y40449D01*
X31285Y40421D01*
X31541Y40386D01*
X31795Y40345D01*
X32048Y40298D01*
X32301Y40245D01*
X32551Y40185D01*
X32800Y40120D01*
X33048Y40048D01*
X33294Y39970D01*
X33537Y39886D01*
X33779Y39796D01*
X34018Y39701D01*
X34255Y39599D01*
X34489Y39492D01*
X34721Y39379D01*
X34950Y39260D01*
X35175Y39136D01*
X35398Y39006D01*
X35617Y38871D01*
X35833Y38730D01*
X36046Y38585D01*
X36255Y38434D01*
X36460Y38278D01*
X36661Y38117D01*
X36858Y37951D01*
X37051Y37780D01*
X37240Y37605D01*
X37425Y37425D01*
X37605Y37240D01*
X37780Y37051D01*
X37951Y36858D01*
X38117Y36661D01*
X38278Y36460D01*
X38434Y36255D01*
X38585Y36046D01*
X38730Y35833D01*
X38871Y35617D01*
X39006Y35398D01*
X39136Y35175D01*
X39260Y34950D01*
X39379Y34721D01*
X39492Y34489D01*
X39599Y34255D01*
X39701Y34018D01*
X39796Y33779D01*
X39886Y33537D01*
X39970Y33294D01*
X40048Y33048D01*
X40120Y32800D01*
X40185Y32551D01*
X40245Y32301D01*
X40298Y32048D01*
X40345Y31795D01*
X40386Y31541D01*
X40421Y31285D01*
X40449Y31029D01*
X40472Y30772D01*
X40487Y30515D01*
X40497Y30258D01*
X40500Y30000D01*
X40497Y29742D01*
X40487Y29485D01*
X40472Y29228D01*
X40449Y28971D01*
X40421Y28715D01*
X40386Y28459D01*
X40345Y28205D01*
X40298Y27952D01*
X40245Y27699D01*
X40185Y27449D01*
X40120Y27200D01*
X40048Y26952D01*
X39970Y26706D01*
X39886Y26463D01*
X39796Y26221D01*
X39701Y25982D01*
X39599Y25745D01*
X39492Y25511D01*
X39379Y25279D01*
X39260Y25050D01*
X39136Y24825D01*
X39006Y24602D01*
X38871Y24383D01*
X38730Y24167D01*
X38585Y23954D01*
X38434Y23745D01*
X38278Y23540D01*
X38117Y23339D01*
X37951Y23142D01*
X37780Y22949D01*
X37605Y22760D01*
X37425Y22575D01*
X37240Y22395D01*
X37051Y22220D01*
X36858Y22049D01*
X36661Y21883D01*
X36460Y21722D01*
X36255Y21566D01*
X36046Y21415D01*
X35833Y21270D01*
X35617Y21129D01*
X35398Y20994D01*
X35175Y20864D01*
X34950Y20740D01*
X34721Y20621D01*
X34489Y20508D01*
X34255Y20401D01*
X34018Y20299D01*
X33779Y20204D01*
X33537Y20114D01*
X33294Y20030D01*
X33048Y19952D01*
X32800Y19880D01*
X32551Y19815D01*
X32301Y19755D01*
X32048Y19702D01*
X31795Y19655D01*
X31541Y19614D01*
X31285Y19579D01*
X31029Y19551D01*
X30772Y19528D01*
X30515Y19513D01*
X30258Y19503D01*
X30000Y19500D01*
X29742Y19503D01*
X29485Y19513D01*
X29228Y19528D01*
X28971Y19551D01*
X28715Y19579D01*
X28459Y19614D01*
X28205Y19655D01*
X27952Y19702D01*
X27699Y19755D01*
X27449Y19815D01*
X27200Y19880D01*
X26952Y19952D01*
X26706Y20030D01*
X26463Y20114D01*
X26221Y20204D01*
X25982Y20299D01*
X25745Y20401D01*
X25511Y20508D01*
X25279Y20621D01*
X25050Y20740D01*
X24825Y20864D01*
X24602Y20994D01*
X24383Y21129D01*
X24167Y21270D01*
X23954Y21415D01*
X23745Y21566D01*
X23540Y21722D01*
X23339Y21883D01*
X23142Y22049D01*
X22949Y22220D01*
X22760Y22395D01*
X22575Y22575D01*
X22395Y22760D01*
X22220Y22949D01*
X22049Y23142D01*
X21883Y23339D01*
X21722Y23540D01*
X21566Y23745D01*
X21415Y23954D01*
X21270Y24167D01*
X21129Y24383D01*
X20994Y24602D01*
X20864Y24825D01*
X20740Y25050D01*
X20621Y25279D01*
X20508Y25511D01*
X20401Y25745D01*
X20299Y25982D01*
X20204Y26221D01*
X20114Y26463D01*
X20030Y26706D01*
X19952Y26952D01*
X19880Y27200D01*
X19815Y27449D01*
X19755Y27699D01*
X19702Y27952D01*
X19655Y28205D01*
X19614Y28459D01*
X19579Y28715D01*
X19551Y28971D01*
X19528Y29228D01*
X19513Y29485D01*
X19503Y29742D01*
X19500Y30000D01*
X299500Y30000D02*
X299503Y30258D01*
X299513Y30515D01*
X299528Y30772D01*
X299551Y31029D01*
X299579Y31285D01*
X299614Y31541D01*
X299655Y31795D01*
X299702Y32048D01*
X299755Y32301D01*
X299815Y32551D01*
X299880Y32800D01*
X299952Y33048D01*
X300030Y33294D01*
X300114Y33537D01*
X300204Y33779D01*
X300299Y34018D01*
X300401Y34255D01*
X300508Y34489D01*
X300621Y34721D01*
X300740Y34950D01*
X300864Y35175D01*
X300994Y35398D01*
X301129Y35617D01*
X301270Y35833D01*
X301415Y36046D01*
X301566Y36255D01*
X301722Y36460D01*
X301883Y36661D01*
X302049Y36858D01*
X302220Y37051D01*
X302395Y37240D01*
X302575Y37425D01*
X302760Y37605D01*
X302949Y37780D01*
X303142Y37951D01*
X303339Y38117D01*
X303540Y38278D01*
X303745Y38434D01*
X303954Y38585D01*
X304167Y38730D01*
X304383Y38871D01*
X304602Y39006D01*
X304825Y39136D01*
X305050Y39260D01*
X305279Y39379D01*
X305511Y39492D01*
X305745Y39599D01*
X305982Y39701D01*
X306221Y39796D01*
X306463Y39886D01*
X306706Y39970D01*
X306952Y40048D01*
X307200Y40120D01*
X307449Y40185D01*
X307699Y40245D01*
X307952Y40298D01*
X308205Y40345D01*
X308459Y40386D01*
X308715Y40421D01*
X308971Y40449D01*
X309228Y40472D01*
X309485Y40487D01*
X309742Y40497D01*
X310000Y40500D01*
X310258Y40497D01*
X310515Y40487D01*
X310772Y40472D01*
X311029Y40449D01*
X311285Y40421D01*
X311541Y40386D01*
X311795Y40345D01*
X312048Y40298D01*
X312301Y40245D01*
X312551Y40185D01*
X312800Y40120D01*
X313048Y40048D01*
X313294Y39970D01*
X313537Y39886D01*
X313779Y39796D01*
X314018Y39701D01*
X314255Y39599D01*
X314489Y39492D01*
X314721Y39379D01*
X314950Y39260D01*
X315175Y39136D01*
X315398Y39006D01*
X315617Y38871D01*
X315833Y38730D01*
X316046Y38585D01*
X316255Y38434D01*
X316460Y38278D01*
X316661Y38117D01*
X316858Y37951D01*
X317051Y37780D01*
X317240Y37605D01*
X317425Y37425D01*
X317605Y37240D01*
X317780Y37051D01*
X317951Y36858D01*
X318117Y36661D01*
X318278Y36460D01*
X318434Y36255D01*
X318585Y36046D01*
X318730Y35833D01*
X318871Y35617D01*
X319006Y35398D01*
X319136Y35175D01*
X319260Y34950D01*
X319379Y34721D01*
X319492Y34489D01*
X319599Y34255D01*
X319701Y34018D01*
X319796Y33779D01*
X319886Y33537D01*
X319970Y33294D01*
X320048Y33048D01*
X320120Y32800D01*
X320185Y32551D01*
X320245Y32301D01*
X320298Y32048D01*
X320345Y31795D01*
X320386Y31541D01*
X320421Y31285D01*
X320449Y31029D01*
X320472Y30772D01*
X320487Y30515D01*
X320497Y30258D01*
X320500Y30000D01*
X320497Y29742D01*
X320487Y29485D01*
X320472Y29228D01*
X320449Y28971D01*
X320421Y28715D01*
X320386Y28459D01*
X320345Y28205D01*
X320298Y27952D01*
X320245Y27699D01*
X320185Y27449D01*
X320120Y27200D01*
X320048Y26952D01*
X319970Y26706D01*
X319886Y26463D01*
X319796Y26221D01*
X319701Y25982D01*
X319599Y25745D01*
X319492Y25511D01*
X319379Y25279D01*
X319260Y25050D01*
X319136Y24825D01*
X319006Y24602D01*
X318871Y24383D01*
X318730Y24167D01*
X318585Y23954D01*
X318434Y23745D01*
X318278Y23540D01*
X318117Y23339D01*
X317951Y23142D01*
X317780Y22949D01*
X317605Y22760D01*
X317425Y22575D01*
X317240Y22395D01*
X317051Y22220D01*
X316858Y22049D01*
X316661Y21883D01*
X316460Y21722D01*
X316255Y21566D01*
X316046Y21415D01*
X315833Y21270D01*
X315617Y21129D01*
X315398Y20994D01*
X315175Y20864D01*
X314950Y20740D01*
X314721Y20621D01*
X314489Y20508D01*
X314255Y20401D01*
X314018Y20299D01*
X313779Y20204D01*
X313537Y20114D01*
X313294Y20030D01*
X313048Y19952D01*
X312800Y19880D01*
X312551Y19815D01*
X312301Y19755D01*
X312048Y19702D01*
X311795Y19655D01*
X311541Y19614D01*
X311285Y19579D01*
X311029Y19551D01*
X310772Y19528D01*
X310515Y19513D01*
X310258Y19503D01*
X310000Y19500D01*
X309742Y19503D01*
X309485Y19513D01*
X309228Y19528D01*
X308971Y19551D01*
X308715Y19579D01*
X308459Y19614D01*
X308205Y19655D01*
X307952Y19702D01*
X307699Y19755D01*
X307449Y19815D01*
X307200Y19880D01*
X306952Y19952D01*
X306706Y20030D01*
X306463Y20114D01*
X306221Y20204D01*
X305982Y20299D01*
X305745Y20401D01*
X305511Y20508D01*
X305279Y20621D01*
X305050Y20740D01*
X304825Y20864D01*
X304602Y20994D01*
X304383Y21129D01*
X304167Y21270D01*
X303954Y21415D01*
X303745Y21566D01*
X303540Y21722D01*
X303339Y21883D01*
X303142Y22049D01*
X302949Y22220D01*
X302760Y22395D01*
X302575Y22575D01*
X302395Y22760D01*
X302220Y22949D01*
X302049Y23142D01*
X301883Y23339D01*
X301722Y23540D01*
X301566Y23745D01*
X301415Y23954D01*
X301270Y24167D01*
X301129Y24383D01*
X300994Y24602D01*
X300864Y24825D01*
X300740Y25050D01*
X300621Y25279D01*
X300508Y25511D01*
X300401Y25745D01*
X300299Y25982D01*
X300204Y26221D01*
X300114Y26463D01*
X300030Y26706D01*
X299952Y26952D01*
X299880Y27200D01*
X299815Y27449D01*
X299755Y27699D01*
X299702Y27952D01*
X299655Y28205D01*
X299614Y28459D01*
X299579Y28715D01*
X299551Y28971D01*
X299528Y29228D01*
X299513Y29485D01*
X299503Y29742D01*
X299500Y30000D01*
X19500Y150000D02*
X19503Y150258D01*
X19513Y150515D01*
X19528Y150772D01*
X19551Y151029D01*
X19579Y151285D01*
X19614Y151541D01*
X19655Y151795D01*
X19702Y152048D01*
X19755Y152301D01*
X19815Y152551D01*
X19880Y152800D01*
X19952Y153048D01*
X20030Y153294D01*
X20114Y153537D01*
X20204Y153779D01*
X20299Y154018D01*
X20401Y154255D01*
X20508Y154489D01*
X20621Y154721D01*
X20740Y154950D01*
X20864Y155175D01*
X20994Y155398D01*
X21129Y155617D01*
X21270Y155833D01*
X21415Y156046D01*
X21566Y156255D01*
X21722Y156460D01*
X21883Y156661D01*
X22049Y156858D01*
X22220Y157051D01*
X22395Y157240D01*
X22575Y157425D01*
X22760Y157605D01*
X22949Y157780D01*
X23142Y157951D01*
X23339Y158117D01*
X23540Y158278D01*
X23745Y158434D01*
X23954Y158585D01*
X24167Y158730D01*
X24383Y158871D01*
X24602Y159006D01*
X24825Y159136D01*
X25050Y159260D01*
X25279Y159379D01*
X25511Y159492D01*
X25745Y159599D01*
X25982Y159701D01*
X26221Y159796D01*
X26463Y159886D01*
X26706Y159970D01*
X26952Y160048D01*
X27200Y160120D01*
X27449Y160185D01*
X27699Y160245D01*
X27952Y160298D01*
X28205Y160345D01*
X28459Y160386D01*
X28715Y160421D01*
X28971Y160449D01*
X29228Y160472D01*
X29485Y160487D01*
X29742Y160497D01*
X30000Y160500D01*
X30258Y160497D01*
X30515Y160487D01*
X30772Y160472D01*
X31029Y160449D01*
X31285Y160421D01*
X31541Y160386D01*
X31795Y160345D01*
X32048Y160298D01*
X32301Y160245D01*
X32551Y160185D01*
X32800Y160120D01*
X33048Y160048D01*
X33294Y159970D01*
X33537Y159886D01*
X33779Y159796D01*
X34018Y159701D01*
X34255Y159599D01*
X34489Y159492D01*
X34721Y159379D01*
X34950Y159260D01*
X35175Y159136D01*
X35398Y159006D01*
X35617Y158871D01*
X35833Y158730D01*
X36046Y158585D01*
X36255Y158434D01*
X36460Y158278D01*
X36661Y158117D01*
X36858Y157951D01*
X37051Y157780D01*
X37240Y157605D01*
X37425Y157425D01*
X37605Y157240D01*
X37780Y157051D01*
X37951Y156858D01*
X38117Y156661D01*
X38278Y156460D01*
X38434Y156255D01*
X38585Y156046D01*
X38730Y155833D01*
X38871Y155617D01*
X39006Y155398D01*
X39136Y155175D01*
X39260Y154950D01*
X39379Y154721D01*
X39492Y154489D01*
X39599Y154255D01*
X39701Y154018D01*
X39796Y153779D01*
X39886Y153537D01*
X39970Y153294D01*
X40048Y153048D01*
X40120Y152800D01*
X40185Y152551D01*
X40245Y152301D01*
X40298Y152048D01*
X40345Y151795D01*
X40386Y151541D01*
X40421Y151285D01*
X40449Y151029D01*
X40472Y150772D01*
X40487Y150515D01*
X40497Y150258D01*
X40500Y150000D01*
X40497Y149742D01*
X40487Y149485D01*
X40472Y149228D01*
X40449Y148971D01*
X40421Y148715D01*
X40386Y148459D01*
X40345Y148205D01*
X40298Y147952D01*
X40245Y147699D01*
X40185Y147449D01*
X40120Y147200D01*
X40048Y146952D01*
X39970Y146706D01*
X39886Y146463D01*
X39796Y146221D01*
X39701Y145982D01*
X39599Y145745D01*
X39492Y145511D01*
X39379Y145279D01*
X39260Y145050D01*
X39136Y144825D01*
X39006Y144602D01*
X38871Y144383D01*
X38730Y144167D01*
X38585Y143954D01*
X38434Y143745D01*
X38278Y143540D01*
X38117Y143339D01*
X37951Y143142D01*
X37780Y142949D01*
X37605Y142760D01*
X37425Y142575D01*
X37240Y142395D01*
X37051Y142220D01*
X36858Y142049D01*
X36661Y141883D01*
X36460Y141722D01*
X36255Y141566D01*
X36046Y141415D01*
X35833Y141270D01*
X35617Y141129D01*
X35398Y140994D01*
X35175Y140864D01*
X34950Y140740D01*
X34721Y140621D01*
X34489Y140508D01*
X34255Y140401D01*
X34018Y140299D01*
X33779Y140204D01*
X33537Y140114D01*
X33294Y140030D01*
X33048Y139952D01*
X32800Y139880D01*
X32551Y139815D01*
X32301Y139755D01*
X32048Y139702D01*
X31795Y139655D01*
X31541Y139614D01*
X31285Y139579D01*
X31029Y139551D01*
X30772Y139528D01*
X30515Y139513D01*
X30258Y139503D01*
X30000Y139500D01*
X29742Y139503D01*
X29485Y139513D01*
X29228Y139528D01*
X28971Y139551D01*
X28715Y139579D01*
X28459Y139614D01*
X28205Y139655D01*
X27952Y139702D01*
X27699Y139755D01*
X27449Y139815D01*
X27200Y139880D01*
X26952Y139952D01*
X26706Y140030D01*
X26463Y140114D01*
X26221Y140204D01*
X25982Y140299D01*
X25745Y140401D01*
X25511Y140508D01*
X25279Y140621D01*
X25050Y140740D01*
X24825Y140864D01*
X24602Y140994D01*
X24383Y141129D01*
X24167Y141270D01*
X23954Y141415D01*
X23745Y141566D01*
X23540Y141722D01*
X23339Y141883D01*
X23142Y142049D01*
X22949Y142220D01*
X22760Y142395D01*
X22575Y142575D01*
X22395Y142760D01*
X22220Y142949D01*
X22049Y143142D01*
X21883Y143339D01*
X21722Y143540D01*
X21566Y143745D01*
X21415Y143954D01*
X21270Y144167D01*
X21129Y144383D01*
X20994Y144602D01*
X20864Y144825D01*
X20740Y145050D01*
X20621Y145279D01*
X20508Y145511D01*
X20401Y145745D01*
X20299Y145982D01*
X20204Y146221D01*
X20114Y146463D01*
X20030Y146706D01*
X19952Y146952D01*
X19880Y147200D01*
X19815Y147449D01*
X19755Y147699D01*
X19702Y147952D01*
X19655Y148205D01*
X19614Y148459D01*
X19579Y148715D01*
X19551Y148971D01*
X19528Y149228D01*
X19513Y149485D01*
X19503Y149742D01*
X19500Y150000D01*
M02*
