G04 EAGLE Gerber RS-274X export*
G75*
%MOMM*%
%FSLAX34Y34*%
%LPD*%
%INMechanical*%
%IPPOS*%
%AMOC8*
5,1,8,0,0,1.08239X$1,22.5*%
G01*
G04 Define Apertures*
%ADD10C,0.152400*%
D10*
X181114Y28265D02*
X181117Y28535D01*
X181127Y28805D01*
X181144Y29074D01*
X181167Y29343D01*
X181197Y29612D01*
X181233Y29879D01*
X181276Y30146D01*
X181325Y30411D01*
X181381Y30675D01*
X181444Y30938D01*
X181512Y31199D01*
X181588Y31458D01*
X181669Y31715D01*
X181757Y31971D01*
X181851Y32224D01*
X181951Y32475D01*
X182058Y32723D01*
X182170Y32968D01*
X182289Y33211D01*
X182413Y33450D01*
X182543Y33687D01*
X182679Y33920D01*
X182821Y34150D01*
X182968Y34376D01*
X183121Y34599D01*
X183279Y34818D01*
X183442Y35033D01*
X183611Y35243D01*
X183785Y35450D01*
X183964Y35652D01*
X184147Y35850D01*
X184336Y36043D01*
X184529Y36232D01*
X184727Y36415D01*
X184929Y36594D01*
X185136Y36768D01*
X185346Y36937D01*
X185561Y37100D01*
X185780Y37258D01*
X186003Y37411D01*
X186229Y37558D01*
X186459Y37700D01*
X186692Y37836D01*
X186929Y37966D01*
X187168Y38090D01*
X187411Y38209D01*
X187656Y38321D01*
X187904Y38428D01*
X188155Y38528D01*
X188408Y38622D01*
X188664Y38710D01*
X188921Y38791D01*
X189180Y38867D01*
X189441Y38935D01*
X189704Y38998D01*
X189968Y39054D01*
X190233Y39103D01*
X190500Y39146D01*
X190767Y39182D01*
X191036Y39212D01*
X191305Y39235D01*
X191574Y39252D01*
X191844Y39262D01*
X192114Y39265D01*
X192384Y39262D01*
X192654Y39252D01*
X192923Y39235D01*
X193192Y39212D01*
X193461Y39182D01*
X193728Y39146D01*
X193995Y39103D01*
X194260Y39054D01*
X194524Y38998D01*
X194787Y38935D01*
X195048Y38867D01*
X195307Y38791D01*
X195564Y38710D01*
X195820Y38622D01*
X196073Y38528D01*
X196324Y38428D01*
X196572Y38321D01*
X196817Y38209D01*
X197060Y38090D01*
X197299Y37966D01*
X197536Y37836D01*
X197769Y37700D01*
X197999Y37558D01*
X198225Y37411D01*
X198448Y37258D01*
X198667Y37100D01*
X198882Y36937D01*
X199092Y36768D01*
X199299Y36594D01*
X199501Y36415D01*
X199699Y36232D01*
X199892Y36043D01*
X200081Y35850D01*
X200264Y35652D01*
X200443Y35450D01*
X200617Y35243D01*
X200786Y35033D01*
X200949Y34818D01*
X201107Y34599D01*
X201260Y34376D01*
X201407Y34150D01*
X201549Y33920D01*
X201685Y33687D01*
X201815Y33450D01*
X201939Y33211D01*
X202058Y32968D01*
X202170Y32723D01*
X202277Y32475D01*
X202377Y32224D01*
X202471Y31971D01*
X202559Y31715D01*
X202640Y31458D01*
X202716Y31199D01*
X202784Y30938D01*
X202847Y30675D01*
X202903Y30411D01*
X202952Y30146D01*
X202995Y29879D01*
X203031Y29612D01*
X203061Y29343D01*
X203084Y29074D01*
X203101Y28805D01*
X203111Y28535D01*
X203114Y28265D01*
X203111Y27995D01*
X203101Y27725D01*
X203084Y27456D01*
X203061Y27187D01*
X203031Y26918D01*
X202995Y26651D01*
X202952Y26384D01*
X202903Y26119D01*
X202847Y25855D01*
X202784Y25592D01*
X202716Y25331D01*
X202640Y25072D01*
X202559Y24815D01*
X202471Y24559D01*
X202377Y24306D01*
X202277Y24055D01*
X202170Y23807D01*
X202058Y23562D01*
X201939Y23319D01*
X201815Y23080D01*
X201685Y22843D01*
X201549Y22610D01*
X201407Y22380D01*
X201260Y22154D01*
X201107Y21931D01*
X200949Y21712D01*
X200786Y21497D01*
X200617Y21287D01*
X200443Y21080D01*
X200264Y20878D01*
X200081Y20680D01*
X199892Y20487D01*
X199699Y20298D01*
X199501Y20115D01*
X199299Y19936D01*
X199092Y19762D01*
X198882Y19593D01*
X198667Y19430D01*
X198448Y19272D01*
X198225Y19119D01*
X197999Y18972D01*
X197769Y18830D01*
X197536Y18694D01*
X197299Y18564D01*
X197060Y18440D01*
X196817Y18321D01*
X196572Y18209D01*
X196324Y18102D01*
X196073Y18002D01*
X195820Y17908D01*
X195564Y17820D01*
X195307Y17739D01*
X195048Y17663D01*
X194787Y17595D01*
X194524Y17532D01*
X194260Y17476D01*
X193995Y17427D01*
X193728Y17384D01*
X193461Y17348D01*
X193192Y17318D01*
X192923Y17295D01*
X192654Y17278D01*
X192384Y17268D01*
X192114Y17265D01*
X191844Y17268D01*
X191574Y17278D01*
X191305Y17295D01*
X191036Y17318D01*
X190767Y17348D01*
X190500Y17384D01*
X190233Y17427D01*
X189968Y17476D01*
X189704Y17532D01*
X189441Y17595D01*
X189180Y17663D01*
X188921Y17739D01*
X188664Y17820D01*
X188408Y17908D01*
X188155Y18002D01*
X187904Y18102D01*
X187656Y18209D01*
X187411Y18321D01*
X187168Y18440D01*
X186929Y18564D01*
X186692Y18694D01*
X186459Y18830D01*
X186229Y18972D01*
X186003Y19119D01*
X185780Y19272D01*
X185561Y19430D01*
X185346Y19593D01*
X185136Y19762D01*
X184929Y19936D01*
X184727Y20115D01*
X184529Y20298D01*
X184336Y20487D01*
X184147Y20680D01*
X183964Y20878D01*
X183785Y21080D01*
X183611Y21287D01*
X183442Y21497D01*
X183279Y21712D01*
X183121Y21931D01*
X182968Y22154D01*
X182821Y22380D01*
X182679Y22610D01*
X182543Y22843D01*
X182413Y23080D01*
X182289Y23319D01*
X182170Y23562D01*
X182058Y23807D01*
X181951Y24055D01*
X181851Y24306D01*
X181757Y24559D01*
X181669Y24815D01*
X181588Y25072D01*
X181512Y25331D01*
X181444Y25592D01*
X181381Y25855D01*
X181325Y26119D01*
X181276Y26384D01*
X181233Y26651D01*
X181197Y26918D01*
X181167Y27187D01*
X181144Y27456D01*
X181127Y27725D01*
X181117Y27995D01*
X181114Y28265D01*
X21114Y288265D02*
X21117Y288535D01*
X21127Y288805D01*
X21144Y289074D01*
X21167Y289343D01*
X21197Y289612D01*
X21233Y289879D01*
X21276Y290146D01*
X21325Y290411D01*
X21381Y290675D01*
X21444Y290938D01*
X21512Y291199D01*
X21588Y291458D01*
X21669Y291715D01*
X21757Y291971D01*
X21851Y292224D01*
X21951Y292475D01*
X22058Y292723D01*
X22170Y292968D01*
X22289Y293211D01*
X22413Y293450D01*
X22543Y293687D01*
X22679Y293920D01*
X22821Y294150D01*
X22968Y294376D01*
X23121Y294599D01*
X23279Y294818D01*
X23442Y295033D01*
X23611Y295243D01*
X23785Y295450D01*
X23964Y295652D01*
X24147Y295850D01*
X24336Y296043D01*
X24529Y296232D01*
X24727Y296415D01*
X24929Y296594D01*
X25136Y296768D01*
X25346Y296937D01*
X25561Y297100D01*
X25780Y297258D01*
X26003Y297411D01*
X26229Y297558D01*
X26459Y297700D01*
X26692Y297836D01*
X26929Y297966D01*
X27168Y298090D01*
X27411Y298209D01*
X27656Y298321D01*
X27904Y298428D01*
X28155Y298528D01*
X28408Y298622D01*
X28664Y298710D01*
X28921Y298791D01*
X29180Y298867D01*
X29441Y298935D01*
X29704Y298998D01*
X29968Y299054D01*
X30233Y299103D01*
X30500Y299146D01*
X30767Y299182D01*
X31036Y299212D01*
X31305Y299235D01*
X31574Y299252D01*
X31844Y299262D01*
X32114Y299265D01*
X32384Y299262D01*
X32654Y299252D01*
X32923Y299235D01*
X33192Y299212D01*
X33461Y299182D01*
X33728Y299146D01*
X33995Y299103D01*
X34260Y299054D01*
X34524Y298998D01*
X34787Y298935D01*
X35048Y298867D01*
X35307Y298791D01*
X35564Y298710D01*
X35820Y298622D01*
X36073Y298528D01*
X36324Y298428D01*
X36572Y298321D01*
X36817Y298209D01*
X37060Y298090D01*
X37299Y297966D01*
X37536Y297836D01*
X37769Y297700D01*
X37999Y297558D01*
X38225Y297411D01*
X38448Y297258D01*
X38667Y297100D01*
X38882Y296937D01*
X39092Y296768D01*
X39299Y296594D01*
X39501Y296415D01*
X39699Y296232D01*
X39892Y296043D01*
X40081Y295850D01*
X40264Y295652D01*
X40443Y295450D01*
X40617Y295243D01*
X40786Y295033D01*
X40949Y294818D01*
X41107Y294599D01*
X41260Y294376D01*
X41407Y294150D01*
X41549Y293920D01*
X41685Y293687D01*
X41815Y293450D01*
X41939Y293211D01*
X42058Y292968D01*
X42170Y292723D01*
X42277Y292475D01*
X42377Y292224D01*
X42471Y291971D01*
X42559Y291715D01*
X42640Y291458D01*
X42716Y291199D01*
X42784Y290938D01*
X42847Y290675D01*
X42903Y290411D01*
X42952Y290146D01*
X42995Y289879D01*
X43031Y289612D01*
X43061Y289343D01*
X43084Y289074D01*
X43101Y288805D01*
X43111Y288535D01*
X43114Y288265D01*
X43111Y287995D01*
X43101Y287725D01*
X43084Y287456D01*
X43061Y287187D01*
X43031Y286918D01*
X42995Y286651D01*
X42952Y286384D01*
X42903Y286119D01*
X42847Y285855D01*
X42784Y285592D01*
X42716Y285331D01*
X42640Y285072D01*
X42559Y284815D01*
X42471Y284559D01*
X42377Y284306D01*
X42277Y284055D01*
X42170Y283807D01*
X42058Y283562D01*
X41939Y283319D01*
X41815Y283080D01*
X41685Y282843D01*
X41549Y282610D01*
X41407Y282380D01*
X41260Y282154D01*
X41107Y281931D01*
X40949Y281712D01*
X40786Y281497D01*
X40617Y281287D01*
X40443Y281080D01*
X40264Y280878D01*
X40081Y280680D01*
X39892Y280487D01*
X39699Y280298D01*
X39501Y280115D01*
X39299Y279936D01*
X39092Y279762D01*
X38882Y279593D01*
X38667Y279430D01*
X38448Y279272D01*
X38225Y279119D01*
X37999Y278972D01*
X37769Y278830D01*
X37536Y278694D01*
X37299Y278564D01*
X37060Y278440D01*
X36817Y278321D01*
X36572Y278209D01*
X36324Y278102D01*
X36073Y278002D01*
X35820Y277908D01*
X35564Y277820D01*
X35307Y277739D01*
X35048Y277663D01*
X34787Y277595D01*
X34524Y277532D01*
X34260Y277476D01*
X33995Y277427D01*
X33728Y277384D01*
X33461Y277348D01*
X33192Y277318D01*
X32923Y277295D01*
X32654Y277278D01*
X32384Y277268D01*
X32114Y277265D01*
X31844Y277268D01*
X31574Y277278D01*
X31305Y277295D01*
X31036Y277318D01*
X30767Y277348D01*
X30500Y277384D01*
X30233Y277427D01*
X29968Y277476D01*
X29704Y277532D01*
X29441Y277595D01*
X29180Y277663D01*
X28921Y277739D01*
X28664Y277820D01*
X28408Y277908D01*
X28155Y278002D01*
X27904Y278102D01*
X27656Y278209D01*
X27411Y278321D01*
X27168Y278440D01*
X26929Y278564D01*
X26692Y278694D01*
X26459Y278830D01*
X26229Y278972D01*
X26003Y279119D01*
X25780Y279272D01*
X25561Y279430D01*
X25346Y279593D01*
X25136Y279762D01*
X24929Y279936D01*
X24727Y280115D01*
X24529Y280298D01*
X24336Y280487D01*
X24147Y280680D01*
X23964Y280878D01*
X23785Y281080D01*
X23611Y281287D01*
X23442Y281497D01*
X23279Y281712D01*
X23121Y281931D01*
X22968Y282154D01*
X22821Y282380D01*
X22679Y282610D01*
X22543Y282843D01*
X22413Y283080D01*
X22289Y283319D01*
X22170Y283562D01*
X22058Y283807D01*
X21951Y284055D01*
X21851Y284306D01*
X21757Y284559D01*
X21669Y284815D01*
X21588Y285072D01*
X21512Y285331D01*
X21444Y285592D01*
X21381Y285855D01*
X21325Y286119D01*
X21276Y286384D01*
X21233Y286651D01*
X21197Y286918D01*
X21167Y287187D01*
X21144Y287456D01*
X21127Y287725D01*
X21117Y287995D01*
X21114Y288265D01*
X220000Y300000D02*
X220000Y20000D01*
X219994Y19517D01*
X219977Y19034D01*
X219947Y18551D01*
X219907Y18070D01*
X219854Y17589D01*
X219790Y17110D01*
X219715Y16633D01*
X219627Y16157D01*
X219529Y15684D01*
X219419Y15214D01*
X219298Y14746D01*
X219165Y14281D01*
X219021Y13820D01*
X218866Y13362D01*
X218700Y12908D01*
X218523Y12458D01*
X218336Y12013D01*
X218137Y11572D01*
X217929Y11136D01*
X217709Y10706D01*
X217479Y10280D01*
X217239Y9861D01*
X216989Y9447D01*
X216729Y9040D01*
X216460Y8639D01*
X216180Y8244D01*
X215892Y7857D01*
X215593Y7476D01*
X215286Y7103D01*
X214970Y6738D01*
X214645Y6380D01*
X214312Y6030D01*
X213970Y5688D01*
X213620Y5355D01*
X213262Y5030D01*
X212897Y4714D01*
X212524Y4407D01*
X212143Y4108D01*
X211756Y3820D01*
X211361Y3540D01*
X210960Y3271D01*
X210553Y3011D01*
X210139Y2761D01*
X209720Y2521D01*
X209294Y2291D01*
X208864Y2071D01*
X208428Y1863D01*
X207987Y1664D01*
X207542Y1477D01*
X207092Y1300D01*
X206638Y1134D01*
X206180Y979D01*
X205719Y835D01*
X205254Y702D01*
X204786Y581D01*
X204316Y471D01*
X203843Y373D01*
X203367Y285D01*
X202890Y210D01*
X202411Y146D01*
X201930Y93D01*
X201449Y53D01*
X200966Y23D01*
X200483Y6D01*
X200000Y0D01*
X20000Y0D01*
X19517Y6D01*
X19034Y23D01*
X18551Y53D01*
X18070Y93D01*
X17589Y146D01*
X17110Y210D01*
X16633Y285D01*
X16157Y373D01*
X15684Y471D01*
X15214Y581D01*
X14746Y702D01*
X14281Y835D01*
X13820Y979D01*
X13362Y1134D01*
X12908Y1300D01*
X12458Y1477D01*
X12013Y1664D01*
X11572Y1863D01*
X11136Y2071D01*
X10706Y2291D01*
X10280Y2521D01*
X9861Y2761D01*
X9447Y3011D01*
X9040Y3271D01*
X8639Y3540D01*
X8244Y3820D01*
X7857Y4108D01*
X7476Y4407D01*
X7103Y4714D01*
X6738Y5030D01*
X6380Y5355D01*
X6030Y5688D01*
X5688Y6030D01*
X5355Y6380D01*
X5030Y6738D01*
X4714Y7103D01*
X4407Y7476D01*
X4108Y7857D01*
X3820Y8244D01*
X3540Y8639D01*
X3271Y9040D01*
X3011Y9447D01*
X2761Y9861D01*
X2521Y10280D01*
X2291Y10706D01*
X2071Y11136D01*
X1863Y11572D01*
X1664Y12013D01*
X1477Y12458D01*
X1300Y12908D01*
X1134Y13362D01*
X979Y13820D01*
X835Y14281D01*
X702Y14746D01*
X581Y15214D01*
X471Y15684D01*
X373Y16157D01*
X285Y16633D01*
X210Y17110D01*
X146Y17589D01*
X93Y18070D01*
X53Y18551D01*
X23Y19034D01*
X6Y19517D01*
X0Y20000D01*
X0Y300000D01*
X20000Y320000D02*
X200000Y320000D01*
X200483Y319994D01*
X200966Y319977D01*
X201449Y319947D01*
X201930Y319907D01*
X202411Y319854D01*
X202890Y319790D01*
X203367Y319715D01*
X203843Y319627D01*
X204316Y319529D01*
X204786Y319419D01*
X205254Y319298D01*
X205719Y319165D01*
X206180Y319021D01*
X206638Y318866D01*
X207092Y318700D01*
X207542Y318523D01*
X207987Y318336D01*
X208428Y318137D01*
X208864Y317929D01*
X209294Y317709D01*
X209720Y317479D01*
X210139Y317239D01*
X210553Y316989D01*
X210960Y316729D01*
X211361Y316460D01*
X211756Y316180D01*
X212143Y315892D01*
X212524Y315593D01*
X212897Y315286D01*
X213262Y314970D01*
X213620Y314645D01*
X213970Y314312D01*
X214312Y313970D01*
X214645Y313620D01*
X214970Y313262D01*
X215286Y312897D01*
X215593Y312524D01*
X215892Y312143D01*
X216180Y311756D01*
X216460Y311361D01*
X216729Y310960D01*
X216989Y310553D01*
X217239Y310139D01*
X217479Y309720D01*
X217709Y309294D01*
X217929Y308864D01*
X218137Y308428D01*
X218336Y307987D01*
X218523Y307542D01*
X218700Y307092D01*
X218866Y306638D01*
X219021Y306180D01*
X219165Y305719D01*
X219298Y305254D01*
X219419Y304786D01*
X219529Y304316D01*
X219627Y303843D01*
X219715Y303367D01*
X219790Y302890D01*
X219854Y302411D01*
X219907Y301930D01*
X219947Y301449D01*
X219977Y300966D01*
X219994Y300483D01*
X220000Y300000D01*
X20000Y320000D02*
X19517Y319994D01*
X19034Y319977D01*
X18551Y319947D01*
X18070Y319907D01*
X17589Y319854D01*
X17110Y319790D01*
X16633Y319715D01*
X16157Y319627D01*
X15684Y319529D01*
X15214Y319419D01*
X14746Y319298D01*
X14281Y319165D01*
X13820Y319021D01*
X13362Y318866D01*
X12908Y318700D01*
X12458Y318523D01*
X12013Y318336D01*
X11572Y318137D01*
X11136Y317929D01*
X10706Y317709D01*
X10280Y317479D01*
X9861Y317239D01*
X9447Y316989D01*
X9040Y316729D01*
X8639Y316460D01*
X8244Y316180D01*
X7857Y315892D01*
X7476Y315593D01*
X7103Y315286D01*
X6738Y314970D01*
X6380Y314645D01*
X6030Y314312D01*
X5688Y313970D01*
X5355Y313620D01*
X5030Y313262D01*
X4714Y312897D01*
X4407Y312524D01*
X4108Y312143D01*
X3820Y311756D01*
X3540Y311361D01*
X3271Y310960D01*
X3011Y310553D01*
X2761Y310139D01*
X2521Y309720D01*
X2291Y309294D01*
X2071Y308864D01*
X1863Y308428D01*
X1664Y307987D01*
X1477Y307542D01*
X1300Y307092D01*
X1134Y306638D01*
X979Y306180D01*
X835Y305719D01*
X702Y305254D01*
X581Y304786D01*
X471Y304316D01*
X373Y303843D01*
X285Y303367D01*
X210Y302890D01*
X146Y302411D01*
X93Y301930D01*
X53Y301449D01*
X23Y300966D01*
X6Y300483D01*
X0Y300000D01*
M02*
