G04 EAGLE Gerber RS-274X export*
G75*
%MOMM*%
%FSLAX34Y34*%
%LPD*%
%INBottom Solder Mask*%
%IPPOS*%
%AMOC8*
5,1,8,0,0,1.08239X$1,22.5*%
G01*
G04 Define Apertures*
%ADD10C,2.241600*%
%ADD11C,1.625600*%
%ADD12P,1.759533X8X22.500000*%
D10*
X38100Y203200D03*
X38100Y228600D03*
X38100Y254000D03*
D11*
X63500Y172720D02*
X63500Y157480D01*
X38100Y157480D02*
X38100Y172720D01*
X33020Y25400D02*
X17780Y25400D01*
X17780Y50800D02*
X33020Y50800D01*
X33020Y76200D02*
X17780Y76200D01*
X17780Y101600D02*
X33020Y101600D01*
X68580Y25400D02*
X83820Y25400D01*
X83820Y50800D02*
X68580Y50800D01*
X68580Y76200D02*
X83820Y76200D01*
X83820Y101600D02*
X68580Y101600D01*
D12*
X114300Y165100D03*
D11*
X121920Y25400D02*
X106680Y25400D01*
X106680Y50800D02*
X121920Y50800D01*
X121920Y76200D02*
X106680Y76200D01*
X106680Y101600D02*
X121920Y101600D01*
X190500Y132080D02*
X190500Y147320D01*
X165100Y147320D02*
X165100Y132080D01*
X158750Y49530D02*
X173990Y49530D01*
X173990Y74930D02*
X158750Y74930D01*
X158750Y100330D02*
X173990Y100330D01*
M02*
