G04 EAGLE Gerber RS-274X export*
G75*
%MOMM*%
%FSLAX34Y34*%
%LPD*%
%INBottom Copper*%
%IPPOS*%
%AMOC8*
5,1,8,0,0,1.08239X$1,22.5*%
G01*
G04 Define Apertures*
%ADD10C,2.140000*%
%ADD11C,1.524000*%
%ADD12P,1.649562X8X22.500000*%
%ADD13C,0.254000*%
%ADD14C,0.654800*%
G36*
X200248Y3326D02*
X206152Y4501D01*
X206610Y4690D01*
X211615Y8035D01*
X211965Y8385D01*
X215310Y13390D01*
X215499Y13848D01*
X216674Y19752D01*
X216698Y20000D01*
X216698Y300000D01*
X216674Y300248D01*
X215499Y306152D01*
X215310Y306610D01*
X211965Y311615D01*
X211615Y311965D01*
X206610Y315310D01*
X206152Y315499D01*
X200248Y316674D01*
X200000Y316698D01*
X20000Y316698D01*
X19752Y316674D01*
X13848Y315499D01*
X13390Y315310D01*
X8385Y311965D01*
X8035Y311615D01*
X4690Y306610D01*
X4501Y306152D01*
X3326Y300248D01*
X3302Y300000D01*
X3302Y20000D01*
X3326Y19752D01*
X4501Y13848D01*
X4690Y13390D01*
X8035Y8385D01*
X8385Y8035D01*
X13390Y4690D01*
X13848Y4501D01*
X19752Y3326D01*
X20000Y3302D01*
X200000Y3302D01*
X200248Y3326D01*
G37*
%LPC*%
G36*
X25749Y275048D02*
X20645Y279119D01*
X17812Y285001D01*
X17812Y291530D01*
X20645Y297412D01*
X25749Y301482D01*
X32114Y302935D01*
X38479Y301482D01*
X43583Y297412D01*
X46416Y291530D01*
X46416Y285001D01*
X43583Y279119D01*
X38479Y275048D01*
X32114Y273596D01*
X25749Y275048D01*
G37*
G36*
X110512Y155956D02*
X105156Y161312D01*
X105156Y168888D01*
X110583Y174314D01*
X110731Y174345D01*
X111148Y174630D01*
X111421Y175056D01*
X111506Y175514D01*
X111506Y300849D01*
X113143Y302486D01*
X157621Y302486D01*
X159258Y300849D01*
X159258Y296164D01*
X159359Y295669D01*
X159644Y295252D01*
X160070Y294979D01*
X160528Y294894D01*
X185983Y294894D01*
X186478Y294995D01*
X186881Y295266D01*
X188513Y296898D01*
X192487Y296898D01*
X195298Y294087D01*
X195298Y290113D01*
X192487Y287302D01*
X188513Y287302D01*
X186881Y288934D01*
X186459Y289213D01*
X185983Y289306D01*
X156464Y289306D01*
X155969Y289205D01*
X155552Y288920D01*
X155279Y288494D01*
X155194Y288036D01*
X155194Y258517D01*
X155295Y258022D01*
X155566Y257619D01*
X157198Y255987D01*
X157198Y252013D01*
X154387Y249202D01*
X150413Y249202D01*
X147602Y252013D01*
X147602Y255987D01*
X149234Y257619D01*
X149513Y258041D01*
X149606Y258517D01*
X149606Y288036D01*
X149505Y288531D01*
X149220Y288948D01*
X148794Y289221D01*
X148336Y289306D01*
X131517Y289306D01*
X131022Y289205D01*
X130619Y288934D01*
X128987Y287302D01*
X125013Y287302D01*
X122202Y290113D01*
X122202Y294087D01*
X122845Y294730D01*
X123124Y295151D01*
X123216Y295648D01*
X123108Y296142D01*
X122816Y296554D01*
X122385Y296820D01*
X121947Y296898D01*
X118364Y296898D01*
X117869Y296797D01*
X117452Y296512D01*
X117179Y296086D01*
X117094Y295628D01*
X117094Y175514D01*
X117195Y175019D01*
X117480Y174602D01*
X117906Y174329D01*
X118024Y174307D01*
X123444Y168888D01*
X123444Y161312D01*
X118088Y155956D01*
X110512Y155956D01*
G37*
G36*
X35668Y190976D02*
X31176Y192837D01*
X27737Y196276D01*
X25876Y200768D01*
X25876Y205632D01*
X27737Y210124D01*
X31176Y213563D01*
X33985Y214727D01*
X34404Y215009D01*
X34680Y215433D01*
X34769Y215930D01*
X34656Y216423D01*
X34361Y216833D01*
X33985Y217073D01*
X31176Y218237D01*
X27737Y221676D01*
X25876Y226168D01*
X25876Y231032D01*
X27737Y235524D01*
X31176Y238963D01*
X33985Y240127D01*
X34404Y240409D01*
X34680Y240833D01*
X34769Y241330D01*
X34656Y241823D01*
X34361Y242233D01*
X33985Y242473D01*
X31176Y243637D01*
X27737Y247076D01*
X25876Y251568D01*
X25876Y256432D01*
X27737Y260924D01*
X31176Y264363D01*
X35668Y266224D01*
X40532Y266224D01*
X45024Y264363D01*
X48463Y260924D01*
X50324Y256432D01*
X50324Y251568D01*
X48463Y247076D01*
X45024Y243637D01*
X42215Y242473D01*
X41796Y242191D01*
X41520Y241767D01*
X41431Y241270D01*
X41544Y240777D01*
X41839Y240367D01*
X42215Y240127D01*
X45024Y238963D01*
X48463Y235524D01*
X50324Y231032D01*
X50324Y226168D01*
X48463Y221676D01*
X45024Y218237D01*
X42215Y217073D01*
X41796Y216791D01*
X41520Y216367D01*
X41431Y215870D01*
X41544Y215377D01*
X41839Y214967D01*
X42215Y214727D01*
X45024Y213563D01*
X48463Y210124D01*
X50324Y205632D01*
X50324Y200768D01*
X48463Y196276D01*
X45024Y192837D01*
X40532Y190976D01*
X35668Y190976D01*
G37*
G36*
X156931Y91186D02*
X153570Y92578D01*
X150998Y95150D01*
X149606Y98511D01*
X149606Y102149D01*
X150998Y105510D01*
X153221Y107732D01*
X153500Y108154D01*
X153592Y108650D01*
X153484Y109144D01*
X153221Y109528D01*
X136906Y125843D01*
X136906Y196737D01*
X154850Y214681D01*
X155129Y215103D01*
X155222Y215579D01*
X155222Y217887D01*
X158033Y220698D01*
X162007Y220698D01*
X164818Y217887D01*
X164818Y213913D01*
X162007Y211102D01*
X159699Y211102D01*
X159204Y211001D01*
X158801Y210730D01*
X142866Y194795D01*
X142587Y194373D01*
X142494Y193897D01*
X142494Y128683D01*
X142595Y128188D01*
X142866Y127785D01*
X160805Y109846D01*
X161227Y109567D01*
X161703Y109474D01*
X175809Y109474D01*
X179170Y108082D01*
X181742Y105510D01*
X183134Y102149D01*
X183134Y98511D01*
X181742Y95150D01*
X179170Y92578D01*
X175809Y91186D01*
X156931Y91186D01*
G37*
G36*
X53340Y165862D02*
X53340Y174741D01*
X54887Y178475D01*
X57745Y181333D01*
X61479Y182880D01*
X62738Y182880D01*
X62738Y165862D01*
X53340Y165862D01*
G37*
G36*
X64262Y165862D02*
X64262Y182880D01*
X65521Y182880D01*
X69255Y181333D01*
X72113Y178475D01*
X73660Y174741D01*
X73660Y165862D01*
X64262Y165862D01*
G37*
G36*
X36281Y148336D02*
X32920Y149728D01*
X30348Y152300D01*
X28956Y155661D01*
X28956Y174539D01*
X30348Y177900D01*
X32920Y180472D01*
X36281Y181864D01*
X39919Y181864D01*
X43280Y180472D01*
X45852Y177900D01*
X47244Y174539D01*
X47244Y155661D01*
X45852Y152300D01*
X43280Y149728D01*
X39919Y148336D01*
X36281Y148336D01*
G37*
G36*
X64262Y147320D02*
X64262Y164338D01*
X73660Y164338D01*
X73660Y155459D01*
X72113Y151725D01*
X69255Y148867D01*
X65521Y147320D01*
X64262Y147320D01*
G37*
G36*
X61479Y147320D02*
X57745Y148867D01*
X54887Y151725D01*
X53340Y155459D01*
X53340Y164338D01*
X62738Y164338D01*
X62738Y147320D01*
X61479Y147320D01*
G37*
G36*
X180340Y140462D02*
X180340Y149341D01*
X181887Y153075D01*
X184745Y155933D01*
X188479Y157480D01*
X189738Y157480D01*
X189738Y140462D01*
X180340Y140462D01*
G37*
G36*
X191262Y140462D02*
X191262Y157480D01*
X192521Y157480D01*
X196255Y155933D01*
X199113Y153075D01*
X200660Y149341D01*
X200660Y140462D01*
X191262Y140462D01*
G37*
G36*
X104861Y67056D02*
X101500Y68448D01*
X98928Y71020D01*
X97536Y74381D01*
X97536Y78019D01*
X98928Y81380D01*
X101500Y83952D01*
X104861Y85344D01*
X123739Y85344D01*
X127100Y83952D01*
X128388Y82664D01*
X128809Y82384D01*
X129306Y82292D01*
X129800Y82400D01*
X130212Y82693D01*
X130478Y83123D01*
X130556Y83562D01*
X130556Y94238D01*
X130455Y94734D01*
X130170Y95151D01*
X129744Y95423D01*
X129246Y95508D01*
X128754Y95391D01*
X128388Y95136D01*
X127100Y93848D01*
X123739Y92456D01*
X104861Y92456D01*
X101500Y93848D01*
X98928Y96420D01*
X97536Y99781D01*
X97536Y103419D01*
X98928Y106780D01*
X101500Y109352D01*
X104861Y110744D01*
X123739Y110744D01*
X127100Y109352D01*
X128388Y108064D01*
X128809Y107784D01*
X129306Y107692D01*
X129800Y107800D01*
X130212Y108093D01*
X130478Y108523D01*
X130556Y108962D01*
X130556Y111347D01*
X130455Y111842D01*
X130184Y112245D01*
X126492Y115937D01*
X126492Y147883D01*
X126391Y148378D01*
X126120Y148781D01*
X124488Y150413D01*
X124488Y154387D01*
X127299Y157198D01*
X131273Y157198D01*
X134084Y154387D01*
X134084Y150413D01*
X132452Y148781D01*
X132173Y148359D01*
X132080Y147883D01*
X132080Y118777D01*
X132181Y118282D01*
X132452Y117879D01*
X136144Y114187D01*
X136144Y78853D01*
X130812Y73521D01*
X130537Y73109D01*
X129672Y71020D01*
X127100Y68448D01*
X123739Y67056D01*
X104861Y67056D01*
G37*
G36*
X163281Y122936D02*
X159920Y124328D01*
X157348Y126900D01*
X155956Y130261D01*
X155956Y149139D01*
X157348Y152500D01*
X159920Y155072D01*
X163281Y156464D01*
X166919Y156464D01*
X170280Y155072D01*
X172852Y152500D01*
X174244Y149139D01*
X174244Y130261D01*
X172852Y126900D01*
X170280Y124328D01*
X166919Y122936D01*
X163281Y122936D01*
G37*
G36*
X188479Y121920D02*
X184745Y123467D01*
X181887Y126325D01*
X180340Y130059D01*
X180340Y138938D01*
X189738Y138938D01*
X189738Y121920D01*
X188479Y121920D01*
G37*
G36*
X191262Y121920D02*
X191262Y138938D01*
X200660Y138938D01*
X200660Y130059D01*
X199113Y126325D01*
X196255Y123467D01*
X192521Y121920D01*
X191262Y121920D01*
G37*
G36*
X66761Y92456D02*
X63400Y93848D01*
X60828Y96420D01*
X59436Y99781D01*
X59436Y103419D01*
X60828Y106780D01*
X63400Y109352D01*
X66761Y110744D01*
X85639Y110744D01*
X89000Y109352D01*
X91572Y106780D01*
X92964Y103419D01*
X92964Y99781D01*
X91572Y96420D01*
X89000Y93848D01*
X85639Y92456D01*
X66761Y92456D01*
G37*
G36*
X15961Y92456D02*
X12600Y93848D01*
X10028Y96420D01*
X8636Y99781D01*
X8636Y103419D01*
X10028Y106780D01*
X12600Y109352D01*
X15961Y110744D01*
X34839Y110744D01*
X38200Y109352D01*
X40772Y106780D01*
X42164Y103419D01*
X42164Y99781D01*
X40772Y96420D01*
X38200Y93848D01*
X34839Y92456D01*
X15961Y92456D01*
G37*
G36*
X66761Y67056D02*
X63400Y68448D01*
X60828Y71020D01*
X59436Y74381D01*
X59436Y78019D01*
X60828Y81380D01*
X63400Y83952D01*
X66761Y85344D01*
X85639Y85344D01*
X89000Y83952D01*
X91572Y81380D01*
X92964Y78019D01*
X92964Y74381D01*
X91572Y71020D01*
X89000Y68448D01*
X85639Y67056D01*
X66761Y67056D01*
G37*
G36*
X15961Y67056D02*
X12600Y68448D01*
X10028Y71020D01*
X8636Y74381D01*
X8636Y78019D01*
X10028Y81380D01*
X12600Y83952D01*
X15961Y85344D01*
X34839Y85344D01*
X38200Y83952D01*
X40772Y81380D01*
X42164Y78019D01*
X42164Y74381D01*
X40772Y71020D01*
X38200Y68448D01*
X34839Y67056D01*
X15961Y67056D01*
G37*
G36*
X156931Y65786D02*
X153570Y67178D01*
X150998Y69750D01*
X149606Y73111D01*
X149606Y76749D01*
X150998Y80110D01*
X153570Y82682D01*
X156931Y84074D01*
X175809Y84074D01*
X179170Y82682D01*
X181742Y80110D01*
X183134Y76749D01*
X183134Y73111D01*
X181742Y69750D01*
X179170Y67178D01*
X175809Y65786D01*
X156931Y65786D01*
G37*
G36*
X104861Y41656D02*
X101500Y43048D01*
X98928Y45620D01*
X97536Y48981D01*
X97536Y52619D01*
X98928Y55980D01*
X101500Y58552D01*
X104861Y59944D01*
X123739Y59944D01*
X127100Y58552D01*
X129672Y55980D01*
X131064Y52619D01*
X131064Y48981D01*
X129672Y45620D01*
X127100Y43048D01*
X123739Y41656D01*
X104861Y41656D01*
G37*
G36*
X66761Y41656D02*
X63400Y43048D01*
X60828Y45620D01*
X59436Y48981D01*
X59436Y52619D01*
X60828Y55980D01*
X63400Y58552D01*
X66761Y59944D01*
X85639Y59944D01*
X89000Y58552D01*
X91572Y55980D01*
X92964Y52619D01*
X92964Y48981D01*
X91572Y45620D01*
X89000Y43048D01*
X85639Y41656D01*
X66761Y41656D01*
G37*
G36*
X15961Y41656D02*
X12600Y43048D01*
X10028Y45620D01*
X8636Y48981D01*
X8636Y52619D01*
X10028Y55980D01*
X12600Y58552D01*
X15961Y59944D01*
X34839Y59944D01*
X38200Y58552D01*
X40772Y55980D01*
X42164Y52619D01*
X42164Y48981D01*
X40772Y45620D01*
X38200Y43048D01*
X34839Y41656D01*
X15961Y41656D01*
G37*
G36*
X156931Y40386D02*
X153570Y41778D01*
X150998Y44350D01*
X149606Y47711D01*
X149606Y51349D01*
X150998Y54710D01*
X153570Y57282D01*
X156931Y58674D01*
X175809Y58674D01*
X179170Y57282D01*
X181742Y54710D01*
X183134Y51349D01*
X183134Y47711D01*
X181742Y44350D01*
X179170Y41778D01*
X175809Y40386D01*
X156931Y40386D01*
G37*
G36*
X185749Y15048D02*
X180645Y19119D01*
X177812Y25001D01*
X177812Y31530D01*
X180645Y37412D01*
X185749Y41482D01*
X192114Y42935D01*
X198479Y41482D01*
X203583Y37412D01*
X206416Y31530D01*
X206416Y25001D01*
X203583Y19119D01*
X198479Y15048D01*
X192114Y13596D01*
X185749Y15048D01*
G37*
G36*
X58420Y26162D02*
X58420Y27421D01*
X59967Y31155D01*
X62825Y34013D01*
X66559Y35560D01*
X75438Y35560D01*
X75438Y26162D01*
X58420Y26162D01*
G37*
G36*
X76962Y15240D02*
X76962Y35560D01*
X85841Y35560D01*
X89575Y34013D01*
X92433Y31155D01*
X94077Y27188D01*
X94359Y26768D01*
X94783Y26493D01*
X95280Y26404D01*
X95773Y26516D01*
X96183Y26812D01*
X96423Y27188D01*
X98067Y31155D01*
X100925Y34013D01*
X104659Y35560D01*
X113538Y35560D01*
X113538Y15240D01*
X104659Y15240D01*
X100925Y16787D01*
X98067Y19645D01*
X96423Y23612D01*
X96141Y24032D01*
X95717Y24307D01*
X95220Y24396D01*
X94727Y24284D01*
X94317Y23988D01*
X94077Y23612D01*
X92433Y19645D01*
X89575Y16787D01*
X85841Y15240D01*
X76962Y15240D01*
G37*
G36*
X7620Y26162D02*
X7620Y27421D01*
X9167Y31155D01*
X12025Y34013D01*
X15759Y35560D01*
X24638Y35560D01*
X24638Y26162D01*
X7620Y26162D01*
G37*
G36*
X26162Y26162D02*
X26162Y35560D01*
X35041Y35560D01*
X38775Y34013D01*
X41633Y31155D01*
X43180Y27421D01*
X43180Y26162D01*
X26162Y26162D01*
G37*
G36*
X115062Y26162D02*
X115062Y35560D01*
X123941Y35560D01*
X127675Y34013D01*
X130533Y31155D01*
X132080Y27421D01*
X132080Y26162D01*
X115062Y26162D01*
G37*
G36*
X115062Y15240D02*
X115062Y24638D01*
X132080Y24638D01*
X132080Y23379D01*
X130533Y19645D01*
X127675Y16787D01*
X123941Y15240D01*
X115062Y15240D01*
G37*
G36*
X66559Y15240D02*
X62825Y16787D01*
X59967Y19645D01*
X58420Y23379D01*
X58420Y24638D01*
X75438Y24638D01*
X75438Y15240D01*
X66559Y15240D01*
G37*
G36*
X26162Y15240D02*
X26162Y24638D01*
X43180Y24638D01*
X43180Y23379D01*
X41633Y19645D01*
X38775Y16787D01*
X35041Y15240D01*
X26162Y15240D01*
G37*
G36*
X15759Y15240D02*
X12025Y16787D01*
X9167Y19645D01*
X7620Y23379D01*
X7620Y24638D01*
X24638Y24638D01*
X24638Y15240D01*
X15759Y15240D01*
G37*
%LPD*%
D10*
X38100Y203200D03*
X38100Y228600D03*
X38100Y254000D03*
D11*
X63500Y172720D02*
X63500Y157480D01*
X38100Y157480D02*
X38100Y172720D01*
X33020Y25400D02*
X17780Y25400D01*
X17780Y50800D02*
X33020Y50800D01*
X33020Y76200D02*
X17780Y76200D01*
X17780Y101600D02*
X33020Y101600D01*
X68580Y25400D02*
X83820Y25400D01*
X83820Y50800D02*
X68580Y50800D01*
X68580Y76200D02*
X83820Y76200D01*
X83820Y101600D02*
X68580Y101600D01*
D12*
X114300Y165100D03*
D11*
X121920Y25400D02*
X106680Y25400D01*
X106680Y50800D02*
X121920Y50800D01*
X121920Y76200D02*
X106680Y76200D01*
X106680Y101600D02*
X121920Y101600D01*
X190500Y132080D02*
X190500Y147320D01*
X165100Y147320D02*
X165100Y132080D01*
X158750Y49530D02*
X173990Y49530D01*
X173990Y74930D02*
X158750Y74930D01*
X158750Y100330D02*
X173990Y100330D01*
D13*
X69850Y165100D02*
X63500Y165100D01*
D14*
X69850Y256668D03*
D13*
X69850Y165100D01*
D14*
X190500Y292100D03*
D13*
X114300Y299692D02*
X114300Y165100D01*
X156464Y292100D02*
X190500Y292100D01*
X156464Y292100D02*
X156464Y299692D01*
X114300Y299692D01*
D14*
X127000Y292100D03*
D13*
X152400Y292100D01*
X152400Y254000D01*
D14*
X152400Y254000D03*
X129286Y152400D03*
D13*
X129286Y117094D01*
X133350Y113030D01*
X133350Y80010D01*
X129540Y76200D01*
X114300Y76200D01*
X139700Y127000D02*
X166370Y100330D01*
X139700Y127000D02*
X139700Y195580D01*
X160020Y215900D01*
D14*
X160020Y215900D03*
M02*
