G04 EAGLE Gerber RS-274X export*
G75*
%MOMM*%
%FSLAX34Y34*%
%LPD*%
%INTop Solder Mask*%
%IPPOS*%
%AMOC8*
5,1,8,0,0,1.08239X$1,22.5*%
G01*
G04 Define Apertures*
%ADD10R,2.051600X0.691600*%
%ADD11C,0.394209*%
%ADD12C,2.241600*%
%ADD13R,1.521800X1.132800*%
%ADD14C,1.625600*%
%ADD15P,1.759533X8X22.500000*%
%ADD16R,1.401600X1.601600*%
%ADD17C,1.601600*%
D10*
X189900Y203200D03*
D11*
X181613Y217387D02*
X198187Y217387D01*
X198187Y214413D01*
X181613Y214413D01*
X181613Y217387D01*
X181613Y230087D02*
X198187Y230087D01*
X198187Y227113D01*
X181613Y227113D01*
X181613Y230087D01*
X181613Y242787D02*
X198187Y242787D01*
X198187Y239813D01*
X181613Y239813D01*
X181613Y242787D01*
X181613Y255487D02*
X198187Y255487D01*
X198187Y252513D01*
X181613Y252513D01*
X181613Y255487D01*
X181613Y268187D02*
X198187Y268187D01*
X198187Y265213D01*
X181613Y265213D01*
X181613Y268187D01*
X181613Y280887D02*
X198187Y280887D01*
X198187Y277913D01*
X181613Y277913D01*
X181613Y280887D01*
X148587Y280887D02*
X132013Y280887D01*
X148587Y280887D02*
X148587Y277913D01*
X132013Y277913D01*
X132013Y280887D01*
X132013Y268187D02*
X148587Y268187D01*
X148587Y265213D01*
X132013Y265213D01*
X132013Y268187D01*
X132013Y255487D02*
X148587Y255487D01*
X148587Y252513D01*
X132013Y252513D01*
X132013Y255487D01*
X132013Y242787D02*
X148587Y242787D01*
X148587Y239813D01*
X132013Y239813D01*
X132013Y242787D01*
X132013Y230087D02*
X148587Y230087D01*
X148587Y227113D01*
X132013Y227113D01*
X132013Y230087D01*
X132013Y217387D02*
X148587Y217387D01*
X148587Y214413D01*
X132013Y214413D01*
X132013Y217387D01*
X132013Y204687D02*
X148587Y204687D01*
X148587Y201713D01*
X132013Y201713D01*
X132013Y204687D01*
D12*
X38100Y203200D03*
X38100Y228600D03*
X38100Y254000D03*
D13*
X87913Y237446D03*
X87913Y219056D03*
D14*
X63500Y172720D02*
X63500Y157480D01*
X38100Y157480D02*
X38100Y172720D01*
X33020Y25400D02*
X17780Y25400D01*
X17780Y50800D02*
X33020Y50800D01*
X33020Y76200D02*
X17780Y76200D01*
X17780Y101600D02*
X33020Y101600D01*
X68580Y25400D02*
X83820Y25400D01*
X83820Y50800D02*
X68580Y50800D01*
X68580Y76200D02*
X83820Y76200D01*
X83820Y101600D02*
X68580Y101600D01*
D15*
X114300Y165100D03*
D16*
X181678Y177800D03*
X162678Y177800D03*
D17*
X69613Y270000D03*
X87000Y270000D03*
X104000Y270000D03*
D14*
X106680Y25400D02*
X121920Y25400D01*
X121920Y50800D02*
X106680Y50800D01*
X106680Y76200D02*
X121920Y76200D01*
X121920Y101600D02*
X106680Y101600D01*
X190500Y132080D02*
X190500Y147320D01*
X165100Y147320D02*
X165100Y132080D01*
X158750Y49530D02*
X173990Y49530D01*
X173990Y74930D02*
X158750Y74930D01*
X158750Y100330D02*
X173990Y100330D01*
M02*
