M48
;GenerationSoftware,Autodesk,EAGLE,9.7.0*%
;CreationDate,2021-05-02T22:04:20Z*%
FMAT,2
ICI,OFF
METRIC,TZ,000.000
T4C0.350
T3C0.800
T2C1.016
%
G90
M71
T2
X6350Y16510
X3810Y16510
X2540Y2540
X2540Y5080
X2540Y7620
X2540Y10160
X7620Y2540
X7620Y5080
X7620Y7620
X7620Y10160
X11430Y16510
X11430Y2540
X11430Y5080
X11430Y7620
X11430Y10160
X19050Y13970
X16510Y13970
X16637Y4953
X16637Y7493
X16637Y10033
T3
X3810Y20320
X3810Y22860
X3810Y25400
T4
X6985Y25667
X19050Y29210
X12700Y29210
X15240Y25400
X12929Y15240
X16002Y21590
M30