G04 EAGLE Gerber RS-274X export*
G75*
%MOMM*%
%FSLAX34Y34*%
%LPD*%
%INTop Paste*%
%IPPOS*%
%AMOC8*
5,1,8,0,0,1.08239X$1,22.5*%
G01*
G04 Define Apertures*
%ADD10R,1.950000X0.590000*%
%ADD11C,0.295000*%
%ADD12R,1.420200X1.031200*%
%ADD13R,1.300000X1.500000*%
D10*
X189900Y203200D03*
D11*
X181625Y217375D02*
X198175Y217375D01*
X198175Y214425D01*
X181625Y214425D01*
X181625Y217375D01*
X181625Y217227D02*
X198175Y217227D01*
X198175Y230075D02*
X181625Y230075D01*
X198175Y230075D02*
X198175Y227125D01*
X181625Y227125D01*
X181625Y230075D01*
X181625Y229927D02*
X198175Y229927D01*
X198175Y242775D02*
X181625Y242775D01*
X198175Y242775D02*
X198175Y239825D01*
X181625Y239825D01*
X181625Y242775D01*
X181625Y242627D02*
X198175Y242627D01*
X198175Y255475D02*
X181625Y255475D01*
X198175Y255475D02*
X198175Y252525D01*
X181625Y252525D01*
X181625Y255475D01*
X181625Y255327D02*
X198175Y255327D01*
X198175Y268175D02*
X181625Y268175D01*
X198175Y268175D02*
X198175Y265225D01*
X181625Y265225D01*
X181625Y268175D01*
X181625Y268027D02*
X198175Y268027D01*
X198175Y280875D02*
X181625Y280875D01*
X198175Y280875D02*
X198175Y277925D01*
X181625Y277925D01*
X181625Y280875D01*
X181625Y280727D02*
X198175Y280727D01*
X148575Y280875D02*
X132025Y280875D01*
X148575Y280875D02*
X148575Y277925D01*
X132025Y277925D01*
X132025Y280875D01*
X132025Y280727D02*
X148575Y280727D01*
X148575Y268175D02*
X132025Y268175D01*
X148575Y268175D02*
X148575Y265225D01*
X132025Y265225D01*
X132025Y268175D01*
X132025Y268027D02*
X148575Y268027D01*
X148575Y255475D02*
X132025Y255475D01*
X148575Y255475D02*
X148575Y252525D01*
X132025Y252525D01*
X132025Y255475D01*
X132025Y255327D02*
X148575Y255327D01*
X148575Y242775D02*
X132025Y242775D01*
X148575Y242775D02*
X148575Y239825D01*
X132025Y239825D01*
X132025Y242775D01*
X132025Y242627D02*
X148575Y242627D01*
X148575Y230075D02*
X132025Y230075D01*
X148575Y230075D02*
X148575Y227125D01*
X132025Y227125D01*
X132025Y230075D01*
X132025Y229927D02*
X148575Y229927D01*
X148575Y217375D02*
X132025Y217375D01*
X148575Y217375D02*
X148575Y214425D01*
X132025Y214425D01*
X132025Y217375D01*
X132025Y217227D02*
X148575Y217227D01*
X148575Y204675D02*
X132025Y204675D01*
X148575Y204675D02*
X148575Y201725D01*
X132025Y201725D01*
X132025Y204675D01*
X132025Y204527D02*
X148575Y204527D01*
D12*
X87913Y237446D03*
X87913Y219056D03*
D13*
X181678Y177800D03*
X162678Y177800D03*
M02*
