%MOIN*%
%OFA0B0*%
%FSLAX36Y36*%
%IPPOS*%
%LPD*%
%ADD10C,0*%
D10*
X001852362Y001220472D02*
X001852362Y001220472D01*
X001852350Y001219456D01*
X001852311Y001218444D01*
X001852251Y001217433D01*
X001852161Y001216421D01*
X001852051Y001215413D01*
X001851913Y001214405D01*
X001851751Y001213405D01*
X001851566Y001212409D01*
X001851358Y001211413D01*
X001851122Y001210429D01*
X001850866Y001209448D01*
X001850582Y001208472D01*
X001850275Y001207503D01*
X001849944Y001206547D01*
X001849590Y001205594D01*
X001849216Y001204653D01*
X001848815Y001203720D01*
X001848393Y001202799D01*
X001847948Y001201885D01*
X001847480Y001200984D01*
X001846992Y001200098D01*
X001846480Y001199220D01*
X001845949Y001198358D01*
X001845394Y001197507D01*
X001844822Y001196669D01*
X001844228Y001195846D01*
X001843614Y001195039D01*
X001842980Y001194248D01*
X001842326Y001193472D01*
X001841653Y001192712D01*
X001840964Y001191968D01*
X001840256Y001191240D01*
X001839527Y001190531D01*
X001838783Y001189842D01*
X001838023Y001189169D01*
X001837248Y001188515D01*
X001836456Y001187881D01*
X001835649Y001187267D01*
X001834826Y001186673D01*
X001833988Y001186102D01*
X001833137Y001185547D01*
X001832275Y001185015D01*
X001831397Y001184503D01*
X001830511Y001184015D01*
X001829610Y001183547D01*
X001828696Y001183102D01*
X001827775Y001182681D01*
X001826842Y001182279D01*
X001825901Y001181905D01*
X001824948Y001181551D01*
X001823992Y001181220D01*
X001823023Y001180913D01*
X001822047Y001180629D01*
X001821066Y001180374D01*
X001820082Y001180137D01*
X001819086Y001179929D01*
X001818090Y001179744D01*
X001817090Y001179582D01*
X001816082Y001179444D01*
X001815074Y001179334D01*
X001814062Y001179244D01*
X001813051Y001179185D01*
X001812039Y001179145D01*
X001811023Y001179133D01*
X001810007Y001179145D01*
X001808996Y001179185D01*
X001807984Y001179244D01*
X001806972Y001179334D01*
X001805964Y001179444D01*
X001804956Y001179582D01*
X001803956Y001179744D01*
X001802960Y001179929D01*
X001801964Y001180137D01*
X001800980Y001180374D01*
X001800000Y001180629D01*
X001799023Y001180913D01*
X001798055Y001181220D01*
X001797098Y001181551D01*
X001796145Y001181905D01*
X001795204Y001182279D01*
X001794271Y001182681D01*
X001793350Y001183102D01*
X001792437Y001183547D01*
X001791535Y001184015D01*
X001790649Y001184503D01*
X001789771Y001185015D01*
X001788909Y001185547D01*
X001788059Y001186102D01*
X001787220Y001186673D01*
X001786397Y001187267D01*
X001785590Y001187881D01*
X001784799Y001188515D01*
X001784023Y001189169D01*
X001783263Y001189842D01*
X001782519Y001190531D01*
X001781791Y001191240D01*
X001781082Y001191968D01*
X001780393Y001192712D01*
X001779720Y001193472D01*
X001779066Y001194248D01*
X001778433Y001195039D01*
X001777818Y001195846D01*
X001777224Y001196669D01*
X001776653Y001197507D01*
X001776098Y001198358D01*
X001775566Y001199220D01*
X001775055Y001200098D01*
X001774566Y001200984D01*
X001774098Y001201885D01*
X001773653Y001202799D01*
X001773232Y001203720D01*
X001772830Y001204653D01*
X001772456Y001205594D01*
X001772102Y001206547D01*
X001771771Y001207503D01*
X001771464Y001208472D01*
X001771181Y001209448D01*
X001770925Y001210429D01*
X001770688Y001211413D01*
X001770480Y001212409D01*
X001770295Y001213405D01*
X001770133Y001214405D01*
X001769996Y001215413D01*
X001769885Y001216421D01*
X001769795Y001217433D01*
X001769736Y001218444D01*
X001769697Y001219456D01*
X001769685Y001220472D01*
X001769697Y001221488D01*
X001769736Y001222500D01*
X001769795Y001223511D01*
X001769885Y001224523D01*
X001769996Y001225531D01*
X001770133Y001226539D01*
X001770295Y001227539D01*
X001770480Y001228535D01*
X001770688Y001229531D01*
X001770925Y001230515D01*
X001771181Y001231496D01*
X001771464Y001232472D01*
X001771771Y001233440D01*
X001772102Y001234397D01*
X001772456Y001235350D01*
X001772830Y001236291D01*
X001773232Y001237224D01*
X001773653Y001238145D01*
X001774098Y001239059D01*
X001774566Y001239960D01*
X001775055Y001240846D01*
X001775566Y001241724D01*
X001776098Y001242586D01*
X001776653Y001243436D01*
X001777224Y001244275D01*
X001777818Y001245098D01*
X001778433Y001245905D01*
X001779066Y001246696D01*
X001779720Y001247472D01*
X001780393Y001248232D01*
X001781082Y001248976D01*
X001781791Y001249704D01*
X001782519Y001250413D01*
X001783263Y001251102D01*
X001784023Y001251775D01*
X001784799Y001252429D01*
X001785590Y001253063D01*
X001786397Y001253677D01*
X001787220Y001254271D01*
X001788059Y001254842D01*
X001788909Y001255397D01*
X001789771Y001255929D01*
X001790649Y001256440D01*
X001791535Y001256929D01*
X001792437Y001257397D01*
X001793350Y001257842D01*
X001794271Y001258263D01*
X001795204Y001258665D01*
X001796145Y001259039D01*
X001797098Y001259393D01*
X001798055Y001259724D01*
X001799023Y001260031D01*
X001800000Y001260315D01*
X001800980Y001260570D01*
X001801964Y001260807D01*
X001802960Y001261015D01*
X001803956Y001261200D01*
X001804956Y001261362D01*
X001805964Y001261499D01*
X001806972Y001261610D01*
X001807984Y001261700D01*
X001808996Y001261759D01*
X001810007Y001261799D01*
X001811023Y001261810D01*
X001812039Y001261799D01*
X001813051Y001261759D01*
X001814062Y001261700D01*
X001815074Y001261610D01*
X001816082Y001261499D01*
X001817090Y001261362D01*
X001818090Y001261200D01*
X001819086Y001261015D01*
X001820082Y001260807D01*
X001821066Y001260570D01*
X001822047Y001260315D01*
X001823023Y001260031D01*
X001823992Y001259724D01*
X001824948Y001259393D01*
X001825901Y001259039D01*
X001826842Y001258665D01*
X001827775Y001258263D01*
X001828696Y001257842D01*
X001829610Y001257397D01*
X001830511Y001256929D01*
X001831397Y001256440D01*
X001832275Y001255929D01*
X001833137Y001255397D01*
X001833988Y001254842D01*
X001834826Y001254271D01*
X001835649Y001253677D01*
X001836456Y001253063D01*
X001837248Y001252429D01*
X001838023Y001251775D01*
X001838783Y001251102D01*
X001839527Y001250413D01*
X001840256Y001249704D01*
X001840964Y001248976D01*
X001841653Y001248232D01*
X001842326Y001247472D01*
X001842980Y001246696D01*
X001843614Y001245905D01*
X001844228Y001245098D01*
X001844822Y001244275D01*
X001845394Y001243436D01*
X001845949Y001242586D01*
X001846480Y001241724D01*
X001846992Y001240846D01*
X001847480Y001239960D01*
X001847948Y001239059D01*
X001848393Y001238145D01*
X001848815Y001237224D01*
X001849216Y001236291D01*
X001849590Y001235350D01*
X001849944Y001234397D01*
X001850275Y001233440D01*
X001850582Y001232472D01*
X001850866Y001231496D01*
X001851122Y001230515D01*
X001851358Y001229531D01*
X001851566Y001228535D01*
X001851751Y001227539D01*
X001851913Y001226539D01*
X001852051Y001225531D01*
X001852161Y001224523D01*
X001852251Y001223511D01*
X001852311Y001222500D01*
X001852350Y001221488D01*
X001852362Y001220472D01*
X001852362Y000118110D02*
X001852362Y000118110D01*
X001852350Y000117094D01*
X001852311Y000116082D01*
X001852251Y000115070D01*
X001852161Y000114059D01*
X001852051Y000113051D01*
X001851913Y000112043D01*
X001851751Y000111043D01*
X001851566Y000110047D01*
X001851358Y000109051D01*
X001851122Y000108066D01*
X001850866Y000107086D01*
X001850582Y000106110D01*
X001850275Y000105141D01*
X001849944Y000104185D01*
X001849590Y000103232D01*
X001849216Y000102290D01*
X001848815Y000101358D01*
X001848393Y000100437D01*
X001847948Y000099523D01*
X001847480Y000098622D01*
X001846992Y000097736D01*
X001846480Y000096858D01*
X001845949Y000095996D01*
X001845394Y000095145D01*
X001844822Y000094307D01*
X001844228Y000093483D01*
X001843614Y000092677D01*
X001842980Y000091885D01*
X001842326Y000091110D01*
X001841653Y000090350D01*
X001840964Y000089605D01*
X001840256Y000088877D01*
X001839527Y000088169D01*
X001838783Y000087480D01*
X001838023Y000086807D01*
X001837248Y000086153D01*
X001836456Y000085519D01*
X001835649Y000084905D01*
X001834826Y000084311D01*
X001833988Y000083739D01*
X001833137Y000083184D01*
X001832275Y000082653D01*
X001831397Y000082141D01*
X001830511Y000081653D01*
X001829610Y000081185D01*
X001828696Y000080740D01*
X001827775Y000080318D01*
X001826842Y000079917D01*
X001825901Y000079543D01*
X001824948Y000079188D01*
X001823992Y000078858D01*
X001823023Y000078551D01*
X001822047Y000078267D01*
X001821066Y000078011D01*
X001820082Y000077775D01*
X001819086Y000077566D01*
X001818090Y000077381D01*
X001817090Y000077220D01*
X001816082Y000077082D01*
X001815074Y000076972D01*
X001814062Y000076881D01*
X001813051Y000076822D01*
X001812039Y000076783D01*
X001811023Y000076771D01*
X001810007Y000076783D01*
X001808996Y000076822D01*
X001807984Y000076881D01*
X001806972Y000076972D01*
X001805964Y000077082D01*
X001804956Y000077220D01*
X001803956Y000077381D01*
X001802960Y000077566D01*
X001801964Y000077775D01*
X001800980Y000078011D01*
X001800000Y000078267D01*
X001799023Y000078551D01*
X001798055Y000078858D01*
X001797098Y000079188D01*
X001796145Y000079543D01*
X001795204Y000079917D01*
X001794271Y000080318D01*
X001793350Y000080740D01*
X001792437Y000081185D01*
X001791535Y000081653D01*
X001790649Y000082141D01*
X001789771Y000082653D01*
X001788909Y000083184D01*
X001788059Y000083739D01*
X001787220Y000084311D01*
X001786397Y000084905D01*
X001785590Y000085519D01*
X001784799Y000086153D01*
X001784023Y000086807D01*
X001783263Y000087480D01*
X001782519Y000088169D01*
X001781791Y000088877D01*
X001781082Y000089605D01*
X001780393Y000090350D01*
X001779720Y000091110D01*
X001779066Y000091885D01*
X001778433Y000092677D01*
X001777818Y000093483D01*
X001777224Y000094307D01*
X001776653Y000095145D01*
X001776098Y000095996D01*
X001775566Y000096858D01*
X001775055Y000097736D01*
X001774566Y000098622D01*
X001774098Y000099523D01*
X001773653Y000100437D01*
X001773232Y000101358D01*
X001772830Y000102290D01*
X001772456Y000103232D01*
X001772102Y000104185D01*
X001771771Y000105141D01*
X001771464Y000106110D01*
X001771181Y000107086D01*
X001770925Y000108066D01*
X001770688Y000109051D01*
X001770480Y000110047D01*
X001770295Y000111043D01*
X001770133Y000112043D01*
X001769996Y000113051D01*
X001769885Y000114059D01*
X001769795Y000115070D01*
X001769736Y000116082D01*
X001769697Y000117094D01*
X001769685Y000118110D01*
X001769697Y000119125D01*
X001769736Y000120137D01*
X001769795Y000121149D01*
X001769885Y000122161D01*
X001769996Y000123169D01*
X001770133Y000124177D01*
X001770295Y000125177D01*
X001770480Y000126173D01*
X001770688Y000127169D01*
X001770925Y000128153D01*
X001771181Y000129133D01*
X001771464Y000130110D01*
X001771771Y000131078D01*
X001772102Y000132035D01*
X001772456Y000132988D01*
X001772830Y000133929D01*
X001773232Y000134862D01*
X001773653Y000135783D01*
X001774098Y000136696D01*
X001774566Y000137598D01*
X001775055Y000138484D01*
X001775566Y000139362D01*
X001776098Y000140224D01*
X001776653Y000141074D01*
X001777224Y000141913D01*
X001777818Y000142736D01*
X001778433Y000143543D01*
X001779066Y000144334D01*
X001779720Y000145110D01*
X001780393Y000145870D01*
X001781082Y000146614D01*
X001781791Y000147342D01*
X001782519Y000148051D01*
X001783263Y000148740D01*
X001784023Y000149413D01*
X001784799Y000150066D01*
X001785590Y000150700D01*
X001786397Y000151314D01*
X001787220Y000151909D01*
X001788059Y000152480D01*
X001788909Y000153035D01*
X001789771Y000153566D01*
X001790649Y000154078D01*
X001791535Y000154566D01*
X001792437Y000155035D01*
X001793350Y000155480D01*
X001794271Y000155901D01*
X001795204Y000156303D01*
X001796145Y000156677D01*
X001797098Y000157031D01*
X001798055Y000157362D01*
X001799023Y000157669D01*
X001800000Y000157952D01*
X001800980Y000158208D01*
X001801964Y000158444D01*
X001802960Y000158653D01*
X001803956Y000158838D01*
X001804956Y000158999D01*
X001805964Y000159137D01*
X001806972Y000159248D01*
X001807984Y000159338D01*
X001808996Y000159397D01*
X001810007Y000159436D01*
X001811023Y000159448D01*
X001812039Y000159436D01*
X001813051Y000159397D01*
X001814062Y000159338D01*
X001815074Y000159248D01*
X001816082Y000159137D01*
X001817090Y000158999D01*
X001818090Y000158838D01*
X001819086Y000158653D01*
X001820082Y000158444D01*
X001821066Y000158208D01*
X001822047Y000157952D01*
X001823023Y000157669D01*
X001823992Y000157362D01*
X001824948Y000157031D01*
X001825901Y000156677D01*
X001826842Y000156303D01*
X001827775Y000155901D01*
X001828696Y000155480D01*
X001829610Y000155035D01*
X001830511Y000154566D01*
X001831397Y000154078D01*
X001832275Y000153566D01*
X001833137Y000153035D01*
X001833988Y000152480D01*
X001834826Y000151909D01*
X001835649Y000151314D01*
X001836456Y000150700D01*
X001837248Y000150066D01*
X001838023Y000149413D01*
X001838783Y000148740D01*
X001839527Y000148051D01*
X001840256Y000147342D01*
X001840964Y000146614D01*
X001841653Y000145870D01*
X001842326Y000145110D01*
X001842980Y000144334D01*
X001843614Y000143543D01*
X001844228Y000142736D01*
X001844822Y000141913D01*
X001845394Y000141074D01*
X001845949Y000140224D01*
X001846480Y000139362D01*
X001846992Y000138484D01*
X001847480Y000137598D01*
X001847948Y000136696D01*
X001848393Y000135783D01*
X001848815Y000134862D01*
X001849216Y000133929D01*
X001849590Y000132988D01*
X001849944Y000132035D01*
X001850275Y000131078D01*
X001850582Y000130110D01*
X001850866Y000129133D01*
X001851122Y000128153D01*
X001851358Y000127169D01*
X001851566Y000126173D01*
X001851751Y000125177D01*
X001851913Y000124177D01*
X001852051Y000123169D01*
X001852161Y000122161D01*
X001852251Y000121149D01*
X001852311Y000120137D01*
X001852350Y000119125D01*
X001852362Y000118110D01*
X001379921Y000118110D02*
X001379921Y000118110D01*
X001379909Y000117094D01*
X001379870Y000116082D01*
X001379811Y000115070D01*
X001379720Y000114059D01*
X001379610Y000113051D01*
X001379472Y000112043D01*
X001379311Y000111043D01*
X001379126Y000110047D01*
X001378917Y000109051D01*
X001378681Y000108066D01*
X001378425Y000107086D01*
X001378141Y000106110D01*
X001377834Y000105141D01*
X001377503Y000104185D01*
X001377149Y000103232D01*
X001376775Y000102290D01*
X001376374Y000101358D01*
X001375952Y000100437D01*
X001375507Y000099523D01*
X001375039Y000098622D01*
X001374551Y000097736D01*
X001374039Y000096858D01*
X001373507Y000095996D01*
X001372952Y000095145D01*
X001372381Y000094307D01*
X001371787Y000093483D01*
X001371173Y000092677D01*
X001370539Y000091885D01*
X001369885Y000091110D01*
X001369212Y000090350D01*
X001368523Y000089605D01*
X001367814Y000088877D01*
X001367086Y000088169D01*
X001366342Y000087480D01*
X001365582Y000086807D01*
X001364807Y000086153D01*
X001364015Y000085519D01*
X001363208Y000084905D01*
X001362385Y000084311D01*
X001361547Y000083739D01*
X001360696Y000083184D01*
X001359834Y000082653D01*
X001358956Y000082141D01*
X001358070Y000081653D01*
X001357169Y000081185D01*
X001356255Y000080740D01*
X001355334Y000080318D01*
X001354401Y000079917D01*
X001353460Y000079543D01*
X001352507Y000079188D01*
X001351551Y000078858D01*
X001350582Y000078551D01*
X001349606Y000078267D01*
X001348625Y000078011D01*
X001347641Y000077775D01*
X001346645Y000077566D01*
X001345649Y000077381D01*
X001344649Y000077220D01*
X001343641Y000077082D01*
X001342633Y000076972D01*
X001341622Y000076881D01*
X001340610Y000076822D01*
X001339598Y000076783D01*
X001338582Y000076771D01*
X001337566Y000076783D01*
X001336555Y000076822D01*
X001335543Y000076881D01*
X001334531Y000076972D01*
X001333523Y000077082D01*
X001332515Y000077220D01*
X001331515Y000077381D01*
X001330519Y000077566D01*
X001329523Y000077775D01*
X001328539Y000078011D01*
X001327559Y000078267D01*
X001326582Y000078551D01*
X001325614Y000078858D01*
X001324657Y000079188D01*
X001323704Y000079543D01*
X001322763Y000079917D01*
X001321830Y000080318D01*
X001320909Y000080740D01*
X001319996Y000081185D01*
X001319094Y000081653D01*
X001318208Y000082141D01*
X001317330Y000082653D01*
X001316468Y000083184D01*
X001315618Y000083739D01*
X001314779Y000084311D01*
X001313956Y000084905D01*
X001313149Y000085519D01*
X001312358Y000086153D01*
X001311582Y000086807D01*
X001310822Y000087480D01*
X001310078Y000088169D01*
X001309350Y000088877D01*
X001308641Y000089605D01*
X001307952Y000090350D01*
X001307279Y000091110D01*
X001306625Y000091885D01*
X001305992Y000092677D01*
X001305377Y000093483D01*
X001304783Y000094307D01*
X001304212Y000095145D01*
X001303657Y000095996D01*
X001303125Y000096858D01*
X001302614Y000097736D01*
X001302125Y000098622D01*
X001301657Y000099523D01*
X001301212Y000100437D01*
X001300791Y000101358D01*
X001300389Y000102290D01*
X001300015Y000103232D01*
X001299661Y000104185D01*
X001299330Y000105141D01*
X001299023Y000106110D01*
X001298740Y000107086D01*
X001298484Y000108066D01*
X001298248Y000109051D01*
X001298039Y000110047D01*
X001297854Y000111043D01*
X001297692Y000112043D01*
X001297555Y000113051D01*
X001297445Y000114059D01*
X001297354Y000115070D01*
X001297295Y000116082D01*
X001297255Y000117094D01*
X001297244Y000118110D01*
X001297255Y000119125D01*
X001297295Y000120137D01*
X001297354Y000121149D01*
X001297445Y000122161D01*
X001297555Y000123169D01*
X001297692Y000124177D01*
X001297854Y000125177D01*
X001298039Y000126173D01*
X001298248Y000127169D01*
X001298484Y000128153D01*
X001298740Y000129133D01*
X001299023Y000130110D01*
X001299330Y000131078D01*
X001299661Y000132035D01*
X001300015Y000132988D01*
X001300389Y000133929D01*
X001300791Y000134862D01*
X001301212Y000135783D01*
X001301657Y000136696D01*
X001302125Y000137598D01*
X001302614Y000138484D01*
X001303125Y000139362D01*
X001303657Y000140224D01*
X001304212Y000141074D01*
X001304783Y000141913D01*
X001305377Y000142736D01*
X001305992Y000143543D01*
X001306625Y000144334D01*
X001307279Y000145110D01*
X001307952Y000145870D01*
X001308641Y000146614D01*
X001309350Y000147342D01*
X001310078Y000148051D01*
X001310822Y000148740D01*
X001311582Y000149413D01*
X001312358Y000150066D01*
X001313149Y000150700D01*
X001313956Y000151314D01*
X001314779Y000151909D01*
X001315618Y000152480D01*
X001316468Y000153035D01*
X001317330Y000153566D01*
X001318208Y000154078D01*
X001319094Y000154566D01*
X001319996Y000155035D01*
X001320909Y000155480D01*
X001321830Y000155901D01*
X001322763Y000156303D01*
X001323704Y000156677D01*
X001324657Y000157031D01*
X001325614Y000157362D01*
X001326582Y000157669D01*
X001327559Y000157952D01*
X001328539Y000158208D01*
X001329523Y000158444D01*
X001330519Y000158653D01*
X001331515Y000158838D01*
X001332515Y000158999D01*
X001333523Y000159137D01*
X001334531Y000159248D01*
X001335543Y000159338D01*
X001336555Y000159397D01*
X001337566Y000159436D01*
X001338582Y000159448D01*
X001339598Y000159436D01*
X001340610Y000159397D01*
X001341622Y000159338D01*
X001342633Y000159248D01*
X001343641Y000159137D01*
X001344649Y000158999D01*
X001345649Y000158838D01*
X001346645Y000158653D01*
X001347641Y000158444D01*
X001348625Y000158208D01*
X001349606Y000157952D01*
X001350582Y000157669D01*
X001351551Y000157362D01*
X001352507Y000157031D01*
X001353460Y000156677D01*
X001354401Y000156303D01*
X001355334Y000155901D01*
X001356255Y000155480D01*
X001357169Y000155035D01*
X001358070Y000154566D01*
X001358956Y000154078D01*
X001359834Y000153566D01*
X001360696Y000153035D01*
X001361547Y000152480D01*
X001362385Y000151909D01*
X001363208Y000151314D01*
X001364015Y000150700D01*
X001364807Y000150066D01*
X001365582Y000149413D01*
X001366342Y000148740D01*
X001367086Y000148051D01*
X001367814Y000147342D01*
X001368523Y000146614D01*
X001369212Y000145870D01*
X001369885Y000145110D01*
X001370539Y000144334D01*
X001371173Y000143543D01*
X001371787Y000142736D01*
X001372381Y000141913D01*
X001372952Y000141074D01*
X001373507Y000140224D01*
X001374039Y000139362D01*
X001374551Y000138484D01*
X001375039Y000137598D01*
X001375507Y000136696D01*
X001375952Y000135783D01*
X001376374Y000134862D01*
X001376775Y000133929D01*
X001377149Y000132988D01*
X001377503Y000132035D01*
X001377834Y000131078D01*
X001378141Y000130110D01*
X001378425Y000129133D01*
X001378681Y000128153D01*
X001378917Y000127169D01*
X001379126Y000126173D01*
X001379311Y000125177D01*
X001379472Y000124177D01*
X001379610Y000123169D01*
X001379720Y000122161D01*
X001379811Y000121149D01*
X001379870Y000120137D01*
X001379909Y000119125D01*
X001379921Y000118110D01*
X000878897Y001641641D02*
X000878897Y001641641D01*
X000879814Y001641629D01*
X000880732Y001641598D01*
X000881649Y001641539D01*
X000882562Y001641460D01*
X000883476Y001641362D01*
X000884385Y001641236D01*
X000885291Y001641090D01*
X000886192Y001640921D01*
X000887090Y001640732D01*
X000887984Y001640519D01*
X000888874Y001640287D01*
X000889755Y001640031D01*
X000890629Y001639755D01*
X000891496Y001639456D01*
X000892358Y001639133D01*
X000893208Y001638795D01*
X000894055Y001638433D01*
X000894889Y001638051D01*
X000895712Y001637649D01*
X000896527Y001637224D01*
X000897334Y001636783D01*
X000898125Y001636318D01*
X000898905Y001635838D01*
X000899677Y001635338D01*
X000900433Y001634818D01*
X000901177Y001634279D01*
X000901909Y001633724D01*
X000902626Y001633153D01*
X000903326Y001632559D01*
X000904015Y001631952D01*
X000904688Y001631326D01*
X000905346Y001630688D01*
X000905984Y001630031D01*
X000906610Y001629358D01*
X000907216Y001628669D01*
X000907811Y001627968D01*
X000908381Y001627251D01*
X000908937Y001626519D01*
X000909476Y001625775D01*
X000909996Y001625019D01*
X000910496Y001624248D01*
X000910976Y001623468D01*
X000911440Y001622677D01*
X000911881Y001621870D01*
X000912307Y001621055D01*
X000912708Y001620232D01*
X000913090Y001619397D01*
X000913452Y001618551D01*
X000913791Y001617700D01*
X000914114Y001616838D01*
X000914413Y001615972D01*
X000914688Y001615098D01*
X000914944Y001614216D01*
X000915177Y001613326D01*
X000915389Y001612433D01*
X000915578Y001611535D01*
X000915748Y001610633D01*
X000915893Y001609728D01*
X000916019Y001608818D01*
X000916118Y001607905D01*
X000916196Y001606992D01*
X000916255Y001606074D01*
X000916287Y001605157D01*
X000916299Y001604240D01*
X000916287Y001603322D01*
X000916255Y001602405D01*
X000916196Y001601488D01*
X000916118Y001600574D01*
X000916019Y001599661D01*
X000915893Y001598751D01*
X000915748Y001597846D01*
X000915578Y001596944D01*
X000915389Y001596047D01*
X000915177Y001595153D01*
X000914944Y001594263D01*
X000914688Y001593381D01*
X000914413Y001592507D01*
X000914114Y001591641D01*
X000913791Y001590779D01*
X000913452Y001589929D01*
X000913090Y001589082D01*
X000912708Y001588248D01*
X000912307Y001587425D01*
X000911881Y001586610D01*
X000911440Y001585803D01*
X000910976Y001585011D01*
X000910496Y001584232D01*
X000909996Y001583460D01*
X000909476Y001582704D01*
X000908937Y001581960D01*
X000908381Y001581228D01*
X000907811Y001580511D01*
X000907216Y001579811D01*
X000906610Y001579122D01*
X000905984Y001578448D01*
X000905346Y001577791D01*
X000904688Y001577153D01*
X000904015Y001576527D01*
X000903326Y001575921D01*
X000902626Y001575326D01*
X000901909Y001574755D01*
X000901177Y001574200D01*
X000900433Y001573661D01*
X000899677Y001573142D01*
X000898905Y001572641D01*
X000898125Y001572161D01*
X000897334Y001571696D01*
X000896527Y001571255D01*
X000895712Y001570831D01*
X000894889Y001570429D01*
X000894055Y001570047D01*
X000893208Y001569685D01*
X000892358Y001569346D01*
X000891496Y001569023D01*
X000890629Y001568724D01*
X000889755Y001568448D01*
X000888874Y001568192D01*
X000887984Y001567960D01*
X000887090Y001567748D01*
X000886192Y001567559D01*
X000885291Y001567389D01*
X000884385Y001567244D01*
X000883476Y001567118D01*
X000882562Y001567020D01*
X000881649Y001566940D01*
X000880732Y001566881D01*
X000879814Y001566850D01*
X000878897Y001566838D01*
X000877980Y001566850D01*
X000877062Y001566881D01*
X000876145Y001566940D01*
X000875232Y001567020D01*
X000874318Y001567118D01*
X000873409Y001567244D01*
X000872503Y001567389D01*
X000871602Y001567559D01*
X000870704Y001567748D01*
X000869811Y001567960D01*
X000868921Y001568192D01*
X000868039Y001568448D01*
X000867165Y001568724D01*
X000866299Y001569023D01*
X000865437Y001569346D01*
X000864586Y001569685D01*
X000863740Y001570047D01*
X000862905Y001570429D01*
X000862082Y001570831D01*
X000861267Y001571255D01*
X000860460Y001571696D01*
X000859669Y001572161D01*
X000858890Y001572641D01*
X000858118Y001573142D01*
X000857362Y001573661D01*
X000856618Y001574200D01*
X000855885Y001574755D01*
X000855169Y001575326D01*
X000854468Y001575921D01*
X000853779Y001576527D01*
X000853106Y001577153D01*
X000852448Y001577791D01*
X000851811Y001578448D01*
X000851185Y001579122D01*
X000850578Y001579811D01*
X000849984Y001580511D01*
X000849413Y001581228D01*
X000848858Y001581960D01*
X000848318Y001582704D01*
X000847799Y001583460D01*
X000847299Y001584232D01*
X000846818Y001585011D01*
X000846354Y001585803D01*
X000845913Y001586610D01*
X000845488Y001587425D01*
X000845086Y001588248D01*
X000844704Y001589082D01*
X000844342Y001589929D01*
X000844003Y001590779D01*
X000843681Y001591641D01*
X000843381Y001592507D01*
X000843106Y001593381D01*
X000842850Y001594263D01*
X000842618Y001595153D01*
X000842405Y001596047D01*
X000842216Y001596944D01*
X000842047Y001597846D01*
X000841901Y001598751D01*
X000841775Y001599661D01*
X000841677Y001600574D01*
X000841598Y001601488D01*
X000841539Y001602405D01*
X000841507Y001603322D01*
X000841496Y001604240D01*
X000841507Y001605157D01*
X000841539Y001606074D01*
X000841598Y001606992D01*
X000841677Y001607905D01*
X000841775Y001608818D01*
X000841901Y001609728D01*
X000842047Y001610633D01*
X000842216Y001611535D01*
X000842405Y001612433D01*
X000842618Y001613326D01*
X000842850Y001614216D01*
X000843106Y001615098D01*
X000843381Y001615972D01*
X000843681Y001616838D01*
X000844003Y001617700D01*
X000844342Y001618551D01*
X000844704Y001619397D01*
X000845086Y001620232D01*
X000845488Y001621055D01*
X000845913Y001621870D01*
X000846354Y001622677D01*
X000846818Y001623468D01*
X000847299Y001624248D01*
X000847799Y001625019D01*
X000848318Y001625775D01*
X000848858Y001626519D01*
X000849413Y001627251D01*
X000849984Y001627968D01*
X000850578Y001628669D01*
X000851185Y001629358D01*
X000851811Y001630031D01*
X000852448Y001630688D01*
X000853106Y001631326D01*
X000853779Y001631952D01*
X000854468Y001632559D01*
X000855169Y001633153D01*
X000855885Y001633724D01*
X000856618Y001634279D01*
X000857362Y001634818D01*
X000858118Y001635338D01*
X000858890Y001635838D01*
X000859669Y001636318D01*
X000860460Y001636783D01*
X000861267Y001637224D01*
X000862082Y001637649D01*
X000862905Y001638051D01*
X000863740Y001638433D01*
X000864586Y001638795D01*
X000865437Y001639133D01*
X000866299Y001639456D01*
X000867165Y001639755D01*
X000868039Y001640031D01*
X000868921Y001640287D01*
X000869811Y001640519D01*
X000870704Y001640732D01*
X000871602Y001640921D01*
X000872503Y001641090D01*
X000873409Y001641236D01*
X000874318Y001641362D01*
X000875232Y001641460D01*
X000876145Y001641539D01*
X000877062Y001641598D01*
X000877980Y001641629D01*
X000878897Y001641641D01*
X000756354Y000067972D02*
X000756354Y000067972D01*
X000755291Y000067984D01*
X000754228Y000068023D01*
X000753169Y000068090D01*
X000752110Y000068181D01*
X000751051Y000068299D01*
X000749999Y000068440D01*
X000748948Y000068610D01*
X000747905Y000068803D01*
X000746866Y000069023D01*
X000745830Y000069271D01*
X000744803Y000069539D01*
X000743783Y000069838D01*
X000742771Y000070157D01*
X000741763Y000070503D01*
X000740767Y000070874D01*
X000739779Y000071267D01*
X000738803Y000071688D01*
X000737838Y000072129D01*
X000736881Y000072598D01*
X000735940Y000073086D01*
X000735007Y000073598D01*
X000734090Y000074133D01*
X000733185Y000074692D01*
X000732295Y000075271D01*
X000731417Y000075874D01*
X000730555Y000076496D01*
X000729708Y000077137D01*
X000728881Y000077803D01*
X000728066Y000078488D01*
X000727271Y000079192D01*
X000726492Y000079912D01*
X000725731Y000080657D01*
X000724988Y000081417D01*
X000724267Y000082196D01*
X000723562Y000082992D01*
X000722877Y000083806D01*
X000722212Y000084633D01*
X000721570Y000085479D01*
X000720948Y000086342D01*
X000720346Y000087220D01*
X000719767Y000088110D01*
X000719208Y000089015D01*
X000718673Y000089933D01*
X000718161Y000090865D01*
X000717673Y000091807D01*
X000717204Y000092763D01*
X000716763Y000093728D01*
X000716342Y000094704D01*
X000715948Y000095692D01*
X000715578Y000096688D01*
X000715231Y000097696D01*
X000714913Y000098708D01*
X000714614Y000099728D01*
X000714346Y000100755D01*
X000714098Y000101791D01*
X000713877Y000102830D01*
X000713685Y000103874D01*
X000713515Y000104925D01*
X000713373Y000105976D01*
X000713255Y000107035D01*
X000713165Y000108094D01*
X000713098Y000109153D01*
X000713059Y000110216D01*
X000713047Y000111279D01*
X000713059Y000112342D01*
X000713098Y000113405D01*
X000713165Y000114464D01*
X000713255Y000115523D01*
X000713373Y000116582D01*
X000713515Y000117633D01*
X000713685Y000118685D01*
X000713877Y000119728D01*
X000714098Y000120767D01*
X000714346Y000121803D01*
X000714614Y000122830D01*
X000714913Y000123850D01*
X000715231Y000124862D01*
X000715578Y000125870D01*
X000715948Y000126866D01*
X000716342Y000127854D01*
X000716763Y000128830D01*
X000717204Y000129795D01*
X000717673Y000130751D01*
X000718161Y000131692D01*
X000718673Y000132625D01*
X000719208Y000133543D01*
X000719767Y000134448D01*
X000720346Y000135338D01*
X000720948Y000136216D01*
X000721570Y000137078D01*
X000722212Y000137925D01*
X000722877Y000138751D01*
X000723562Y000139566D01*
X000724267Y000140362D01*
X000724988Y000141141D01*
X000725731Y000141901D01*
X000726492Y000142645D01*
X000727271Y000143366D01*
X000728066Y000144070D01*
X000728881Y000144755D01*
X000729708Y000145421D01*
X000730555Y000146062D01*
X000731417Y000146685D01*
X000732295Y000147287D01*
X000733185Y000147866D01*
X000734090Y000148425D01*
X000735007Y000148960D01*
X000735940Y000149472D01*
X000736881Y000149960D01*
X000737838Y000150429D01*
X000738803Y000150870D01*
X000739779Y000151291D01*
X000740767Y000151685D01*
X000741763Y000152055D01*
X000742771Y000152401D01*
X000743783Y000152720D01*
X000744803Y000153019D01*
X000745830Y000153287D01*
X000746866Y000153535D01*
X000747905Y000153755D01*
X000748948Y000153948D01*
X000749999Y000154118D01*
X000751051Y000154259D01*
X000752110Y000154377D01*
X000753169Y000154468D01*
X000754228Y000154535D01*
X000755291Y000154574D01*
X000756354Y000154586D01*
X000757416Y000154574D01*
X000758480Y000154535D01*
X000759539Y000154468D01*
X000760597Y000154377D01*
X000761657Y000154259D01*
X000762708Y000154118D01*
X000763759Y000153948D01*
X000764802Y000153755D01*
X000765842Y000153535D01*
X000766877Y000153287D01*
X000767905Y000153019D01*
X000768925Y000152720D01*
X000769937Y000152401D01*
X000770944Y000152055D01*
X000771940Y000151685D01*
X000772929Y000151291D01*
X000773905Y000150870D01*
X000774870Y000150429D01*
X000775826Y000149960D01*
X000776767Y000149472D01*
X000777700Y000148960D01*
X000778618Y000148425D01*
X000779523Y000147866D01*
X000780413Y000147287D01*
X000781291Y000146685D01*
X000782153Y000146062D01*
X000783000Y000145421D01*
X000783826Y000144755D01*
X000784641Y000144070D01*
X000785437Y000143366D01*
X000786216Y000142645D01*
X000786976Y000141901D01*
X000787720Y000141141D01*
X000788440Y000140362D01*
X000789145Y000139566D01*
X000789830Y000138751D01*
X000790496Y000137925D01*
X000791137Y000137078D01*
X000791759Y000136216D01*
X000792362Y000135338D01*
X000792940Y000134448D01*
X000793499Y000133543D01*
X000794035Y000132625D01*
X000794547Y000131692D01*
X000795035Y000130751D01*
X000795503Y000129795D01*
X000795944Y000128830D01*
X000796365Y000127854D01*
X000796759Y000126866D01*
X000797129Y000125870D01*
X000797476Y000124862D01*
X000797795Y000123850D01*
X000798094Y000122830D01*
X000798362Y000121803D01*
X000798610Y000120767D01*
X000798830Y000119728D01*
X000799023Y000118685D01*
X000799192Y000117633D01*
X000799334Y000116582D01*
X000799452Y000115523D01*
X000799543Y000114464D01*
X000799609Y000113405D01*
X000799649Y000112342D01*
X000799661Y000111279D01*
X000799649Y000110216D01*
X000799609Y000109153D01*
X000799543Y000108094D01*
X000799452Y000107035D01*
X000799334Y000105976D01*
X000799192Y000104925D01*
X000799023Y000103874D01*
X000798830Y000102830D01*
X000798610Y000101791D01*
X000798362Y000100755D01*
X000798094Y000099728D01*
X000797795Y000098708D01*
X000797476Y000097696D01*
X000797129Y000096688D01*
X000796759Y000095692D01*
X000796365Y000094704D01*
X000795944Y000093728D01*
X000795503Y000092763D01*
X000795035Y000091807D01*
X000794547Y000090865D01*
X000794035Y000089933D01*
X000793499Y000089015D01*
X000792940Y000088110D01*
X000792362Y000087220D01*
X000791759Y000086342D01*
X000791137Y000085479D01*
X000790496Y000084633D01*
X000789830Y000083806D01*
X000789145Y000082992D01*
X000788440Y000082196D01*
X000787720Y000081417D01*
X000786976Y000080657D01*
X000786216Y000079912D01*
X000785437Y000079192D01*
X000784641Y000078488D01*
X000783826Y000077803D01*
X000783000Y000077137D01*
X000782153Y000076496D01*
X000781291Y000075874D01*
X000780413Y000075271D01*
X000779523Y000074692D01*
X000778618Y000074133D01*
X000777700Y000073598D01*
X000776767Y000073086D01*
X000775826Y000072598D01*
X000774870Y000072129D01*
X000773905Y000071688D01*
X000772929Y000071267D01*
X000771940Y000070874D01*
X000770944Y000070503D01*
X000769937Y000070157D01*
X000768925Y000069838D01*
X000767905Y000069539D01*
X000766877Y000069271D01*
X000765842Y000069023D01*
X000764802Y000068803D01*
X000763759Y000068610D01*
X000762708Y000068440D01*
X000761657Y000068299D01*
X000760597Y000068181D01*
X000759539Y000068090D01*
X000758480Y000068023D01*
X000757416Y000067984D01*
X000756354Y000067972D01*
X000126433Y001091594D02*
X000126433Y001091594D01*
X000125370Y001091606D01*
X000124307Y001091645D01*
X000123248Y001091712D01*
X000122188Y001091803D01*
X000121129Y001091921D01*
X000120078Y001092062D01*
X000119027Y001092232D01*
X000117984Y001092425D01*
X000116944Y001092645D01*
X000115909Y001092893D01*
X000114881Y001093161D01*
X000113862Y001093460D01*
X000112850Y001093779D01*
X000111842Y001094125D01*
X000110846Y001094496D01*
X000109858Y001094889D01*
X000108881Y001095311D01*
X000107917Y001095751D01*
X000106960Y001096220D01*
X000106019Y001096708D01*
X000105086Y001097220D01*
X000104169Y001097755D01*
X000103263Y001098314D01*
X000102373Y001098893D01*
X000101495Y001099496D01*
X000100633Y001100118D01*
X000099787Y001100759D01*
X000098960Y001101425D01*
X000098145Y001102110D01*
X000097350Y001102814D01*
X000096570Y001103535D01*
X000095811Y001104279D01*
X000095066Y001105039D01*
X000094346Y001105818D01*
X000093641Y001106614D01*
X000092956Y001107429D01*
X000092290Y001108255D01*
X000091649Y001109102D01*
X000091027Y001109964D01*
X000090425Y001110842D01*
X000089846Y001111732D01*
X000089287Y001112637D01*
X000088751Y001113555D01*
X000088239Y001114488D01*
X000087751Y001115429D01*
X000087283Y001116385D01*
X000086842Y001117350D01*
X000086421Y001118326D01*
X000086027Y001119314D01*
X000085657Y001120311D01*
X000085311Y001121318D01*
X000084991Y001122330D01*
X000084692Y001123350D01*
X000084425Y001124377D01*
X000084177Y001125413D01*
X000083956Y001126452D01*
X000083763Y001127496D01*
X000083594Y001128547D01*
X000083452Y001129598D01*
X000083334Y001130657D01*
X000083243Y001131716D01*
X000083176Y001132775D01*
X000083137Y001133838D01*
X000083125Y001134901D01*
X000083137Y001135964D01*
X000083176Y001137027D01*
X000083243Y001138086D01*
X000083334Y001139145D01*
X000083452Y001140204D01*
X000083594Y001141255D01*
X000083763Y001142307D01*
X000083956Y001143350D01*
X000084177Y001144389D01*
X000084425Y001145425D01*
X000084692Y001146452D01*
X000084991Y001147472D01*
X000085311Y001148484D01*
X000085657Y001149492D01*
X000086027Y001150488D01*
X000086421Y001151476D01*
X000086842Y001152452D01*
X000087283Y001153417D01*
X000087751Y001154374D01*
X000088239Y001155314D01*
X000088751Y001156248D01*
X000089287Y001157165D01*
X000089846Y001158070D01*
X000090425Y001158960D01*
X000091027Y001159838D01*
X000091649Y001160700D01*
X000092290Y001161547D01*
X000092956Y001162374D01*
X000093641Y001163188D01*
X000094346Y001163984D01*
X000095066Y001164763D01*
X000095811Y001165523D01*
X000096570Y001166267D01*
X000097350Y001166988D01*
X000098145Y001167692D01*
X000098960Y001168377D01*
X000099787Y001169043D01*
X000100633Y001169685D01*
X000101495Y001170307D01*
X000102373Y001170909D01*
X000103263Y001171488D01*
X000104169Y001172047D01*
X000105086Y001172582D01*
X000106019Y001173094D01*
X000106960Y001173582D01*
X000107917Y001174051D01*
X000108881Y001174492D01*
X000109858Y001174913D01*
X000110846Y001175307D01*
X000111842Y001175677D01*
X000112850Y001176023D01*
X000113862Y001176342D01*
X000114881Y001176641D01*
X000115909Y001176909D01*
X000116944Y001177157D01*
X000117984Y001177377D01*
X000119027Y001177570D01*
X000120078Y001177740D01*
X000121129Y001177881D01*
X000122188Y001177999D01*
X000123248Y001178090D01*
X000124307Y001178157D01*
X000125370Y001178196D01*
X000126433Y001178208D01*
X000127496Y001178196D01*
X000128559Y001178157D01*
X000129618Y001178090D01*
X000130677Y001177999D01*
X000131736Y001177881D01*
X000132787Y001177740D01*
X000133838Y001177570D01*
X000134881Y001177377D01*
X000135921Y001177157D01*
X000136956Y001176909D01*
X000137984Y001176641D01*
X000139003Y001176342D01*
X000140015Y001176023D01*
X000141023Y001175677D01*
X000142019Y001175307D01*
X000143007Y001174913D01*
X000143984Y001174492D01*
X000144948Y001174051D01*
X000145905Y001173582D01*
X000146846Y001173094D01*
X000147779Y001172582D01*
X000148696Y001172047D01*
X000149602Y001171488D01*
X000150492Y001170909D01*
X000151370Y001170307D01*
X000152232Y001169685D01*
X000153078Y001169043D01*
X000153905Y001168377D01*
X000154720Y001167692D01*
X000155515Y001166988D01*
X000156295Y001166267D01*
X000157055Y001165523D01*
X000157799Y001164763D01*
X000158519Y001163984D01*
X000159224Y001163188D01*
X000159909Y001162374D01*
X000160574Y001161547D01*
X000161216Y001160700D01*
X000161838Y001159838D01*
X000162440Y001158960D01*
X000163019Y001158070D01*
X000163578Y001157165D01*
X000164114Y001156248D01*
X000164625Y001155314D01*
X000165114Y001154374D01*
X000165582Y001153417D01*
X000166023Y001152452D01*
X000166444Y001151476D01*
X000166838Y001150488D01*
X000167208Y001149492D01*
X000167554Y001148484D01*
X000167874Y001147472D01*
X000168173Y001146452D01*
X000168440Y001145425D01*
X000168688Y001144389D01*
X000168909Y001143350D01*
X000169102Y001142307D01*
X000169271Y001141255D01*
X000169412Y001140204D01*
X000169531Y001139145D01*
X000169622Y001138086D01*
X000169688Y001137027D01*
X000169728Y001135964D01*
X000169740Y001134901D01*
X000169728Y001133838D01*
X000169688Y001132775D01*
X000169622Y001131716D01*
X000169531Y001130657D01*
X000169412Y001129598D01*
X000169271Y001128547D01*
X000169102Y001127496D01*
X000168909Y001126452D01*
X000168688Y001125413D01*
X000168440Y001124377D01*
X000168173Y001123350D01*
X000167874Y001122330D01*
X000167554Y001121318D01*
X000167208Y001120311D01*
X000166838Y001119314D01*
X000166444Y001118326D01*
X000166023Y001117350D01*
X000165582Y001116385D01*
X000165114Y001115429D01*
X000164625Y001114488D01*
X000164114Y001113555D01*
X000163578Y001112637D01*
X000163019Y001111732D01*
X000162440Y001110842D01*
X000161838Y001109964D01*
X000161216Y001109102D01*
X000160574Y001108255D01*
X000159909Y001107429D01*
X000159224Y001106614D01*
X000158519Y001105818D01*
X000157799Y001105039D01*
X000157055Y001104279D01*
X000156295Y001103535D01*
X000155515Y001102814D01*
X000154720Y001102110D01*
X000153905Y001101425D01*
X000153078Y001100759D01*
X000152232Y001100118D01*
X000151370Y001099496D01*
X000150492Y001098893D01*
X000149602Y001098314D01*
X000148696Y001097755D01*
X000147779Y001097220D01*
X000146846Y001096708D01*
X000145905Y001096220D01*
X000144948Y001095751D01*
X000143984Y001095311D01*
X000143007Y001094889D01*
X000142019Y001094496D01*
X000141023Y001094125D01*
X000140015Y001093779D01*
X000139003Y001093460D01*
X000137984Y001093161D01*
X000136956Y001092893D01*
X000135921Y001092645D01*
X000134881Y001092425D01*
X000133838Y001092232D01*
X000132787Y001092062D01*
X000131736Y001091921D01*
X000130677Y001091803D01*
X000129618Y001091712D01*
X000128559Y001091645D01*
X000127496Y001091606D01*
X000126433Y001091594D01*
X000992126Y001061432D02*
X000992126Y001061432D01*
X000992126Y000305117D01*
X000991912Y000301023D01*
X000991274Y000296974D01*
X000990219Y000293013D01*
X000988757Y000289183D01*
X000986905Y000285526D01*
X000984683Y000282081D01*
X000982114Y000278886D01*
X000979228Y000275976D01*
X000976054Y000273381D01*
X000972628Y000271130D01*
X000968986Y000269248D01*
X000965169Y000267755D01*
X000961217Y000266667D01*
X000957173Y000265995D01*
X000953081Y000265748D01*
X000948985Y000265928D01*
X000944931Y000266532D01*
X000940961Y000267555D01*
X000937120Y000268985D01*
X000933447Y000270806D01*
X000886203Y000297393D01*
X000884416Y000298462D01*
X000882687Y000299624D01*
X000881023Y000300876D01*
X000879427Y000302215D01*
X000877903Y000303636D01*
X000876458Y000305135D01*
X000875093Y000306709D01*
X000873814Y000308352D01*
X000872623Y000310061D01*
X000871525Y000311831D01*
X000870521Y000313656D01*
X000869616Y000315532D01*
X000868811Y000317453D01*
X000868109Y000319414D01*
X000867511Y000321409D01*
X000867020Y000323433D01*
X000866636Y000325480D01*
X000866361Y000327545D01*
X000866196Y000329621D01*
X000866141Y000331703D01*
X000866141Y001030376D01*
X000866189Y001032323D01*
X000866334Y001034265D01*
X000866574Y001036197D01*
X000866909Y001038115D01*
X000867339Y001040014D01*
X000867862Y001041890D01*
X000868478Y001043737D01*
X000869184Y001045552D01*
X000869978Y001047330D01*
X000870860Y001049066D01*
X000871827Y001050756D01*
X000872875Y001052397D01*
X000874004Y001053983D01*
X000875210Y001055512D01*
X000876490Y001056980D01*
X000877841Y001058382D01*
X000879259Y001059716D01*
X000880742Y001060978D01*
X000882285Y001062166D01*
X000883885Y001063275D01*
X000931130Y001094331D01*
X000934788Y001096463D01*
X000938655Y001098191D01*
X000942685Y001099493D01*
X000946831Y001100354D01*
X000951046Y001100765D01*
X000955280Y001100721D01*
X000959486Y001100223D01*
X000963613Y001099276D01*
X000967615Y001097890D01*
X000971445Y001096084D01*
X000975059Y001093876D01*
X000978414Y001091292D01*
X000981473Y001088364D01*
X000984200Y001085123D01*
X000986562Y001081609D01*
X000988534Y001077861D01*
X000990091Y001073923D01*
X000991217Y001069841D01*
X000991898Y001065661D01*
X000992126Y001061432D01*
X001250548Y001511811D02*
X001250548Y001511811D01*
X001253523Y001511698D01*
X001256482Y001511361D01*
X001259406Y001510801D01*
X001262280Y001510022D01*
X001265086Y001509028D01*
X001267810Y001507825D01*
X001270434Y001506419D01*
X001272945Y001504819D01*
X001275328Y001503034D01*
X001277569Y001501073D01*
X001279656Y001498949D01*
X001281576Y001496674D01*
X001283319Y001494260D01*
X001284874Y001491721D01*
X001286233Y001489072D01*
X001287388Y001486327D01*
X001288332Y001483503D01*
X001289060Y001480616D01*
X001289567Y001477682D01*
X001289852Y001474719D01*
X001294713Y001390860D01*
X001294768Y001387656D01*
X001294562Y001384457D01*
X001294097Y001381286D01*
X001293375Y001378163D01*
X001292402Y001375109D01*
X001291183Y001372145D01*
X001289728Y001369289D01*
X001288044Y001366561D01*
X001286145Y001363980D01*
X001284042Y001361561D01*
X001281749Y001359321D01*
X001279281Y001357276D01*
X001276656Y001355437D01*
X001273889Y001353819D01*
X001271000Y001352431D01*
X001268008Y001351282D01*
X001264932Y001350381D01*
X001261793Y001349733D01*
X001258611Y001349343D01*
X001255409Y001349212D01*
X001070866Y001349212D01*
X001068964Y001349188D01*
X001067062Y001349122D01*
X001065161Y001349004D01*
X001063267Y001348846D01*
X001061374Y001348637D01*
X001059488Y001348385D01*
X001057610Y001348090D01*
X001055736Y001347744D01*
X001053874Y001347358D01*
X001052023Y001346925D01*
X001050181Y001346448D01*
X001048350Y001345925D01*
X001046535Y001345358D01*
X001044732Y001344747D01*
X001042944Y001344094D01*
X001041173Y001343397D01*
X001039421Y001342661D01*
X001037685Y001341877D01*
X001035968Y001341059D01*
X001034275Y001340192D01*
X001032598Y001339287D01*
X001030948Y001338342D01*
X001029318Y001337358D01*
X001027716Y001336334D01*
X001026137Y001335275D01*
X001024582Y001334173D01*
X001023059Y001333039D01*
X001021559Y001331862D01*
X001020090Y001330653D01*
X001018653Y001329409D01*
X001017244Y001328129D01*
X001015866Y001326818D01*
X001014519Y001325472D01*
X001013208Y001324094D01*
X001011929Y001322685D01*
X001010685Y001321248D01*
X001009476Y001319779D01*
X001008299Y001318279D01*
X001007165Y001316755D01*
X001006063Y001315200D01*
X001005003Y001313622D01*
X001003980Y001312019D01*
X001002996Y001310389D01*
X001002051Y001308739D01*
X001001145Y001307062D01*
X001000279Y001305370D01*
X000999460Y001303653D01*
X000998677Y001301917D01*
X000997940Y001300165D01*
X000997244Y001298393D01*
X000996590Y001296606D01*
X000995980Y001294803D01*
X000995413Y001292988D01*
X000994889Y001291157D01*
X000994413Y001289314D01*
X000993980Y001287464D01*
X000993594Y001285602D01*
X000993248Y001283727D01*
X000992952Y001281850D01*
X000992700Y001279964D01*
X000992492Y001278070D01*
X000992334Y001276177D01*
X000992216Y001274275D01*
X000992149Y001272373D01*
X000992126Y001270472D01*
X000992126Y001222031D01*
X000991915Y001217967D01*
X000991286Y001213946D01*
X000990246Y001210011D01*
X000988804Y001206205D01*
X000986978Y001202568D01*
X000984786Y001199139D01*
X000982251Y001195954D01*
X000979401Y001193048D01*
X000976267Y001190452D01*
X000972881Y001188194D01*
X000969280Y001186297D01*
X000965503Y001184782D01*
X000961589Y001183665D01*
X000957581Y001182958D01*
X000953521Y001182669D01*
X000949453Y001182800D01*
X000945421Y001183350D01*
X000941466Y001184314D01*
X000937633Y001185681D01*
X000933961Y001187437D01*
X000847465Y001234428D01*
X000847053Y001234656D01*
X000846642Y001234888D01*
X000846235Y001235125D01*
X000845831Y001235367D01*
X000845429Y001235614D01*
X000845031Y001235866D01*
X000844635Y001236123D01*
X000844243Y001236384D01*
X000843854Y001236650D01*
X000843468Y001236921D01*
X000843085Y001237196D01*
X000842706Y001237475D01*
X000842330Y001237760D01*
X000841957Y001238048D01*
X000841588Y001238342D01*
X000841223Y001238639D01*
X000840861Y001238941D01*
X000840502Y001239247D01*
X000840148Y001239558D01*
X000839797Y001239873D01*
X000839797Y001239873D01*
X000839614Y001240039D01*
X000838177Y001241283D01*
X000836708Y001242492D01*
X000835208Y001243669D01*
X000833685Y001244803D01*
X000832129Y001245905D01*
X000830551Y001246964D01*
X000828948Y001247988D01*
X000827318Y001248972D01*
X000825669Y001249917D01*
X000823992Y001250822D01*
X000822298Y001251688D01*
X000820582Y001252507D01*
X000818846Y001253291D01*
X000817094Y001254027D01*
X000815322Y001254724D01*
X000813535Y001255377D01*
X000811731Y001255988D01*
X000809917Y001256555D01*
X000808086Y001257078D01*
X000806244Y001257555D01*
X000804393Y001257988D01*
X000802531Y001258374D01*
X000800657Y001258720D01*
X000798779Y001259015D01*
X000796893Y001259267D01*
X000795000Y001259476D01*
X000793106Y001259633D01*
X000791204Y001259751D01*
X000789303Y001259818D01*
X000787401Y001259842D01*
X000574727Y001259842D01*
X000571746Y001259955D01*
X000568781Y001260294D01*
X000565851Y001260856D01*
X000562972Y001261638D01*
X000560161Y001262636D01*
X000557433Y001263844D01*
X000554804Y001265255D01*
X000552290Y001266861D01*
X000549904Y001268653D01*
X000547661Y001270621D01*
X000545574Y001272752D01*
X000543654Y001275036D01*
X000541913Y001277458D01*
X000540359Y001280006D01*
X000539004Y001282664D01*
X000537853Y001285416D01*
X000536914Y001288248D01*
X000536193Y001291143D01*
X000535692Y001294084D01*
X000535416Y001297055D01*
X000533040Y001340362D01*
X000532994Y001343561D01*
X000533209Y001346753D01*
X000533682Y001349917D01*
X000534410Y001353032D01*
X000535389Y001356078D01*
X000536612Y001359034D01*
X000538070Y001361881D01*
X000539756Y001364600D01*
X000541656Y001367174D01*
X000543759Y001369585D01*
X000546051Y001371817D01*
X000548517Y001373855D01*
X000551139Y001375687D01*
X000553902Y001377300D01*
X000556787Y001378683D01*
X000559775Y001379827D01*
X000562845Y001380725D01*
X000565979Y001381370D01*
X000569154Y001381759D01*
X000572350Y001381889D01*
X000629921Y001381889D01*
X000630874Y001381901D01*
X000631822Y001381937D01*
X000632771Y001381992D01*
X000633720Y001382074D01*
X000634665Y001382177D01*
X000635610Y001382303D01*
X000636551Y001382452D01*
X000637484Y001382622D01*
X000638417Y001382818D01*
X000639342Y001383035D01*
X000640263Y001383271D01*
X000641177Y001383535D01*
X000642086Y001383814D01*
X000642988Y001384122D01*
X000643881Y001384448D01*
X000644767Y001384795D01*
X000645645Y001385165D01*
X000646511Y001385555D01*
X000647370Y001385968D01*
X000648216Y001386397D01*
X000649055Y001386850D01*
X000649881Y001387322D01*
X000650692Y001387814D01*
X000651496Y001388326D01*
X000652287Y001388858D01*
X000653062Y001389409D01*
X000653827Y001389976D01*
X000654575Y001390562D01*
X000655307Y001391169D01*
X000656027Y001391791D01*
X000656732Y001392429D01*
X000657421Y001393086D01*
X000658094Y001393759D01*
X000658751Y001394448D01*
X000659389Y001395153D01*
X000660011Y001395874D01*
X000660618Y001396606D01*
X000661205Y001397354D01*
X000661771Y001398118D01*
X000662322Y001398893D01*
X000662854Y001399685D01*
X000663366Y001400488D01*
X000663858Y001401299D01*
X000664330Y001402125D01*
X000664783Y001402964D01*
X000665212Y001403811D01*
X000665626Y001404669D01*
X000666015Y001405535D01*
X000666385Y001406413D01*
X000666732Y001407299D01*
X000667059Y001408192D01*
X000667366Y001409094D01*
X000667645Y001410003D01*
X000667909Y001410917D01*
X000668145Y001411838D01*
X000668362Y001412763D01*
X000668559Y001413696D01*
X000668728Y001414629D01*
X000668877Y001415570D01*
X000669003Y001416515D01*
X000669106Y001417460D01*
X000669189Y001418409D01*
X000669244Y001419358D01*
X000669279Y001420307D01*
X000669291Y001421259D01*
X000669291Y001511811D01*
X001250548Y001511811D01*
X000866141Y000111341D02*
X000866141Y000111341D01*
X000866196Y000113423D01*
X000866361Y000115500D01*
X000866636Y000117564D01*
X000867020Y000119611D01*
X000867511Y000121636D01*
X000868109Y000123631D01*
X000868811Y000125592D01*
X000869616Y000127513D01*
X000870521Y000129389D01*
X000871525Y000131214D01*
X000872623Y000132983D01*
X000873814Y000134692D01*
X000875093Y000136336D01*
X000876458Y000137910D01*
X000877903Y000139409D01*
X000879427Y000140830D01*
X000881023Y000142168D01*
X000882687Y000143420D01*
X000884416Y000144582D01*
X000886203Y000145651D01*
X000933447Y000172238D01*
X000937120Y000174060D01*
X000940961Y000175490D01*
X000944931Y000176513D01*
X000948985Y000177117D01*
X000953081Y000177297D01*
X000957173Y000177049D01*
X000961217Y000176378D01*
X000965169Y000175290D01*
X000968986Y000173796D01*
X000972628Y000171914D01*
X000976054Y000169664D01*
X000979228Y000167069D01*
X000982114Y000164159D01*
X000984683Y000160964D01*
X000986905Y000157519D01*
X000988757Y000153862D01*
X000990219Y000150032D01*
X000991274Y000146071D01*
X000991912Y000142022D01*
X000992126Y000137928D01*
X000992126Y000078740D01*
X000992149Y000076838D01*
X000992216Y000074937D01*
X000992334Y000073035D01*
X000992492Y000071141D01*
X000992700Y000069248D01*
X000992952Y000067362D01*
X000993248Y000065484D01*
X000993594Y000063610D01*
X000993980Y000061748D01*
X000994413Y000059897D01*
X000994889Y000058055D01*
X000995413Y000056224D01*
X000995980Y000054409D01*
X000996590Y000052606D01*
X000997244Y000050818D01*
X000997940Y000049047D01*
X000998677Y000047295D01*
X000999460Y000045559D01*
X001000279Y000043842D01*
X001001145Y000042149D01*
X001002051Y000040472D01*
X001002996Y000038822D01*
X001003980Y000037192D01*
X001005003Y000035590D01*
X001006063Y000034011D01*
X001007165Y000032456D01*
X001008299Y000030933D01*
X001009476Y000029433D01*
X001010685Y000027964D01*
X001011929Y000026527D01*
X001013208Y000025118D01*
X001014519Y000023740D01*
X001015866Y000022393D01*
X001017244Y000021082D01*
X001018653Y000019803D01*
X001020090Y000018559D01*
X001021559Y000017350D01*
X001023059Y000016173D01*
X001024582Y000015039D01*
X001026137Y000013937D01*
X001027716Y000012877D01*
X001029318Y000011853D01*
X001030948Y000010870D01*
X001032598Y000009925D01*
X001034275Y000009019D01*
X001035968Y000008153D01*
X001037685Y000007334D01*
X001039421Y000006551D01*
X001041173Y000005814D01*
X001042944Y000005118D01*
X001044732Y000004464D01*
X001046535Y000003854D01*
X001048350Y000003287D01*
X001050181Y000002763D01*
X001052023Y000002287D01*
X001053874Y000001854D01*
X001055736Y000001468D01*
X001057610Y000001122D01*
X001059488Y000000826D01*
X001061374Y000000574D01*
X001063267Y000000365D01*
X001065161Y000000208D01*
X001067062Y000000090D01*
X001068964Y000000023D01*
X001070866Y000000000D01*
X001850393Y000000000D01*
X001852295Y000000023D01*
X001854196Y000000090D01*
X001856098Y000000208D01*
X001857992Y000000365D01*
X001859885Y000000574D01*
X001861771Y000000826D01*
X001863649Y000001122D01*
X001865523Y000001468D01*
X001867385Y000001854D01*
X001869236Y000002287D01*
X001871078Y000002763D01*
X001872909Y000003287D01*
X001874724Y000003854D01*
X001876527Y000004464D01*
X001878314Y000005118D01*
X001880086Y000005814D01*
X001881838Y000006551D01*
X001883574Y000007334D01*
X001885291Y000008153D01*
X001886984Y000009019D01*
X001888661Y000009925D01*
X001890311Y000010870D01*
X001891940Y000011853D01*
X001893543Y000012877D01*
X001895122Y000013937D01*
X001896677Y000015039D01*
X001898200Y000016173D01*
X001899700Y000017350D01*
X001901169Y000018559D01*
X001902606Y000019803D01*
X001904015Y000021082D01*
X001905393Y000022393D01*
X001906740Y000023740D01*
X001908051Y000025118D01*
X001909330Y000026527D01*
X001910574Y000027964D01*
X001911783Y000029433D01*
X001912960Y000030933D01*
X001914094Y000032456D01*
X001915196Y000034011D01*
X001916255Y000035590D01*
X001917279Y000037192D01*
X001918263Y000038822D01*
X001919208Y000040472D01*
X001920114Y000042149D01*
X001920980Y000043842D01*
X001921799Y000045559D01*
X001922582Y000047295D01*
X001923318Y000049047D01*
X001924015Y000050818D01*
X001924669Y000052606D01*
X001925279Y000054409D01*
X001925846Y000056224D01*
X001926370Y000058055D01*
X001926846Y000059897D01*
X001927279Y000061748D01*
X001927665Y000063610D01*
X001928011Y000065484D01*
X001928307Y000067362D01*
X001928559Y000069248D01*
X001928768Y000071141D01*
X001928925Y000073035D01*
X001929043Y000074937D01*
X001929110Y000076838D01*
X001929133Y000078740D01*
X001929133Y001270472D01*
X001929110Y001272373D01*
X001929043Y001274275D01*
X001928925Y001276177D01*
X001928768Y001278070D01*
X001928559Y001279964D01*
X001928307Y001281850D01*
X001928011Y001283727D01*
X001927665Y001285602D01*
X001927279Y001287464D01*
X001926846Y001289314D01*
X001926370Y001291157D01*
X001925846Y001292988D01*
X001925279Y001294803D01*
X001924669Y001296606D01*
X001924015Y001298393D01*
X001923318Y001300165D01*
X001922582Y001301917D01*
X001921799Y001303653D01*
X001920980Y001305370D01*
X001920114Y001307062D01*
X001919208Y001308739D01*
X001918263Y001310389D01*
X001917279Y001312019D01*
X001916255Y001313622D01*
X001915196Y001315200D01*
X001914094Y001316755D01*
X001912960Y001318279D01*
X001911783Y001319779D01*
X001910574Y001321248D01*
X001909330Y001322685D01*
X001908051Y001324094D01*
X001906740Y001325472D01*
X001905393Y001326818D01*
X001904015Y001328129D01*
X001902606Y001329409D01*
X001901169Y001330653D01*
X001899700Y001331862D01*
X001898200Y001333039D01*
X001896677Y001334173D01*
X001895122Y001335275D01*
X001893543Y001336334D01*
X001891940Y001337358D01*
X001890311Y001338342D01*
X001888661Y001339287D01*
X001886984Y001340192D01*
X001885291Y001341059D01*
X001883574Y001341877D01*
X001881838Y001342661D01*
X001880086Y001343397D01*
X001878314Y001344094D01*
X001876527Y001344747D01*
X001874724Y001345358D01*
X001872909Y001345925D01*
X001871078Y001346448D01*
X001869236Y001346925D01*
X001867385Y001347358D01*
X001865523Y001347744D01*
X001863649Y001348090D01*
X001861771Y001348385D01*
X001859885Y001348637D01*
X001857992Y001348846D01*
X001856098Y001349004D01*
X001854196Y001349122D01*
X001852295Y001349188D01*
X001850393Y001349212D01*
X001421756Y001349212D01*
X001418390Y001349356D01*
X001415049Y001349788D01*
X001411757Y001350503D01*
X001408539Y001351497D01*
X001405417Y001352763D01*
X001402414Y001354290D01*
X001399554Y001356069D01*
X001396856Y001358086D01*
X001394340Y001360327D01*
X001392025Y001362774D01*
X001389927Y001365410D01*
X001388063Y001368215D01*
X001386445Y001371170D01*
X001385086Y001374252D01*
X001383995Y001377440D01*
X001383181Y001380708D01*
X001382649Y001384035D01*
X001382403Y001387394D01*
X001382446Y001390763D01*
X001382776Y001394115D01*
X001394931Y001479743D01*
X001395341Y001482113D01*
X001395896Y001484453D01*
X001396592Y001486755D01*
X001397428Y001489010D01*
X001398399Y001491210D01*
X001399504Y001493346D01*
X001400736Y001495411D01*
X001402092Y001497397D01*
X001403567Y001499296D01*
X001405156Y001501102D01*
X001406851Y001502808D01*
X001408648Y001504406D01*
X001410539Y001505892D01*
X001412517Y001507260D01*
X001414574Y001508505D01*
X001416704Y001509621D01*
X001418898Y001510606D01*
X001421149Y001511454D01*
X001423446Y001512164D01*
X001425783Y001512732D01*
X001425818Y001512740D01*
X001426744Y001512956D01*
X001427665Y001513192D01*
X001428578Y001513457D01*
X001429487Y001513736D01*
X001430389Y001514043D01*
X001431283Y001514370D01*
X001432169Y001514716D01*
X001433047Y001515086D01*
X001433913Y001515476D01*
X001434771Y001515889D01*
X001435618Y001516318D01*
X001436456Y001516771D01*
X001437283Y001517244D01*
X001438094Y001517736D01*
X001438897Y001518248D01*
X001439688Y001518779D01*
X001440464Y001519330D01*
X001441228Y001519897D01*
X001441976Y001520484D01*
X001442708Y001521090D01*
X001443429Y001521712D01*
X001444133Y001522350D01*
X001444822Y001523007D01*
X001445496Y001523681D01*
X001446153Y001524370D01*
X001446791Y001525074D01*
X001447413Y001525795D01*
X001448019Y001526527D01*
X001448606Y001527275D01*
X001449172Y001528039D01*
X001449724Y001528814D01*
X001450255Y001529606D01*
X001450767Y001530409D01*
X001451259Y001531220D01*
X001451732Y001532047D01*
X001452185Y001532885D01*
X001452614Y001533732D01*
X001453027Y001534590D01*
X001453417Y001535456D01*
X001453787Y001536334D01*
X001454133Y001537220D01*
X001454460Y001538114D01*
X001454767Y001539015D01*
X001455047Y001539925D01*
X001455311Y001540838D01*
X001455547Y001541759D01*
X001455763Y001542685D01*
X001455960Y001543618D01*
X001456129Y001544551D01*
X001456279Y001545492D01*
X001456405Y001546437D01*
X001456507Y001547381D01*
X001456590Y001548330D01*
X001456645Y001549279D01*
X001456681Y001550228D01*
X001456692Y001551181D01*
X001456692Y001704724D01*
X001456681Y001705677D01*
X001456645Y001706625D01*
X001456590Y001707574D01*
X001456507Y001708523D01*
X001456405Y001709468D01*
X001456279Y001710413D01*
X001456129Y001711354D01*
X001455960Y001712287D01*
X001455763Y001713220D01*
X001455547Y001714145D01*
X001455311Y001715067D01*
X001455047Y001715980D01*
X001454767Y001716889D01*
X001454460Y001717791D01*
X001454133Y001718685D01*
X001453787Y001719570D01*
X001453417Y001720448D01*
X001453027Y001721314D01*
X001452614Y001722173D01*
X001452185Y001723020D01*
X001451732Y001723858D01*
X001451259Y001724685D01*
X001450767Y001725496D01*
X001450255Y001726299D01*
X001449724Y001727090D01*
X001449172Y001727866D01*
X001448606Y001728629D01*
X001448019Y001729377D01*
X001447413Y001730110D01*
X001446791Y001730830D01*
X001446153Y001731535D01*
X001445496Y001732224D01*
X001444822Y001732897D01*
X001444133Y001733555D01*
X001443429Y001734192D01*
X001442708Y001734814D01*
X001441976Y001735421D01*
X001441228Y001736007D01*
X001440464Y001736574D01*
X001439688Y001737125D01*
X001438897Y001737657D01*
X001438094Y001738169D01*
X001437283Y001738661D01*
X001436456Y001739133D01*
X001435618Y001739586D01*
X001434771Y001740015D01*
X001433913Y001740429D01*
X001433047Y001740818D01*
X001432169Y001741188D01*
X001431283Y001741535D01*
X001430389Y001741862D01*
X001429487Y001742169D01*
X001428578Y001742448D01*
X001427665Y001742712D01*
X001426744Y001742948D01*
X001425818Y001743165D01*
X001424885Y001743362D01*
X001423952Y001743531D01*
X001423011Y001743681D01*
X001422066Y001743807D01*
X001421122Y001743909D01*
X001420173Y001743992D01*
X001419224Y001744047D01*
X001418275Y001744082D01*
X001417322Y001744094D01*
X000669291Y001744094D01*
X000669291Y001850393D01*
X000669279Y001851346D01*
X000669244Y001852295D01*
X000669189Y001853244D01*
X000669106Y001854192D01*
X000669003Y001855137D01*
X000668877Y001856082D01*
X000668728Y001857023D01*
X000668559Y001857956D01*
X000668362Y001858889D01*
X000668145Y001859814D01*
X000667909Y001860736D01*
X000667645Y001861649D01*
X000667366Y001862559D01*
X000667059Y001863460D01*
X000666732Y001864354D01*
X000666385Y001865240D01*
X000666015Y001866118D01*
X000665626Y001866984D01*
X000665212Y001867842D01*
X000664783Y001868688D01*
X000664330Y001869527D01*
X000663858Y001870354D01*
X000663366Y001871165D01*
X000662854Y001871968D01*
X000662322Y001872759D01*
X000661771Y001873535D01*
X000661205Y001874299D01*
X000660618Y001875047D01*
X000660011Y001875779D01*
X000659389Y001876500D01*
X000658751Y001877204D01*
X000658094Y001877893D01*
X000657421Y001878566D01*
X000656732Y001879224D01*
X000656027Y001879862D01*
X000655307Y001880484D01*
X000654575Y001881090D01*
X000653827Y001881677D01*
X000653062Y001882244D01*
X000652287Y001882795D01*
X000651496Y001883326D01*
X000650692Y001883838D01*
X000649881Y001884330D01*
X000649055Y001884803D01*
X000648216Y001885255D01*
X000647370Y001885685D01*
X000646511Y001886098D01*
X000645645Y001886488D01*
X000644767Y001886858D01*
X000643881Y001887204D01*
X000642988Y001887531D01*
X000642086Y001887838D01*
X000641177Y001888118D01*
X000640263Y001888381D01*
X000639342Y001888618D01*
X000638417Y001888834D01*
X000637484Y001889031D01*
X000636551Y001889200D01*
X000635610Y001889350D01*
X000634665Y001889476D01*
X000633720Y001889578D01*
X000632771Y001889661D01*
X000631822Y001889716D01*
X000630874Y001889752D01*
X000629921Y001889763D01*
X000366141Y001889763D01*
X000365189Y001889752D01*
X000364240Y001889716D01*
X000363291Y001889661D01*
X000362342Y001889578D01*
X000361397Y001889476D01*
X000360452Y001889350D01*
X000359511Y001889200D01*
X000358578Y001889031D01*
X000357645Y001888834D01*
X000356720Y001888618D01*
X000355799Y001888381D01*
X000354885Y001888118D01*
X000353976Y001887838D01*
X000353074Y001887531D01*
X000352181Y001887204D01*
X000351295Y001886858D01*
X000350417Y001886488D01*
X000349551Y001886098D01*
X000348692Y001885685D01*
X000347846Y001885255D01*
X000347007Y001884803D01*
X000346181Y001884330D01*
X000345370Y001883838D01*
X000344566Y001883326D01*
X000343775Y001882795D01*
X000343000Y001882244D01*
X000342236Y001881677D01*
X000341488Y001881090D01*
X000340755Y001880484D01*
X000340035Y001879862D01*
X000339330Y001879224D01*
X000338642Y001878566D01*
X000337968Y001877893D01*
X000337311Y001877204D01*
X000336673Y001876500D01*
X000336051Y001875779D01*
X000335444Y001875047D01*
X000334858Y001874299D01*
X000334291Y001873535D01*
X000333740Y001872759D01*
X000333208Y001871968D01*
X000332697Y001871165D01*
X000332204Y001870354D01*
X000331732Y001869527D01*
X000331279Y001868688D01*
X000330850Y001867842D01*
X000330437Y001866984D01*
X000330047Y001866118D01*
X000329677Y001865240D01*
X000329330Y001864354D01*
X000329003Y001863460D01*
X000328696Y001862559D01*
X000328417Y001861649D01*
X000328153Y001860736D01*
X000327917Y001859814D01*
X000327700Y001858889D01*
X000327503Y001857956D01*
X000327334Y001857023D01*
X000327185Y001856082D01*
X000327059Y001855137D01*
X000326956Y001854192D01*
X000326874Y001853244D01*
X000326819Y001852295D01*
X000326783Y001851346D01*
X000326771Y001850393D01*
X000326771Y001421259D01*
X000326783Y001420307D01*
X000326819Y001419358D01*
X000326874Y001418409D01*
X000326956Y001417460D01*
X000327059Y001416515D01*
X000327185Y001415570D01*
X000327334Y001414629D01*
X000327503Y001413696D01*
X000327700Y001412763D01*
X000327917Y001411838D01*
X000328153Y001410917D01*
X000328417Y001410003D01*
X000328696Y001409094D01*
X000329003Y001408192D01*
X000329330Y001407299D01*
X000329677Y001406413D01*
X000330047Y001405535D01*
X000330437Y001404669D01*
X000330850Y001403811D01*
X000331279Y001402964D01*
X000331732Y001402125D01*
X000332204Y001401299D01*
X000332697Y001400488D01*
X000333208Y001399685D01*
X000333740Y001398893D01*
X000334291Y001398118D01*
X000334858Y001397354D01*
X000335444Y001396606D01*
X000336051Y001395874D01*
X000336673Y001395153D01*
X000337311Y001394448D01*
X000337968Y001393759D01*
X000338642Y001393086D01*
X000339330Y001392429D01*
X000340035Y001391791D01*
X000340755Y001391169D01*
X000341488Y001390562D01*
X000342236Y001389976D01*
X000343000Y001389409D01*
X000343775Y001388858D01*
X000344566Y001388326D01*
X000345370Y001387814D01*
X000346181Y001387322D01*
X000347007Y001386850D01*
X000347846Y001386397D01*
X000348692Y001385968D01*
X000349551Y001385555D01*
X000350417Y001385165D01*
X000351295Y001384795D01*
X000352181Y001384448D01*
X000353074Y001384122D01*
X000353976Y001383814D01*
X000354885Y001383535D01*
X000355799Y001383271D01*
X000356720Y001383035D01*
X000357645Y001382818D01*
X000358578Y001382622D01*
X000359511Y001382452D01*
X000360452Y001382303D01*
X000361397Y001382177D01*
X000362342Y001382074D01*
X000363291Y001381992D01*
X000364240Y001381937D01*
X000365189Y001381901D01*
X000366141Y001381889D01*
X000372530Y001381889D01*
X000375727Y001381759D01*
X000378902Y001381370D01*
X000382036Y001380725D01*
X000385106Y001379827D01*
X000388094Y001378683D01*
X000390978Y001377300D01*
X000393741Y001375687D01*
X000396364Y001373855D01*
X000398830Y001371817D01*
X000401122Y001369585D01*
X000403225Y001367174D01*
X000405125Y001364600D01*
X000406810Y001361881D01*
X000408269Y001359034D01*
X000409492Y001356078D01*
X000410471Y001353032D01*
X000411199Y001349917D01*
X000411672Y001346753D01*
X000411887Y001343561D01*
X000411841Y001340362D01*
X000409465Y001297055D01*
X000409189Y001294084D01*
X000408688Y001291143D01*
X000407967Y001288248D01*
X000407028Y001285416D01*
X000405877Y001282664D01*
X000404521Y001280006D01*
X000402968Y001277458D01*
X000401227Y001275036D01*
X000399307Y001272752D01*
X000397219Y001270621D01*
X000394977Y001268653D01*
X000392591Y001266861D01*
X000390077Y001265255D01*
X000387448Y001263844D01*
X000384720Y001262636D01*
X000381909Y001261638D01*
X000379030Y001260856D01*
X000376100Y001260294D01*
X000373135Y001259955D01*
X000370154Y001259842D01*
X000078740Y001259842D01*
X000076838Y001259818D01*
X000074937Y001259751D01*
X000073035Y001259633D01*
X000071141Y001259476D01*
X000069248Y001259267D01*
X000067362Y001259015D01*
X000065484Y001258720D01*
X000063610Y001258374D01*
X000061748Y001257988D01*
X000059897Y001257555D01*
X000058055Y001257078D01*
X000056224Y001256555D01*
X000054409Y001255988D01*
X000052606Y001255377D01*
X000050818Y001254724D01*
X000049047Y001254027D01*
X000047295Y001253291D01*
X000045559Y001252507D01*
X000043842Y001251688D01*
X000042149Y001250822D01*
X000040472Y001249917D01*
X000038822Y001248972D01*
X000037192Y001247988D01*
X000035590Y001246964D01*
X000034011Y001245905D01*
X000032456Y001244803D01*
X000030933Y001243669D01*
X000029433Y001242492D01*
X000027964Y001241283D01*
X000026527Y001240039D01*
X000025118Y001238759D01*
X000023740Y001237448D01*
X000022393Y001236102D01*
X000021082Y001234724D01*
X000019803Y001233314D01*
X000018559Y001231877D01*
X000017350Y001230409D01*
X000016173Y001228909D01*
X000015039Y001227385D01*
X000013937Y001225830D01*
X000012877Y001224251D01*
X000011853Y001222649D01*
X000010870Y001221019D01*
X000009925Y001219370D01*
X000009019Y001217692D01*
X000008153Y001216000D01*
X000007334Y001214283D01*
X000006551Y001212547D01*
X000005814Y001210795D01*
X000005118Y001209023D01*
X000004464Y001207236D01*
X000003854Y001205433D01*
X000003287Y001203618D01*
X000002763Y001201787D01*
X000002287Y001199944D01*
X000001854Y001198094D01*
X000001468Y001196232D01*
X000001122Y001194358D01*
X000000826Y001192480D01*
X000000574Y001190594D01*
X000000365Y001188700D01*
X000000208Y001186807D01*
X000000090Y001184905D01*
X000000023Y001183003D01*
X000000000Y001181102D01*
X000000000Y000078740D01*
X000000023Y000076838D01*
X000000090Y000074937D01*
X000000208Y000073035D01*
X000000365Y000071141D01*
X000000574Y000069248D01*
X000000826Y000067362D01*
X000001122Y000065484D01*
X000001468Y000063610D01*
X000001854Y000061748D01*
X000002287Y000059897D01*
X000002763Y000058055D01*
X000003287Y000056224D01*
X000003854Y000054409D01*
X000004464Y000052606D01*
X000005118Y000050818D01*
X000005814Y000049047D01*
X000006551Y000047295D01*
X000007334Y000045559D01*
X000008153Y000043842D01*
X000009019Y000042149D01*
X000009925Y000040472D01*
X000010870Y000038822D01*
X000011853Y000037192D01*
X000012877Y000035590D01*
X000013937Y000034011D01*
X000015039Y000032456D01*
X000016173Y000030933D01*
X000017350Y000029433D01*
X000018559Y000027964D01*
X000019803Y000026527D01*
X000021082Y000025118D01*
X000022393Y000023740D01*
X000023740Y000022393D01*
X000025118Y000021082D01*
X000026527Y000019803D01*
X000027964Y000018559D01*
X000029433Y000017350D01*
X000030933Y000016173D01*
X000032456Y000015039D01*
X000034011Y000013937D01*
X000035590Y000012877D01*
X000037192Y000011853D01*
X000038822Y000010870D01*
X000040472Y000009925D01*
X000042149Y000009019D01*
X000043842Y000008153D01*
X000045559Y000007334D01*
X000047295Y000006551D01*
X000049047Y000005814D01*
X000050818Y000005118D01*
X000052606Y000004464D01*
X000054409Y000003854D01*
X000056224Y000003287D01*
X000058055Y000002763D01*
X000059897Y000002287D01*
X000061748Y000001854D01*
X000063610Y000001468D01*
X000065484Y000001122D01*
X000067362Y000000826D01*
X000069248Y000000574D01*
X000071141Y000000365D01*
X000073035Y000000208D01*
X000074937Y000000090D01*
X000076838Y000000023D01*
X000078740Y000000000D01*
X000787401Y000000000D01*
X000789303Y000000023D01*
X000791204Y000000090D01*
X000793106Y000000208D01*
X000795000Y000000365D01*
X000796893Y000000574D01*
X000798779Y000000826D01*
X000800657Y000001122D01*
X000802531Y000001468D01*
X000804393Y000001854D01*
X000806244Y000002287D01*
X000808086Y000002763D01*
X000809917Y000003287D01*
X000811731Y000003854D01*
X000813535Y000004464D01*
X000815322Y000005118D01*
X000817094Y000005814D01*
X000818846Y000006551D01*
X000820582Y000007334D01*
X000822298Y000008153D01*
X000823992Y000009019D01*
X000825669Y000009925D01*
X000827318Y000010870D01*
X000828948Y000011853D01*
X000830551Y000012877D01*
X000832129Y000013937D01*
X000833685Y000015039D01*
X000835208Y000016173D01*
X000836708Y000017350D01*
X000838177Y000018559D01*
X000839614Y000019803D01*
X000841023Y000021082D01*
X000842401Y000022393D01*
X000843748Y000023740D01*
X000845059Y000025118D01*
X000846338Y000026527D01*
X000847582Y000027964D01*
X000848791Y000029433D01*
X000849968Y000030933D01*
X000851102Y000032456D01*
X000852204Y000034011D01*
X000853263Y000035590D01*
X000854287Y000037192D01*
X000855271Y000038822D01*
X000856216Y000040472D01*
X000857122Y000042149D01*
X000857988Y000043842D01*
X000858807Y000045559D01*
X000859590Y000047295D01*
X000860326Y000049047D01*
X000861023Y000050818D01*
X000861677Y000052606D01*
X000862287Y000054409D01*
X000862854Y000056224D01*
X000863377Y000058055D01*
X000863854Y000059897D01*
X000864287Y000061748D01*
X000864673Y000063610D01*
X000865019Y000065484D01*
X000865314Y000067362D01*
X000865566Y000069248D01*
X000865775Y000071141D01*
X000865933Y000073035D01*
X000866051Y000074937D01*
X000866118Y000076838D01*
X000866141Y000078740D01*
X000866141Y000111341D01*
M02*