%MOIN*%
%OFA0B0*%
%FSLAX34Y34*%
%IPPOS*%
%LPD*%
%AMOC8*
5,1,8,0,0,$1,22.5*%
%AMOC80*
5,1,8,0,0,$1,202.5*%
%AMOC81*
5,1,8,0,0,$1,112.5*%
%ADD10R,0.080771653543307093X0.027228346456692913*%
%ADD11C,0.01552003937007874*%
%ADD12C,0.088251968503937017*%
%ADD13R,0.059913385826771658X0.044598425196850394*%
%ADD14C,0.064*%
%ADD15P,0.069272952755905517X8X22.5*%
%ADD16R,0.055181102362204727X0.063055118110236216*%
%ADD17C,0.063055118110236216*%
%ADD28C,0.064*%
%ADD29C,0.051559055118110243*%
%ADD30R,0.074866141732283467X0.031559055118110239*%
%ADD31R,0.074866141732283467X0.035496062992125987*%
%ADD32R,0.074866141732283467X0.039433070866141735*%
%ADD33C,0.086677165354330718*%
%ADD34C,0.064*%
%ADD35R,0.043370078740157476X0.031559055118110239*%
G75*
G01*
D10*
X0000000Y0000000D02*
X0007476Y0008000D03*
D11*
X0007150Y0008558D02*
X0007802Y0008558D01*
X0007802Y0008441D01*
X0007150Y0008441D01*
X0007150Y0008558D01*
X0007150Y0009058D02*
X0007802Y0009058D01*
X0007802Y0008941D01*
X0007150Y0008941D01*
X0007150Y0009058D01*
X0007150Y0009558D02*
X0007802Y0009558D01*
X0007802Y0009441D01*
X0007150Y0009441D01*
X0007150Y0009558D01*
X0007150Y0010058D02*
X0007802Y0010058D01*
X0007802Y0009941D01*
X0007150Y0009941D01*
X0007150Y0010058D01*
X0007150Y0010558D02*
X0007802Y0010558D01*
X0007802Y0010441D01*
X0007150Y0010441D01*
X0007150Y0010558D01*
X0007150Y0011058D02*
X0007802Y0011058D01*
X0007802Y0010941D01*
X0007150Y0010941D01*
X0007150Y0011058D01*
X0005849Y0011058D02*
X0005197Y0011058D01*
X0005849Y0011058D02*
X0005849Y0010941D01*
X0005197Y0010941D01*
X0005197Y0011058D01*
X0005197Y0010558D02*
X0005849Y0010558D01*
X0005849Y0010441D01*
X0005197Y0010441D01*
X0005197Y0010558D01*
X0005197Y0010058D02*
X0005849Y0010058D01*
X0005849Y0009941D01*
X0005197Y0009941D01*
X0005197Y0010058D01*
X0005197Y0009558D02*
X0005849Y0009558D01*
X0005849Y0009441D01*
X0005197Y0009441D01*
X0005197Y0009558D01*
X0005197Y0009058D02*
X0005849Y0009058D01*
X0005849Y0008941D01*
X0005197Y0008941D01*
X0005197Y0009058D01*
X0005197Y0008558D02*
X0005849Y0008558D01*
X0005849Y0008441D01*
X0005197Y0008441D01*
X0005197Y0008558D01*
X0005197Y0008058D02*
X0005849Y0008058D01*
X0005849Y0007941D01*
X0005197Y0007941D01*
X0005197Y0008058D01*
D12*
X0001500Y0008000D03*
X0001500Y0009000D03*
X0001500Y0010000D03*
D13*
X0003461Y0009348D03*
X0003461Y0008624D03*
D14*
X0002500Y0006799D02*
X0002500Y0006200D01*
X0001500Y0006200D02*
X0001500Y0006799D01*
X0001300Y0001000D02*
X0000700Y0001000D01*
X0000700Y0002000D02*
X0001300Y0002000D01*
X0001300Y0003000D02*
X0000700Y0003000D01*
X0000700Y0004000D02*
X0001300Y0004000D01*
X0002700Y0001000D02*
X0003300Y0001000D01*
X0003300Y0002000D02*
X0002700Y0002000D01*
X0002700Y0003000D02*
X0003300Y0003000D01*
X0003300Y0004000D02*
X0002700Y0004000D01*
D15*
X0004500Y0006500D03*
D16*
X0007152Y0007000D03*
X0006404Y0007000D03*
D17*
X0002740Y0010629D03*
X0003425Y0010629D03*
X0004094Y0010629D03*
D14*
X0004199Y0001000D02*
X0004800Y0001000D01*
X0004800Y0002000D02*
X0004199Y0002000D01*
X0004199Y0003000D02*
X0004800Y0003000D01*
X0004800Y0004000D02*
X0004199Y0004000D01*
X0007500Y0005200D02*
X0007500Y0005800D01*
X0006500Y0005800D02*
X0006500Y0005200D01*
X0006250Y0001950D02*
X0006850Y0001950D01*
X0006850Y0002950D02*
X0006250Y0002950D01*
X0006250Y0003950D02*
X0006850Y0003950D01*
G04 next file*
G04 EAGLE Gerber RS-274X export*
G75*
G01*
G04 Define Apertures*
D28*
X0013829Y0016547D02*
X0013829Y0015947D01*
X0012829Y0015947D02*
X0012829Y0016547D01*
X0010479Y0016549D02*
X0010479Y0015949D01*
X0011479Y0015949D02*
X0011479Y0016549D01*
D29*
X0003979Y0018098D03*
X0004137Y0018098D03*
X0004294Y0018098D03*
X0005495Y0018098D03*
X0005692Y0018098D03*
X0003979Y0014696D03*
X0004137Y0014696D03*
X0004294Y0014696D03*
X0005495Y0014696D03*
X0005692Y0014696D03*
D30*
X0005830Y0016594D03*
X0005830Y0016200D03*
D31*
X0005830Y0015799D03*
X0005830Y0016996D03*
D32*
X0005830Y0015314D03*
X0005830Y0017480D03*
G04 next file*
G04 EAGLE Gerber RS-274X export*
G75*
G01*
G04 Define Apertures*
D33*
X0019291Y0000000D02*
X0018110Y0001181D03*
X0018110Y0012204D03*
X0013385Y0001181D03*
D34*
X0012128Y0008515D02*
X0011528Y0008515D01*
X0011528Y0007515D02*
X0012128Y0007515D01*
X0012128Y0006515D02*
X0011528Y0006515D01*
X0011528Y0005515D02*
X0012128Y0005515D01*
X0017491Y0009500D02*
X0018091Y0009500D01*
X0018091Y0008500D02*
X0017491Y0008500D01*
X0017491Y0007500D02*
X0018091Y0007500D01*
X0018091Y0006500D02*
X0017491Y0006500D01*
X0017491Y0005500D02*
X0018091Y0005500D01*
X0018091Y0004500D02*
X0017491Y0004500D01*
X0017491Y0003500D02*
X0018091Y0003500D01*
D35*
X0015972Y0010271D03*
X0013610Y0010271D03*
X0015972Y0011728D03*
X0013610Y0011728D03*
X0015972Y0006271D03*
X0013610Y0006271D03*
X0015972Y0007728D03*
X0013610Y0007728D03*
X0015972Y0002271D03*
X0013610Y0002271D03*
X0015972Y0003728D03*
X0013610Y0003728D03*
M02*