%
M48
METRIC,000.000
T04C0.35
T03C0.80
T02C1.02
T10C0.70
T11C2.10
T12C0.50
%
T04
X006985Y025667
X019050Y029210
X012700Y029210
X015240Y025400
X012929Y015240
X016001Y021590
X013029Y040380
X013030Y042920
X042650Y024130
X042650Y005715
T03
X003810Y020320
X003810Y022860
X003810Y025400
T02
X006350Y016510
X003810Y016510
X002540Y002540
X002540Y005080
X002540Y007620
X002540Y010160
X007620Y002540
X007620Y005080
X007620Y007620
X007620Y010160
X011430Y016510
X011430Y002540
X011430Y005080
X011430Y007620
X011430Y010160
X019050Y013970
X016510Y013970
X016637Y004953
X016637Y007493
X016637Y010033
X035128Y041269
X032588Y041269
X026619Y041272
X029159Y041272
X030044Y021630
X030044Y019090
X030044Y016550
X030044Y014010
X045190Y024130
X045190Y021590
X045190Y019050
X045190Y016510
X045190Y013970
X045190Y011430
X045190Y008890
T10
X010109Y045970
X010509Y045970
X010908Y045970
X013959Y045970
X014459Y045970
X010109Y037330
X010509Y037330
X010908Y037330
X013958Y037330
X014458Y037330
T11
X046000Y003000
X046000Y031000
X034000Y003000
T12
X014068Y032250
X013068Y032250
X012068Y032250
X011068Y032250
X010068Y032250
X010019Y034849
X011019Y034849
X012019Y034849
X013019Y034849
X014019Y034849
X022250Y026465
X022250Y027465
X022250Y028465
X022250Y029465
X022201Y030462
X021789Y031364
X024950Y030942
X024950Y029942
X024950Y028942
X024950Y027942
X024950Y026942
X022250Y003465
X022250Y004465
X022250Y005465
X022250Y006465
X022250Y007465
X022250Y008465
X024950Y007942
X024950Y006942
X024950Y005942
X024950Y004942
X024950Y003942
X032235Y038149
X033236Y038149
X034236Y038149
X035236Y038149
X036235Y038172
X035338Y034520
X034338Y034520
X033338Y034520
X032338Y034520
M30